<?xml version="1.0" encoding="UTF-8"?>
<!DOCTYPE svg PUBLIC "-//W3C//DTD SVG 1.1//EN" "http://www.w3.org/Graphics/SVG/1.1/DTD/svg11.dtd">
<svg xmlns="http://www.w3.org/2000/svg" version="1.1" width="162px" height="168px" style="shape-rendering:geometricPrecision; text-rendering:geometricPrecision; image-rendering:optimizeQuality; fill-rule:evenodd; clip-rule:evenodd" xmlns:xlink="http://www.w3.org/1999/xlink">
<g><path style="opacity:1" fill="#3ee2e2" d="M 35.5,-0.5 C 37.1667,-0.5 38.8333,-0.5 40.5,-0.5C 43.5,3.5 46.5,7.5 49.5,11.5C 49.5,12.8333 49.5,14.1667 49.5,15.5C 49.3713,17.2161 49.038,18.8828 48.5,20.5C 47.0937,20.9731 46.427,21.9731 46.5,23.5C 42.8493,15.5726 39.1826,7.57257 35.5,-0.5 Z"/></g>
<g><path style="opacity:0.667" fill="#6dc3ee" d="M 49.5,11.5 C 51.5869,12.5846 52.9202,14.2512 53.5,16.5C 52.2921,15.7659 50.9587,15.4326 49.5,15.5C 49.5,14.1667 49.5,12.8333 49.5,11.5 Z"/></g>
<g><path style="opacity:1" fill="#79b6ed" d="M 53.5,16.5 C 55.914,17.9108 57.5806,19.9108 58.5,22.5C 56.086,21.0892 54.4194,19.0892 53.5,16.5 Z"/></g>
<g><path style="opacity:1" fill="#1181f9" d="M 49.5,15.5 C 50.9587,15.4326 52.2921,15.7659 53.5,16.5C 54.4194,19.0892 56.086,21.0892 58.5,22.5C 59.2653,25.0961 59.5987,27.7628 59.5,30.5C 59.5,31.1667 59.5,31.8333 59.5,32.5C 57.8205,33.7822 56.4871,35.4489 55.5,37.5C 53.5891,37.4257 52.4224,36.4257 52,34.5C 49.9324,30.04 48.7657,25.3733 48.5,20.5C 49.038,18.8828 49.3713,17.2161 49.5,15.5 Z"/></g>
<g><path style="opacity:1" fill="#40b5ef" d="M 58.5,22.5 C 59.8333,23.1667 60.8333,24.1667 61.5,25.5C 61.8799,27.698 61.2132,29.3646 59.5,30.5C 59.5987,27.7628 59.2653,25.0961 58.5,22.5 Z"/></g>
<g><path style="opacity:1" fill="#519ae3" d="M 48.5,20.5 C 48.7657,25.3733 49.9324,30.04 52,34.5C 52.4224,36.4257 53.5891,37.4257 55.5,37.5C 55.0269,38.9063 54.0269,39.573 52.5,39.5C 50.5,34.1667 48.5,28.8333 46.5,23.5C 46.427,21.9731 47.0937,20.9731 48.5,20.5 Z"/></g>
<g><path style="opacity:1" fill="#20e6e5" d="M 61.5,25.5 C 65.6465,29.7949 69.3132,34.4616 72.5,39.5C 72.5,41.1667 72.5,42.8333 72.5,44.5C 67.0414,44.8967 61.7081,44.3967 56.5,43C 55.9781,42.4387 55.6448,41.772 55.5,41C 57.079,38.2628 58.4123,35.4295 59.5,32.5C 59.5,31.8333 59.5,31.1667 59.5,30.5C 61.2132,29.3646 61.8799,27.698 61.5,25.5 Z"/></g>
<g><path style="opacity:1" fill="#65d9e3" d="M 84.5,40.5 C 95.6591,39.3407 106.992,39.1741 118.5,40C 120.058,40.21 121.391,40.71 122.5,41.5C 120.589,42.075 118.922,43.075 117.5,44.5C 117.414,43.5041 117.748,42.6708 118.5,42C 108.5,41.3333 98.5,41.3333 88.5,42C 89.7101,43.0391 90.7101,44.2058 91.5,45.5C 90.8333,45.5 90.1667,45.5 89.5,45.5C 88.483,43.0887 86.8163,41.422 84.5,40.5 Z"/></g>
<g><path style="opacity:1" fill="#2182e2" d="M 75.5,40.5 C 78.5,40.5 81.5,40.5 84.5,40.5C 86.8163,41.422 88.483,43.0887 89.5,45.5C 86.2329,43.422 81.8996,42.0886 76.5,41.5C 76.5,42.5 76.5,43.5 76.5,44.5C 74.8624,43.2954 74.5291,41.9621 75.5,40.5 Z"/></g>
<g><path style="opacity:1" fill="#3ed8f2" d="M 59.5,32.5 C 58.4123,35.4295 57.079,38.2628 55.5,41C 55.6448,41.772 55.9781,42.4387 56.5,43C 61.7081,44.3967 67.0414,44.8967 72.5,44.5C 72.5,42.8333 72.5,41.1667 72.5,39.5C 73.791,39.2627 74.791,39.596 75.5,40.5C 74.5291,41.9621 74.8624,43.2954 76.5,44.5C 76.7329,46.0618 77.3995,47.3951 78.5,48.5C 71.3014,44.9796 63.9681,44.6463 56.5,47.5C 56.0679,46.2905 55.4013,45.2905 54.5,44.5C 54.1075,42.7162 53.4408,41.0495 52.5,39.5C 54.0269,39.573 55.0269,38.9063 55.5,37.5C 56.4871,35.4489 57.8205,33.7822 59.5,32.5 Z"/></g>
<g><path style="opacity:1" fill="#5bdce5" d="M 42.5,73.5 C 41.8333,73.5 41.5,73.1667 41.5,72.5C 40.1667,66.8333 40.1667,61.1667 41.5,55.5C 44.1734,51.2456 46.8401,46.9123 49.5,42.5C 46.5541,41.3452 43.5541,41.1786 40.5,42C 37.7649,43.9153 34.7649,45.082 31.5,45.5C 36.6657,41.2256 42.6657,39.3922 49.5,40C 51.3769,42.2314 52.2102,44.7314 52,47.5C 43.0413,53.9765 39.8747,62.6432 42.5,73.5 Z"/></g>
<g><path style="opacity:0.004" fill="#fefffe" d="M 54.5,44.5 C 53.8333,45.1667 53.8333,45.1667 54.5,44.5 Z"/></g>
<g><path style="opacity:1" fill="#36cdf2" d="M 125.5,41.5 C 127.5,42.5 129.5,43.5 131.5,44.5C 131.5,45.5 131.5,46.5 131.5,47.5C 129.533,49.3039 127.699,51.3039 126,53.5C 125.51,54.7932 125.343,56.1266 125.5,57.5C 124.12,57.0377 123.453,56.0377 123.5,54.5C 125.853,52.1401 127.853,49.4735 129.5,46.5C 128.094,44.8223 126.761,43.1557 125.5,41.5 Z"/></g>
<g><path style="opacity:1" fill="#5f9ae4" d="M 54.5,49.5 C 54.5,50.5 54.5,51.5 54.5,52.5C 53.1779,52.33 52.0113,52.6634 51,53.5C 49.3333,56.5 47.6667,59.5 46,62.5C 45.502,65.4816 45.3354,68.4816 45.5,71.5C 43.0161,61.9569 46.0161,54.6235 54.5,49.5 Z"/></g>
<g><path style="opacity:1" fill="#1884f5" d="M 78.5,48.5 C 79.5307,49.355 80.6974,50.0217 82,50.5C 83.0105,50.1081 83.5105,49.4415 83.5,48.5C 84.2868,49.2421 84.9535,50.0754 85.5,51C 84.244,51.4169 83.5774,52.2502 83.5,53.5C 79.1072,51.5815 74.4405,50.5815 69.5,50.5C 56.1838,52.8076 51.1838,60.4743 54.5,73.5C 55.6202,79.0765 58.2869,83.7432 62.5,87.5C 62.6716,88.4916 62.3382,89.1583 61.5,89.5C 55.9193,86.5874 51.2526,82.5874 47.5,77.5C 46.2702,75.7028 45.6036,73.7028 45.5,71.5C 45.3354,68.4816 45.502,65.4816 46,62.5C 47.6667,59.5 49.3333,56.5 51,53.5C 52.0113,52.6634 53.1779,52.33 54.5,52.5C 54.5,51.5 54.5,50.5 54.5,49.5C 55.1667,48.8333 55.8333,48.1667 56.5,47.5C 63.9681,44.6463 71.3014,44.9796 78.5,48.5 Z"/></g>
<g><path style="opacity:1" fill="#1ad8ef" d="M 83.5,53.5 C 83.5,53.8333 83.5,54.1667 83.5,54.5C 82.1667,54.5 80.8333,54.5 79.5,54.5C 78.1286,53.2132 76.2953,52.5465 74,52.5C 70.7077,52.0259 68.0411,53.0259 66,55.5C 65,55.1667 64,54.8333 63,54.5C 58.6288,55.8767 55.9622,58.8767 55,63.5C 54.5017,66.8168 54.335,70.1501 54.5,73.5C 51.1838,60.4743 56.1838,52.8076 69.5,50.5C 74.4405,50.5815 79.1072,51.5815 83.5,53.5 Z"/></g>
<g><path style="opacity:1" fill="#1bdee5" d="M 41.5,55.5 C 38.7952,55.3802 38.1285,56.3802 39.5,58.5C 38.0468,61.2976 37.0468,64.2976 36.5,67.5C 35.5008,64.8392 34.5008,62.1725 33.5,59.5C 32.675,58.6143 31.675,58.281 30.5,58.5C 30.4613,61.3214 29.7946,63.9881 28.5,66.5C 26.2448,64.3122 24.0781,64.6455 22,67.5C 21.6667,67.1667 21.3333,66.8333 21,66.5C 19.1748,68.4796 18.3415,70.8129 18.5,73.5C 17.5269,71.0521 17.1936,68.3854 17.5,65.5C 18.7259,56.3679 23.3926,49.7013 31.5,45.5C 34.7649,45.082 37.7649,43.9153 40.5,42C 43.5541,41.1786 46.5541,41.3452 49.5,42.5C 46.8401,46.9123 44.1734,51.2456 41.5,55.5 Z"/></g>
<g><path style="opacity:1" fill="#1de3e4" d="M 79.5,54.5 C 60.8477,59.0877 55.8477,70.0877 64.5,87.5C 63.8333,87.5 63.1667,87.5 62.5,87.5C 58.2869,83.7432 55.6202,79.0765 54.5,73.5C 54.335,70.1501 54.5017,66.8168 55,63.5C 55.9622,58.8767 58.6288,55.8767 63,54.5C 64,54.8333 65,55.1667 66,55.5C 68.0411,53.0259 70.7077,52.0259 74,52.5C 76.2953,52.5465 78.1286,53.2132 79.5,54.5 Z"/></g>
<g><path style="opacity:1" fill="#03e7e6" d="M 131.5,47.5 C 132.721,48.0283 133.887,48.695 135,49.5C 135.216,51.3839 135.883,53.0506 137,54.5C 138,53.1667 139,53.1667 140,54.5C 140.461,58.0813 141.961,61.0813 144.5,63.5C 141.216,64.657 137.882,64.8236 134.5,64C 133.491,61.8282 131.824,60.6615 129.5,60.5C 129.5,59.5 129.5,58.5 129.5,57.5C 128.167,57.5 126.833,57.5 125.5,57.5C 125.343,56.1266 125.51,54.7932 126,53.5C 127.699,51.3039 129.533,49.3039 131.5,47.5 Z"/></g>
<g><path style="opacity:1" fill="#3885e5" d="M 86.5,55.5 C 96.0047,57.7178 105.671,58.8845 115.5,59C 114.748,59.6708 114.414,60.5041 114.5,61.5C 113.601,60.5285 112.434,59.8618 111,59.5C 102.132,61.7006 93.9657,60.3672 86.5,55.5 Z"/></g>
<g><path style="opacity:1" fill="#43dce6" d="M 131.5,44.5 C 140.084,49.7646 145.084,57.4313 146.5,67.5C 141.015,66.5894 135.681,65.2561 130.5,63.5C 128.086,62.0892 126.419,60.0892 125.5,57.5C 126.833,57.5 128.167,57.5 129.5,57.5C 129.5,58.5 129.5,59.5 129.5,60.5C 131.824,60.6615 133.491,61.8282 134.5,64C 137.882,64.8236 141.216,64.657 144.5,63.5C 141.961,61.0813 140.461,58.0813 140,54.5C 139,53.1667 138,53.1667 137,54.5C 135.883,53.0506 135.216,51.3839 135,49.5C 133.887,48.695 132.721,48.0283 131.5,47.5C 131.5,46.5 131.5,45.5 131.5,44.5 Z"/></g>
<g><path style="opacity:0.999" fill="#f5fdfd" d="M 79.5,54.5 C 80.8333,54.5 82.1667,54.5 83.5,54.5C 84.391,55.1098 85.391,55.4431 86.5,55.5C 93.9657,60.3672 102.132,61.7006 111,59.5C 112.434,59.8618 113.601,60.5285 114.5,61.5C 118.39,67.8886 123.724,72.7219 130.5,76C 120.829,95.8149 125.495,111.315 144.5,122.5C 144.842,123.338 145.508,123.672 146.5,123.5C 150.195,142.066 144.528,156.732 129.5,167.5C 97.8333,167.5 66.1667,167.5 34.5,167.5C 31.9795,165.981 29.4795,164.314 27,162.5C 26.3828,161.551 26.5494,160.718 27.5,160C 38.6101,160.039 49.6101,159.039 60.5,157C 62.7472,155.723 64.7472,154.223 66.5,152.5C 67.4916,152.672 68.1583,152.338 68.5,151.5C 69.4916,151.672 70.1583,151.338 70.5,150.5C 72.0269,150.573 73.0269,149.906 73.5,148.5C 74.1667,148.5 74.5,148.167 74.5,147.5C 75.1667,147.5 75.5,147.167 75.5,146.5C 76.1667,146.5 76.5,146.167 76.5,145.5C 77.8333,145.167 77.8333,144.833 76.5,144.5C 77.795,143.512 79.1283,142.512 80.5,141.5C 91.0449,136.458 99.2116,128.791 105,118.5C 108.666,112.17 111.499,105.503 113.5,98.5C 113.167,98.1667 112.833,97.8333 112.5,97.5C 109.482,99.5258 106.482,101.526 103.5,103.5C 102.262,102.588 100.928,102.421 99.5,103C 98.0158,104.574 96.3492,105.907 94.5,107C 95.8333,107.667 95.8333,108.333 94.5,109C 84.8412,110.037 75.1745,111.037 65.5,112C 62.5655,118.13 58.8989,123.796 54.5,129C 50.7024,130.237 46.869,130.737 43,130.5C 36.2526,127.901 31.7526,123.234 29.5,116.5C 32.6224,107.589 36.7891,99.2552 42,91.5C 42.7401,90.2506 42.5735,89.2506 41.5,88.5C 41.8333,87.1667 42.1667,85.8333 42.5,84.5C 43.3382,84.1583 43.6716,83.4916 43.5,82.5C 44.1667,82.5 44.5,82.1667 44.5,81.5C 44.5,81.1667 44.5,80.8333 44.5,80.5C 46.5,80.5 47.5,79.5 47.5,77.5C 51.2526,82.5874 55.9193,86.5874 61.5,89.5C 62.9175,91.7082 64.9175,92.5415 67.5,92C 66.1175,90.7292 65.1175,89.2292 64.5,87.5C 55.8477,70.0877 60.8477,59.0877 79.5,54.5 Z"/></g>
<g><path style="opacity:1" fill="#1881f8" d="M 89.5,45.5 C 90.1667,45.5 90.8333,45.5 91.5,45.5C 92.343,47.1733 93.6763,48.34 95.5,49C 103.718,50.8216 111.051,49.3216 117.5,44.5C 118.922,43.075 120.589,42.075 122.5,41.5C 123.5,41.5 124.5,41.5 125.5,41.5C 126.761,43.1557 128.094,44.8223 129.5,46.5C 127.853,49.4735 125.853,52.1401 123.5,54.5C 123.453,56.0377 124.12,57.0377 125.5,57.5C 126.419,60.0892 128.086,62.0892 130.5,63.5C 130.804,64.1499 131.137,64.8165 131.5,65.5C 135.754,67.6099 140.254,68.9433 145,69.5C 145.891,72.4976 145.391,75.1643 143.5,77.5C 141.983,77.5106 140.816,78.1772 140,79.5C 138.525,82.1218 137.359,84.7884 136.5,87.5C 134.93,93.5912 135.43,99.5912 138,105.5C 139.451,107.464 141.284,108.797 143.5,109.5C 145.703,113.726 146.036,118.059 144.5,122.5C 125.495,111.315 120.829,95.8149 130.5,76C 123.724,72.7219 118.39,67.8886 114.5,61.5C 114.414,60.5041 114.748,59.6708 115.5,59C 105.671,58.8845 96.0047,57.7178 86.5,55.5C 85.391,55.4431 84.391,55.1098 83.5,54.5C 83.5,54.1667 83.5,53.8333 83.5,53.5C 83.5774,52.2502 84.244,51.4169 85.5,51C 84.9535,50.0754 84.2868,49.2421 83.5,48.5C 83.5105,49.4415 83.0105,50.1081 82,50.5C 80.6974,50.0217 79.5307,49.355 78.5,48.5C 77.3995,47.3951 76.7329,46.0618 76.5,44.5C 76.5,43.5 76.5,42.5 76.5,41.5C 81.8996,42.0886 86.2329,43.422 89.5,45.5 Z"/></g>
<g><path style="opacity:1" fill="#0ae4e7" d="M 117.5,44.5 C 111.051,49.3216 103.718,50.8216 95.5,49C 93.6763,48.34 92.343,47.1733 91.5,45.5C 90.7101,44.2058 89.7101,43.0391 88.5,42C 98.5,41.3333 108.5,41.3333 118.5,42C 117.748,42.6708 117.414,43.5041 117.5,44.5 Z"/></g>
<g><path style="opacity:0.816" fill="#429ce1" d="M 130.5,63.5 C 135.681,65.2561 141.015,66.5894 146.5,67.5C 146.5,70.8333 146.5,74.1667 146.5,77.5C 145.5,77.5 144.5,77.5 143.5,77.5C 145.391,75.1643 145.891,72.4976 145,69.5C 140.254,68.9433 135.754,67.6099 131.5,65.5C 131.137,64.8165 130.804,64.1499 130.5,63.5 Z"/></g>
<g><path style="opacity:1" fill="#05d2eb" d="M 41.5,55.5 C 40.1667,61.1667 40.1667,66.8333 41.5,72.5C 40.0652,73.7898 39.0652,75.4565 38.5,77.5C 36.7475,75.7389 34.7475,74.4056 32.5,73.5C 31.8333,73.8333 31.1667,74.1667 30.5,74.5C 29.9851,76.2251 29.3184,77.8917 28.5,79.5C 27.8333,78.8333 27.1667,78.1667 26.5,77.5C 25.7568,78.9079 24.9234,80.2412 24,81.5C 22.4126,80.273 21.0793,80.6063 20,82.5C 18.6081,79.7216 18.1081,76.7216 18.5,73.5C 18.3415,70.8129 19.1748,68.4796 21,66.5C 21.3333,66.8333 21.6667,67.1667 22,67.5C 24.0781,64.6455 26.2448,64.3122 28.5,66.5C 29.7946,63.9881 30.4613,61.3214 30.5,58.5C 31.675,58.281 32.675,58.6143 33.5,59.5C 34.5008,62.1725 35.5008,64.8392 36.5,67.5C 37.0468,64.2976 38.0468,61.2976 39.5,58.5C 38.1285,56.3802 38.7952,55.3802 41.5,55.5 Z"/></g>
<g><path style="opacity:1" fill="#53d0ed" d="M 17.5,65.5 C 17.1936,68.3854 17.5269,71.0521 18.5,73.5C 18.1081,76.7216 18.6081,79.7216 20,82.5C 21.0793,80.6063 22.4126,80.273 24,81.5C 24.9234,80.2412 25.7568,78.9079 26.5,77.5C 27.1667,78.1667 27.8333,78.8333 28.5,79.5C 29.3184,77.8917 29.9851,76.2251 30.5,74.5C 31.1667,74.1667 31.8333,73.8333 32.5,73.5C 34.7475,74.4056 36.7475,75.7389 38.5,77.5C 39.0652,75.4565 40.0652,73.7898 41.5,72.5C 41.5,73.1667 41.8333,73.5 42.5,73.5C 44.1953,75.7932 44.862,78.1266 44.5,80.5C 44.5,80.8333 44.5,81.1667 44.5,81.5C 43.8333,81.5 43.5,81.8333 43.5,82.5C 42.6618,82.8417 42.3284,83.5084 42.5,84.5C 40.0764,87.0078 38.4097,90.0078 37.5,93.5C 36.6618,93.8417 36.3284,94.5084 36.5,95.5C 35.8333,95.5 35.5,95.8333 35.5,96.5C 34.6618,96.8417 34.3284,97.5084 34.5,98.5C 34.1667,98.5 33.8333,98.5 33.5,98.5C 35.2608,91.4755 38.2608,84.9755 42.5,79C 42.3333,78.5 42.1667,78 42,77.5C 40.951,79.1066 39.451,79.7733 37.5,79.5C 37.5761,82.7673 36.2427,84.1007 33.5,83.5C 32.1166,86.0756 31.2833,85.7423 31,82.5C 30.0266,84.3921 29.3599,86.3921 29,88.5C 28.1667,87.5 27.3333,86.5 26.5,85.5C 25.7568,86.9079 24.9234,88.2412 24,89.5C 23.586,89.0426 23.086,88.7093 22.5,88.5C 21.1743,89.9902 19.6743,91.3235 18,92.5C 17.5002,102.828 17.3335,113.161 17.5,123.5C 17.5,130.167 17.5,136.833 17.5,143.5C 16.1667,117.5 16.1667,91.5 17.5,65.5 Z"/></g>
<g><path style="opacity:1" fill="#2c38a0" d="M 84.5,80.5 C 84.5394,79.4168 84.8728,78.4168 85.5,77.5C 82.2714,75.8187 80.2714,76.8187 79.5,80.5C 80.6888,81.4287 82.0222,81.762 83.5,81.5C 81.7354,82.4614 79.7354,82.7947 77.5,82.5C 78.5511,75.6464 82.2178,73.4798 88.5,76C 87.6719,77.9923 86.3386,79.4923 84.5,80.5 Z"/></g>
<g><path style="opacity:1" fill="#1127b8" d="M 84.5,80.5 C 84.5,81.1667 84.1667,81.5 83.5,81.5C 82.0222,81.762 80.6888,81.4287 79.5,80.5C 80.2714,76.8187 82.2714,75.8187 85.5,77.5C 84.8728,78.4168 84.5394,79.4168 84.5,80.5 Z"/></g>
<g><path style="opacity:1" fill="#59a5d7" d="M 62.5,87.5 C 63.1667,87.5 63.8333,87.5 64.5,87.5C 65.1175,89.2292 66.1175,90.7292 67.5,92C 64.9175,92.5415 62.9175,91.7082 61.5,89.5C 62.3382,89.1583 62.6716,88.4916 62.5,87.5 Z"/></g>
<g><path style="opacity:1" fill="#09e6e6" d="M 145.5,108.5 C 145.158,109.338 144.492,109.672 143.5,109.5C 142.833,108.5 142.167,107.5 141.5,106.5C 138.662,99.4959 137.828,92.1625 139,84.5C 140.02,83.1095 140.853,81.6095 141.5,80C 142.793,79.51 144.127,79.3433 145.5,79.5C 145.5,89.1667 145.5,98.8333 145.5,108.5 Z"/></g>
<g><path style="opacity:1" fill="#32d5ea" d="M 143.5,77.5 C 144.5,77.5 145.5,77.5 146.5,77.5C 146.5,87.8333 146.5,98.1667 146.5,108.5C 146.167,108.5 145.833,108.5 145.5,108.5C 145.5,98.8333 145.5,89.1667 145.5,79.5C 144.127,79.3433 142.793,79.51 141.5,80C 140.853,81.6095 140.02,83.1095 139,84.5C 137.828,92.1625 138.662,99.4959 141.5,106.5C 140.542,106.047 139.708,105.381 139,104.5C 136.984,99.0117 136.151,93.345 136.5,87.5C 137.359,84.7884 138.525,82.1218 140,79.5C 140.816,78.1772 141.983,77.5106 143.5,77.5 Z"/></g>
<g><path style="opacity:1" fill="#22beec" d="M 33.5,98.5 C 33.5,99.1667 33.5,99.8333 33.5,100.5C 32.6618,100.842 32.3284,101.508 32.5,102.5C 31.6618,102.842 31.3284,103.508 31.5,104.5C 30.6618,104.842 30.3284,105.508 30.5,106.5C 29.6618,106.842 29.3284,107.508 29.5,108.5C 28.6618,108.842 28.3284,109.508 28.5,110.5C 27.6618,110.842 27.3284,111.508 27.5,112.5C 26.8333,112.5 26.5,112.833 26.5,113.5C 26.1667,113.5 25.8333,113.5 25.5,113.5C 25.4606,112.417 25.1272,111.417 24.5,110.5C 28.6115,107.43 28.2782,105.763 23.5,105.5C 23.6621,107.527 23.4955,109.527 23,111.5C 22.2904,110.027 21.1238,109.36 19.5,109.5C 19.4433,111.884 19.7766,114.218 20.5,116.5C 18.95,118.01 17.95,120.343 17.5,123.5C 17.3335,113.161 17.5002,102.828 18,92.5C 19.6743,91.3235 21.1743,89.9902 22.5,88.5C 23.086,88.7093 23.586,89.0426 24,89.5C 24.9234,88.2412 25.7568,86.9079 26.5,85.5C 27.3333,86.5 28.1667,87.5 29,88.5C 29.3599,86.3921 30.0266,84.3921 31,82.5C 31.2833,85.7423 32.1166,86.0756 33.5,83.5C 36.2427,84.1007 37.5761,82.7673 37.5,79.5C 39.451,79.7733 40.951,79.1066 42,77.5C 42.1667,78 42.3333,78.5 42.5,79C 38.2608,84.9755 35.2608,91.4755 33.5,98.5 Z"/></g>
<g><path style="opacity:1" fill="#0999eb" d="M 136.5,87.5 C 136.151,93.345 136.984,99.0117 139,104.5C 139.708,105.381 140.542,106.047 141.5,106.5C 142.167,107.5 142.833,108.5 143.5,109.5C 141.284,108.797 139.451,107.464 138,105.5C 135.43,99.5912 134.93,93.5912 136.5,87.5 Z"/></g>
<g><path style="opacity:0.115" fill="#aad8f8" d="M 93.5,117.5 C 93.5,116.5 93.5,115.5 93.5,114.5C 86.1667,114.5 78.8333,114.5 71.5,114.5C 78.7038,113.802 86.0372,113.136 93.5,112.5C 94.7879,114.299 94.7879,115.965 93.5,117.5 Z"/></g>
<g><path style="opacity:0.598" fill="#83b4eb" d="M 145.5,108.5 C 145.833,108.5 146.167,108.5 146.5,108.5C 146.5,113.5 146.5,118.5 146.5,123.5C 145.508,123.672 144.842,123.338 144.5,122.5C 146.036,118.059 145.703,113.726 143.5,109.5C 144.492,109.672 145.158,109.338 145.5,108.5 Z"/></g>
<g><path style="opacity:1" fill="#2facec" d="M 25.5,113.5 C 25.1936,116.385 25.5269,119.052 26.5,121.5C 28.8044,124.141 31.1377,126.808 33.5,129.5C 32.0695,129.579 30.7362,129.246 29.5,128.5C 28.5272,125.433 26.6938,124.433 24,125.5C 23.51,124.207 23.3433,122.873 23.5,121.5C 22.325,121.281 21.325,121.614 20.5,122.5C 21.9501,123.85 22.6168,125.516 22.5,127.5C 20.8762,127.64 19.7096,126.973 19,125.5C 18.5014,129.152 18.3347,132.818 18.5,136.5C 18.569,141.945 19.2356,147.278 20.5,152.5C 18.1324,150.044 17.1324,147.044 17.5,143.5C 17.5,136.833 17.5,130.167 17.5,123.5C 17.95,120.343 18.95,118.01 20.5,116.5C 19.7766,114.218 19.4433,111.884 19.5,109.5C 21.1238,109.36 22.2904,110.027 23,111.5C 23.4955,109.527 23.6621,107.527 23.5,105.5C 28.2782,105.763 28.6115,107.43 24.5,110.5C 25.1272,111.417 25.4606,112.417 25.5,113.5 Z"/></g>
<g><path style="opacity:1" fill="#0f8efb" d="M 85.5,124.5 C 82.5087,123.283 80.842,124.45 80.5,128C 79.2396,129.113 78.073,129.28 77,128.5C 75.1667,129.667 73.6667,131.167 72.5,133C 68.7977,132.71 66.2977,134.21 65,137.5C 64.5774,136.044 63.7441,135.544 62.5,136C 62.8333,136.333 63.1667,136.667 63.5,137C 55.9616,141.415 48.2949,145.582 40.5,149.5C 38.5721,151.05 36.7387,152.717 35,154.5C 33.7083,153.209 32.5417,153.209 31.5,154.5C 28.8806,154.768 26.3806,154.435 24,153.5C 24.3905,150.185 25.2238,146.852 26.5,143.5C 23.8678,141.058 23.8678,138.725 26.5,136.5C 27.1667,137.833 27.8333,139.167 28.5,140.5C 30.2802,137.952 32.7802,136.619 36,136.5C 41.9735,136.419 47.9735,136.752 54,137.5C 55.6512,136.258 57.4845,135.424 59.5,135C 58.7203,133.927 58.887,132.76 60,131.5C 63.9941,128.211 66.6608,124.211 68,119.5C 68.9246,118.953 69.7579,118.287 70.5,117.5C 77.4763,116.336 84.4763,116.169 91.5,117C 90.7819,119.461 90.1153,121.961 89.5,124.5C 88.3002,125.292 86.9669,125.292 85.5,124.5 Z"/></g>
<g><path style="opacity:0.357" fill="#e6eae9" d="M 41.5,88.5 C 42.5735,89.2506 42.7401,90.2506 42,91.5C 36.7891,99.2552 32.6224,107.589 29.5,116.5C 31.7526,123.234 36.2526,127.901 43,130.5C 46.869,130.737 50.7024,130.237 54.5,129C 58.8989,123.796 62.5655,118.13 65.5,112C 75.1745,111.037 84.8412,110.037 94.5,109C 95.8333,108.333 95.8333,107.667 94.5,107C 96.3492,105.907 98.0158,104.574 99.5,103C 100.928,102.421 102.262,102.588 103.5,103.5C 100.56,106.977 96.893,109.477 92.5,111C 84.4641,111.277 76.4641,111.943 68.5,113C 67.4214,113.956 66.2547,114.789 65,115.5C 63.2581,119.567 61.4248,123.567 59.5,127.5C 58.8333,127.5 58.5,127.833 58.5,128.5C 57.8333,128.5 57.5,128.833 57.5,129.5C 43.4878,135.329 33.3212,131.329 27,117.5C 26.51,118.793 26.3433,120.127 26.5,121.5C 25.5269,119.052 25.1936,116.385 25.5,113.5C 25.8333,113.5 26.1667,113.5 26.5,113.5C 27.0447,117.172 27.3781,116.838 27.5,112.5C 28.3382,112.158 28.6716,111.492 28.5,110.5C 29.3382,110.158 29.6716,109.492 29.5,108.5C 30.3382,108.158 30.6716,107.492 30.5,106.5C 31.3382,106.158 31.6716,105.492 31.5,104.5C 32.3382,104.158 32.6716,103.492 32.5,102.5C 33.3382,102.158 33.6716,101.492 33.5,100.5C 34.3382,100.158 34.6716,99.4916 34.5,98.5C 35.3382,98.1583 35.6716,97.4916 35.5,96.5C 36.1667,96.5 36.5,96.1667 36.5,95.5C 37.3382,95.1583 37.6716,94.4916 37.5,93.5C 39.0737,92.0158 40.407,90.3492 41.5,88.5 Z"/></g>
<g><path style="opacity:0.639" fill="#97cbf1" d="M 63.5,124.5 C 61.8333,128.167 59.1667,130.833 55.5,132.5C 56.1667,131.5 56.8333,130.5 57.5,129.5C 58.1667,129.5 58.5,129.167 58.5,128.5C 59.1667,128.5 59.5,128.167 59.5,127.5C 60.8333,126.5 62.1667,125.5 63.5,124.5 Z"/></g>
<g><path style="opacity:1" fill="#1485fc" d="M 85.5,124.5 C 86.3414,126.379 86.6747,128.379 86.5,130.5C 84.0582,130.119 83.3915,130.786 84.5,132.5C 83.1936,133.912 82.3603,135.579 82,137.5C 81.6667,136.5 81.3333,135.5 81,134.5C 80.5045,136.473 80.3379,138.473 80.5,140.5C 78.7376,140.357 77.0709,140.691 75.5,141.5C 74.8916,145.975 72.5582,147.809 68.5,147C 69.6843,148.145 69.6843,149.312 68.5,150.5C 68.5,150.833 68.5,151.167 68.5,151.5C 67.5084,151.328 66.8417,151.662 66.5,152.5C 65.1667,152.833 63.8333,153.167 62.5,153.5C 59.4021,153.756 56.4021,154.422 53.5,155.5C 45.9809,155.825 38.6476,155.492 31.5,154.5C 32.5417,153.209 33.7083,153.209 35,154.5C 36.7387,152.717 38.5721,151.05 40.5,149.5C 48.2949,145.582 55.9616,141.415 63.5,137C 63.1667,136.667 62.8333,136.333 62.5,136C 63.7441,135.544 64.5774,136.044 65,137.5C 66.2977,134.21 68.7977,132.71 72.5,133C 73.6667,131.167 75.1667,129.667 77,128.5C 78.073,129.28 79.2396,129.113 80.5,128C 80.842,124.45 82.5087,123.283 85.5,124.5 Z"/></g>
<g><path style="opacity:1" fill="#1ea4f6" d="M 33.5,129.5 C 38.6123,132.864 44.279,134.53 50.5,134.5C 45.6727,135.293 40.6727,135.293 35.5,134.5C 35.5,133.5 35.5,132.5 35.5,131.5C 32.9382,130.629 30.2716,130.629 27.5,131.5C 27.9153,133.948 26.9153,135.281 24.5,135.5C 23.3527,135.182 22.5194,134.516 22,133.5C 20.9609,134.71 19.7942,135.71 18.5,136.5C 18.3347,132.818 18.5014,129.152 19,125.5C 19.7096,126.973 20.8762,127.64 22.5,127.5C 22.6168,125.516 21.9501,123.85 20.5,122.5C 21.325,121.614 22.325,121.281 23.5,121.5C 23.3433,122.873 23.51,124.207 24,125.5C 26.6938,124.433 28.5272,125.433 29.5,128.5C 30.7362,129.246 32.0695,129.579 33.5,129.5 Z"/></g>
<g><path style="opacity:1" fill="#2b95ee" d="M 71.5,114.5 C 78.8333,114.5 86.1667,114.5 93.5,114.5C 93.5,115.5 93.5,116.5 93.5,117.5C 91.4908,124.688 88.3241,131.355 84,137.5C 82.9609,138.71 81.7942,139.71 80.5,140.5C 80.3379,138.473 80.5045,136.473 81,134.5C 81.3333,135.5 81.6667,136.5 82,137.5C 82.3603,135.579 83.1936,133.912 84.5,132.5C 83.3915,130.786 84.0582,130.119 86.5,130.5C 86.6747,128.379 86.3414,126.379 85.5,124.5C 86.9669,125.292 88.3002,125.292 89.5,124.5C 90.1153,121.961 90.7819,119.461 91.5,117C 84.4763,116.169 77.4763,116.336 70.5,117.5C 69.7579,118.287 68.9246,118.953 68,119.5C 66.6608,124.211 63.9941,128.211 60,131.5C 58.887,132.76 58.7203,133.927 59.5,135C 57.4845,135.424 55.6512,136.258 54,137.5C 47.9735,136.752 41.9735,136.419 36,136.5C 32.7802,136.619 30.2802,137.952 28.5,140.5C 27.8333,139.167 27.1667,137.833 26.5,136.5C 23.8678,138.725 23.8678,141.058 26.5,143.5C 25.2238,146.852 24.3905,150.185 24,153.5C 26.3806,154.435 28.8806,154.768 31.5,154.5C 38.6476,155.492 45.9809,155.825 53.5,155.5C 53.5,155.833 53.5,156.167 53.5,156.5C 53.1667,156.5 52.8333,156.5 52.5,156.5C 42.4679,156.729 32.4679,156.396 22.5,155.5C 21.0937,155.027 20.427,154.027 20.5,152.5C 19.2356,147.278 18.569,141.945 18.5,136.5C 19.7942,135.71 20.9609,134.71 22,133.5C 22.5194,134.516 23.3527,135.182 24.5,135.5C 26.9153,135.281 27.9153,133.948 27.5,131.5C 30.2716,130.629 32.9382,130.629 35.5,131.5C 35.5,132.5 35.5,133.5 35.5,134.5C 40.6727,135.293 45.6727,135.293 50.5,134.5C 51.9303,133.463 53.597,132.796 55.5,132.5C 59.1667,130.833 61.8333,128.167 63.5,124.5C 63.83,119.121 66.4967,115.788 71.5,114.5 Z"/></g>
<g><path style="opacity:1" fill="#649ef0" d="M 80.5,140.5 C 80.5,140.833 80.5,141.167 80.5,141.5C 79.1283,142.512 77.795,143.512 76.5,144.5C 76.5,144.833 76.5,145.167 76.5,145.5C 75.8333,145.5 75.5,145.833 75.5,146.5C 74.8333,146.5 74.5,146.833 74.5,147.5C 73.8333,147.5 73.5,147.833 73.5,148.5C 71.9731,148.427 70.9731,149.094 70.5,150.5C 69.8333,150.5 69.1667,150.5 68.5,150.5C 69.6843,149.312 69.6843,148.145 68.5,147C 72.5582,147.809 74.8916,145.975 75.5,141.5C 77.0709,140.691 78.7376,140.357 80.5,140.5 Z"/></g>
<g><path style="opacity:0.086" fill="#9fcdf8" d="M 62.5,153.5 C 59.7846,155.072 56.7846,156.072 53.5,156.5C 53.5,156.167 53.5,155.833 53.5,155.5C 56.4021,154.422 59.4021,153.756 62.5,153.5 Z"/></g>
<g><path style="opacity:0.929" fill="#8ac6f3" d="M 22.5,155.5 C 32.4679,156.396 42.4679,156.729 52.5,156.5C 42.3781,159.491 32.3781,159.158 22.5,155.5 Z"/></g>
</svg>
