<?xml version="1.0" encoding="UTF-8"?>
<!DOCTYPE svg PUBLIC "-//W3C//DTD SVG 1.1//EN" "http://www.w3.org/Graphics/SVG/1.1/DTD/svg11.dtd">
<svg xmlns="http://www.w3.org/2000/svg" version="1.1" width="346px" height="346px" style="shape-rendering:geometricPrecision; text-rendering:geometricPrecision; image-rendering:optimizeQuality; fill-rule:evenodd; clip-rule:evenodd" xmlns:xlink="http://www.w3.org/1999/xlink">
<g><path style="opacity:0.975" fill="#a6a6a6" d="M 153.5,-0.5 C 166.167,-0.5 178.833,-0.5 191.5,-0.5C 265.459,11.289 314.626,52.6224 339,123.5C 341.639,133.539 343.805,143.539 345.5,153.5C 345.5,166.167 345.5,178.833 345.5,191.5C 333.711,265.459 292.378,314.626 221.5,339C 211.461,341.639 201.461,343.805 191.5,345.5C 178.833,345.5 166.167,345.5 153.5,345.5C 79.5408,333.711 30.3741,292.378 6,221.5C 3.36117,211.461 1.1945,201.461 -0.5,191.5C -0.5,178.833 -0.5,166.167 -0.5,153.5C 11.289,79.5408 52.6224,30.3741 123.5,6C 133.539,3.36117 143.539,1.1945 153.5,-0.5 Z"/></g>
<g><path style="opacity:1" fill="#c8c8c8" d="M 190.5,20.5 C 176.475,20.2575 162.475,20.5908 148.5,21.5C 148.918,20.7784 149.584,20.2784 150.5,20C 164.006,19.173 177.34,19.3396 190.5,20.5 Z"/></g>
<g><path style="opacity:1" fill="#f8f8f8" d="M 190.5,20.5 C 193.206,20.5751 195.873,20.9084 198.5,21.5C 206.562,22.8522 214.562,24.8522 222.5,27.5C 224.426,29.2927 226.759,30.2927 229.5,30.5C 297.375,61.3196 329.875,114.32 327,189.5C 320.005,242.777 293.505,282.944 247.5,310C 241.386,312.62 235.386,315.453 229.5,318.5C 227.033,318.755 225.033,319.755 223.5,321.5C 218.095,322.637 212.761,323.97 207.5,325.5C 204.572,325.565 201.905,326.232 199.5,327.5C 184.183,328.337 168.849,328.671 153.5,328.5C 149.1,326.896 144.434,326.229 139.5,326.5C 137.485,325.076 135.152,324.41 132.5,324.5C 92.7864,313.895 61.9531,291.228 40,256.5C 20.4921,223.886 13.1588,188.553 18,150.5C 28.3037,96.6654 57.8037,57.4987 106.5,33C 109.279,32.439 111.946,31.6056 114.5,30.5C 118.395,29.5376 122.061,28.2043 125.5,26.5C 132.766,23.4215 140.433,21.7548 148.5,21.5C 162.475,20.5908 176.475,20.2575 190.5,20.5 Z"/></g>
<g><path style="opacity:1" fill="#bababa" d="M 198.5,21.5 C 207.143,21.3273 215.143,23.3273 222.5,27.5C 214.562,24.8522 206.562,22.8522 198.5,21.5 Z"/></g>
<g><path style="opacity:1" fill="#a6a6a6" d="M 192.5,27.5 C 198.306,29.1538 204.306,30.4871 210.5,31.5C 271.662,50.8364 307.829,92.1697 319,155.5C 323.941,222.646 297.441,272.979 239.5,306.5C 222.834,314.163 205.501,319.33 187.5,322C 176.757,322.808 166.09,322.642 155.5,321.5C 151.081,320.028 146.414,319.362 141.5,319.5C 141.167,319.5 140.833,319.5 140.5,319.5C 136.498,317.39 132.165,316.057 127.5,315.5C 124.892,315.6 122.558,314.933 120.5,313.5C 118.824,311.166 116.491,310.166 113.5,310.5C 69.077,290.325 40.577,256.659 28,209.5C 14.9798,135.834 40.4798,80.0011 104.5,42C 110.915,38.8064 117.582,36.3064 124.5,34.5C 129.165,33.9431 133.498,32.6098 137.5,30.5C 143.777,30.4208 149.777,29.4208 155.5,27.5C 167.78,26.2493 180.113,26.2493 192.5,27.5 Z"/></g>
<g><path style="opacity:1" fill="#c6c6c6" d="M 222.5,27.5 C 225.491,27.1663 227.824,28.1663 229.5,30.5C 226.759,30.2927 224.426,29.2927 222.5,27.5 Z"/></g>
<g><path style="opacity:1" fill="#d2d2d2" d="M 125.5,26.5 C 122.061,28.2043 118.395,29.5376 114.5,30.5C 117.626,28.0103 121.292,26.677 125.5,26.5 Z"/></g>
<g><path style="opacity:1" fill="#c2c2c2" d="M 155.5,27.5 C 149.777,29.4208 143.777,30.4208 137.5,30.5C 143.165,28.2375 149.165,27.2375 155.5,27.5 Z"/></g>
<g><path style="opacity:1" fill="#dddddd" d="M 192.5,27.5 C 198.877,27.7022 204.877,29.0356 210.5,31.5C 204.306,30.4871 198.306,29.1538 192.5,27.5 Z"/></g>
<g><path style="opacity:1" fill="#c0c0c0" d="M 137.5,30.5 C 133.498,32.6098 129.165,33.9431 124.5,34.5C 128.502,32.3902 132.835,31.0569 137.5,30.5 Z"/></g>
<g><path style="opacity:1" fill="#fefefe" d="M 101.5,81.5 C 113.167,81.5 124.833,81.5 136.5,81.5C 136.168,127.003 136.501,172.336 137.5,217.5C 138.168,220.667 139.834,223.167 142.5,225C 146.887,225.706 151.22,225.54 155.5,224.5C 157.565,224.483 159.565,224.15 161.5,223.5C 163.485,232.775 165.152,242.108 166.5,251.5C 162.917,252.47 159.583,253.804 156.5,255.5C 148.572,256.93 140.572,257.597 132.5,257.5C 115.61,254.444 105.443,244.444 102,227.5C 101.5,178.834 101.333,130.168 101.5,81.5 Z"/></g>
<g><path style="opacity:1" fill="#dddddd" d="M 101.5,81.5 C 113.322,80.5049 125.322,80.1716 137.5,80.5C 137.5,126.167 137.5,171.833 137.5,217.5C 136.501,172.336 136.168,127.003 136.5,81.5C 124.833,81.5 113.167,81.5 101.5,81.5 Z"/></g>
<g><path style="opacity:1" fill="#dadada" d="M 296.5,119.5 C 295.5,119.5 294.5,119.5 293.5,119.5C 293.5,122.833 293.5,126.167 293.5,129.5C 292.518,126.038 292.185,122.371 292.5,118.5C 294.099,118.232 295.432,118.566 296.5,119.5 Z"/></g>
<g><path style="opacity:1" fill="#fafafa" d="M 296.5,119.5 C 296.5,119.833 296.5,120.167 296.5,120.5C 296.587,123.598 296.087,123.932 295,121.5C 294.503,124.146 294.336,126.813 294.5,129.5C 294.167,129.5 293.833,129.5 293.5,129.5C 293.5,126.167 293.5,122.833 293.5,119.5C 294.5,119.5 295.5,119.5 296.5,119.5 Z"/></g>
<g><path style="opacity:1" fill="#f4f4f4" d="M 300.5,123.5 C 299.662,123.158 299.328,122.492 299.5,121.5C 299.694,119.088 301.027,118.088 303.5,118.5C 303.823,122.226 303.489,125.893 302.5,129.5C 301.951,126.741 301.284,124.741 300.5,123.5 Z"/></g>
<g><path style="opacity:1" fill="#d8d8d8" d="M 287.5,129.5 C 287.5,126.5 287.5,123.5 287.5,120.5C 287.167,119.167 286.833,119.167 286.5,120.5C 286.5,123.5 286.5,126.5 286.5,129.5C 285.527,127.052 285.194,124.385 285.5,121.5C 284.5,121.5 283.5,121.5 282.5,121.5C 282.5,120.5 282.5,119.5 282.5,118.5C 285.5,118.5 288.5,118.5 291.5,118.5C 291.5,119.5 291.5,120.5 291.5,121.5C 290.5,121.5 289.5,121.5 288.5,121.5C 288.806,124.385 288.473,127.052 287.5,129.5 Z"/></g>
<g><path style="opacity:1" fill="#fcfcfc" d="M 287.5,129.5 C 287.167,129.5 286.833,129.5 286.5,129.5C 286.5,126.5 286.5,123.5 286.5,120.5C 286.833,119.167 287.167,119.167 287.5,120.5C 287.5,123.5 287.5,126.5 287.5,129.5 Z"/></g>
<g><path style="opacity:1" fill="#e3e3e3" d="M 296.5,120.5 C 297.268,121.263 297.768,122.263 298,123.5C 298.278,122.584 298.778,121.918 299.5,121.5C 299.328,122.492 299.662,123.158 300.5,123.5C 299.85,125.435 299.517,127.435 299.5,129.5C 298.5,129.5 297.5,129.5 296.5,129.5C 296.657,128.127 296.49,126.793 296,125.5C 295.79,127.058 295.29,128.391 294.5,129.5C 294.336,126.813 294.503,124.146 295,121.5C 296.087,123.932 296.587,123.598 296.5,120.5 Z"/></g>
<g><path style="opacity:1" fill="#b8b8b8" d="M 244.5,133.5 C 256.655,132.505 268.989,132.171 281.5,132.5C 281.737,133.791 281.404,134.791 280.5,135.5C 268.88,133.521 256.88,132.854 244.5,133.5 Z"/></g>
<g><path style="opacity:1" fill="#e4e4e4" d="M 193.5,134.5 C 181.452,133.855 169.785,134.522 158.5,136.5C 157.596,135.791 157.263,134.791 157.5,133.5C 169.678,133.172 181.678,133.505 193.5,134.5 Z"/></g>
<g><path style="opacity:1" fill="#fdfdfd" d="M 244.5,133.5 C 256.88,132.854 268.88,133.521 280.5,135.5C 258.121,186.914 235.787,238.248 213.5,289.5C 201.452,290.145 189.785,289.478 178.5,287.5C 186.234,270.401 193.567,253.068 200.5,235.5C 186.764,202.364 172.764,169.364 158.5,136.5C 169.785,134.522 181.452,133.855 193.5,134.5C 201.508,154.156 209.675,173.823 218,193.5C 227.43,173.809 236.263,153.809 244.5,133.5 Z"/></g>
<g><path style="opacity:1" fill="#d6d6d6" d="M 161.5,223.5 C 159.565,224.15 157.565,224.483 155.5,224.5C 157.32,222.539 159.32,222.206 161.5,223.5 Z"/></g>
<g><path style="opacity:1" fill="#cfcfcf" d="M 156.5,255.5 C 153.797,256.963 150.797,257.796 147.5,258C 142.316,258.816 137.316,258.65 132.5,257.5C 140.572,257.597 148.572,256.93 156.5,255.5 Z"/></g>
<g><path style="opacity:1" fill="#d3d3d3" d="M 178.5,287.5 C 189.785,289.478 201.452,290.145 213.5,289.5C 201.678,290.495 189.678,290.828 177.5,290.5C 177.263,289.209 177.596,288.209 178.5,287.5 Z"/></g>
<g><path style="opacity:1" fill="#c3c3c3" d="M 113.5,310.5 C 116.491,310.166 118.824,311.166 120.5,313.5C 117.843,313.065 115.509,312.065 113.5,310.5 Z"/></g>
<g><path style="opacity:1" fill="#c9c9c9" d="M 127.5,315.5 C 132.165,316.057 136.498,317.39 140.5,319.5C 135.835,318.943 131.502,317.61 127.5,315.5 Z"/></g>
<g><path style="opacity:1" fill="#c6c6c6" d="M 141.5,319.5 C 146.414,319.362 151.081,320.028 155.5,321.5C 150.586,321.638 145.919,320.972 141.5,319.5 Z"/></g>
<g><path style="opacity:1" fill="#cbcbcb" d="M 229.5,318.5 C 227.967,320.245 225.967,321.245 223.5,321.5C 225.033,319.755 227.033,318.755 229.5,318.5 Z"/></g>
<g><path style="opacity:1" fill="#d7d7d7" d="M 132.5,324.5 C 135.152,324.41 137.485,325.076 139.5,326.5C 136.848,326.59 134.515,325.924 132.5,324.5 Z"/></g>
<g><path style="opacity:1" fill="#cdcdcd" d="M 207.5,325.5 C 205.162,327.04 202.495,327.706 199.5,327.5C 201.905,326.232 204.572,325.565 207.5,325.5 Z"/></g>
<g><path style="opacity:1" fill="#dbdbdb" d="M 139.5,326.5 C 144.434,326.229 149.1,326.896 153.5,328.5C 148.566,328.771 143.9,328.104 139.5,326.5 Z"/></g>
<g><path style="opacity:1" fill="#dddddd" d="M 199.5,327.5 C 197.708,328.309 195.708,328.809 193.5,329C 179.994,329.827 166.66,329.66 153.5,328.5C 168.849,328.671 184.183,328.337 199.5,327.5 Z"/></g>
</svg>
