<?xml version="1.0" encoding="UTF-8"?>
<!DOCTYPE svg PUBLIC "-//W3C//DTD SVG 1.1//EN" "http://www.w3.org/Graphics/SVG/1.1/DTD/svg11.dtd">
<svg xmlns="http://www.w3.org/2000/svg" version="1.1" width="64px" height="64px" style="shape-rendering:geometricPrecision; text-rendering:geometricPrecision; image-rendering:optimizeQuality; fill-rule:evenodd; clip-rule:evenodd" xmlns:xlink="http://www.w3.org/1999/xlink">
<g><path style="opacity:1" fill="#00bd6a" d="M 25.5,-0.5 C 29.5,-0.5 33.5,-0.5 37.5,-0.5C 51.1667,3.16667 59.8333,11.8333 63.5,25.5C 63.5,29.5 63.5,33.5 63.5,37.5C 59.8333,51.1667 51.1667,59.8333 37.5,63.5C 33.5,63.5 29.5,63.5 25.5,63.5C 11.8333,59.8333 3.16667,51.1667 -0.5,37.5C -0.5,33.5 -0.5,29.5 -0.5,25.5C 3.16667,11.8333 11.8333,3.16667 25.5,-0.5 Z"/></g>
<g><path style="opacity:1" fill="#f7fefb" d="M 33.5,33.5 C 28.6973,39.1457 24.0306,44.979 19.5,51C 16.5,51.6667 13.5,51.6667 10.5,51C 16.5,43 22.5,35 28.5,27C 26.4129,23.4918 24.0796,20.1584 21.5,17C 24.5,16.3333 27.5,16.3333 30.5,17C 31.7014,17.9025 32.5348,19.0692 33,20.5C 35.5,17.3333 38,14.1667 40.5,11C 43.5,10.3333 46.5,10.3333 49.5,11C 45.0448,16.7442 40.7115,22.5775 36.5,28.5C 37.2472,28.7365 38.0805,29.0698 39,29.5C 40.796,32.927 42.9627,36.0937 45.5,39C 47.8333,39.3333 50.1667,39.6667 52.5,40C 51.7402,41.4411 51.0736,42.9411 50.5,44.5C 47.1667,45.8333 43.8333,45.8333 40.5,44.5C 37.9062,40.9744 35.5729,37.3077 33.5,33.5 Z"/></g>
<g><path style="opacity:1" fill="#00bd69" d="M 33.5,33.5 C 33.4614,32.2438 33.9614,31.2438 35,30.5C 35.5847,31.9976 35.0847,32.9976 33.5,33.5 Z"/></g>
</svg>
