<?xml version="1.0" encoding="UTF-8"?>
<!DOCTYPE svg PUBLIC "-//W3C//DTD SVG 1.1//EN" "http://www.w3.org/Graphics/SVG/1.1/DTD/svg11.dtd">
<svg xmlns="http://www.w3.org/2000/svg" version="1.1" width="336px" height="336px" style="shape-rendering:geometricPrecision; text-rendering:geometricPrecision; image-rendering:optimizeQuality; fill-rule:evenodd; clip-rule:evenodd" xmlns:xlink="http://www.w3.org/1999/xlink">
<g><path style="opacity:0.88" fill="#f9fafb" d="M 149.5,-0.5 C 161.5,-0.5 173.5,-0.5 185.5,-0.5C 258.614,11.1093 306.781,52.1093 330,122.5C 332.281,131.551 334.115,140.551 335.5,149.5C 335.5,161.5 335.5,173.5 335.5,185.5C 333.937,196.753 331.27,207.753 327.5,218.5C 344.4,154.454 330.066,98.6202 284.5,51C 234.613,6.48722 177.613,-5.84611 113.5,14C 50.0308,39.7534 13.5308,86.5867 4,154.5C 0.903819,217.796 24.7372,267.963 75.5,305C 122.032,335.222 171.699,341.555 224.5,324C 250.685,314.416 273.352,299.583 292.5,279.5C 271.003,304.105 244.337,320.939 212.5,330C 203.449,332.281 194.449,334.115 185.5,335.5C 173.5,335.5 161.5,335.5 149.5,335.5C 76.3856,323.891 28.219,282.891 5,212.5C 2.71871,203.449 0.885375,194.449 -0.5,185.5C -0.5,173.5 -0.5,161.5 -0.5,149.5C 11.1093,76.3856 52.1093,28.219 122.5,5C 131.551,2.71871 140.551,0.885375 149.5,-0.5 Z"/></g>
<g><path style="opacity:1" fill="#4e618a" d="M 327.5,218.5 C 325.399,221.797 324.065,225.463 323.5,229.5C 323.293,232.241 322.293,234.574 320.5,236.5C 317.992,240.182 315.992,244.182 314.5,248.5C 313.502,252.505 311.502,255.839 308.5,258.5C 306.674,260.147 305.34,262.147 304.5,264.5C 302.984,267.533 300.984,270.2 298.5,272.5C 295.757,274.239 293.757,276.573 292.5,279.5C 273.352,299.583 250.685,314.416 224.5,324C 171.699,341.555 122.032,335.222 75.5,305C 24.7372,267.963 0.903819,217.796 4,154.5C 13.5308,86.5867 50.0308,39.7534 113.5,14C 177.613,-5.84611 234.613,6.48722 284.5,51C 330.066,98.6202 344.4,154.454 327.5,218.5 Z"/></g>
<g><path style="opacity:1" fill="#fb0304" d="M 156.5,7.5 C 223.315,5.48434 274.482,32.4843 310,88.5C 337.986,140.784 338.652,193.451 312,246.5C 282.684,296.097 239.184,323.931 181.5,330C 114.622,332.483 63.4549,305.65 28,249.5C -5.66436,183.509 0.33564,121.509 46,63.5C 75.8256,31.0549 112.659,12.3882 156.5,7.5 Z"/></g>
<g><path style="opacity:1" fill="#4c5f88" d="M 156.5,19.5 C 220.781,17.5447 269.281,43.8781 302,98.5C 329.78,156.256 324.78,210.923 287,262.5C 246.651,308.619 196.151,326.119 135.5,315C 82.9907,301.155 46.824,268.988 27,218.5C 8.05224,154.693 22.8856,100.193 71.5,55C 96.3976,34.8829 124.731,23.0496 156.5,19.5 Z"/></g>
<g><path style="opacity:1" fill="#fefdfd" d="M 153.5,22.5 C 216.441,19.7157 264.607,44.7157 298,97.5C 326.786,155.061 322.12,209.728 284,261.5C 240.697,309.818 187.53,325.651 124.5,309C 67.5689,288.739 33.7355,248.906 23,189.5C 17.2457,137.754 33.4123,94.2541 71.5,59C 95.341,38.9113 122.674,26.7447 153.5,22.5 Z"/></g>
<g><path style="opacity:1" fill="#ee172d" d="M 94.5,72.5 C 96.4385,74.1628 98.7718,74.8294 101.5,74.5C 130.175,79.501 158.842,84.501 187.5,89.5C 189.438,91.1628 191.772,91.8294 194.5,91.5C 203.711,92.7107 212.711,94.3773 221.5,96.5C 225.639,97.5629 229.972,98.2296 234.5,98.5C 238.772,99.4897 243.106,100.156 247.5,100.5C 250.189,102.117 253.189,103.117 256.5,103.5C 272.476,118.142 288.142,133.142 303.5,148.5C 258.855,202.979 214.022,257.312 169,311.5C 167.89,313.037 166.39,313.703 164.5,313.5C 161.226,305.182 158.226,296.682 155.5,288C 145.523,264.555 135.856,241.055 126.5,217.5C 126.834,214.509 125.834,212.176 123.5,210.5C 105.203,164.651 87.0366,118.651 69,72.5C 68.044,71.4214 67.2106,70.2547 66.5,69C 75.7797,70.2191 85.1131,71.3858 94.5,72.5 Z"/></g>
<g><path style="opacity:1" fill="#fc99a6" d="M 94.5,72.5 C 97.1522,72.4095 99.4855,73.0762 101.5,74.5C 98.7718,74.8294 96.4385,74.1628 94.5,72.5 Z"/></g>
<g><path style="opacity:1" fill="#fffbfb" d="M 103.5,89.5 C 104.097,88.8614 104.93,88.528 106,88.5C 149.582,96.3011 193.082,104.468 236.5,113C 219.433,127.284 202.267,141.451 185,155.5C 157.681,133.68 130.514,111.68 103.5,89.5 Z"/></g>
<g><path style="opacity:1" fill="#fd94a2" d="M 187.5,89.5 C 190.152,89.4095 192.485,90.0762 194.5,91.5C 191.772,91.8294 189.438,91.1628 187.5,89.5 Z"/></g>
<g><path style="opacity:1" fill="#fda8b2" d="M 221.5,96.5 C 226.122,96.1561 230.455,96.8227 234.5,98.5C 229.972,98.2296 225.639,97.5629 221.5,96.5 Z"/></g>
<g><path style="opacity:1" fill="#fffcfc" d="M 175.5,196.5 C 174.778,196.918 174.278,197.584 174,198.5C 173.001,207.825 172.167,217.159 171.5,226.5C 169.663,243.194 167.497,259.861 165,276.5C 141.078,217.575 117.245,158.575 93.5,99.5C 94.0016,98.479 94.6683,98.3123 95.5,99C 122.723,122.191 150.223,145.024 178,167.5C 177.428,177.157 176.595,186.823 175.5,196.5 Z"/></g>
<g><path style="opacity:1" fill="#fd8997" d="M 247.5,100.5 C 250.992,100.446 253.992,101.446 256.5,103.5C 253.189,103.117 250.189,102.117 247.5,100.5 Z"/></g>
<g><path style="opacity:1" fill="#fff9fa" d="M 279.5,143.5 C 272.448,145.682 265.115,147.182 257.5,148C 256.944,148.383 256.611,148.883 256.5,149.5C 249.604,149.859 242.938,150.859 236.5,152.5C 233.492,152.701 230.492,153.034 227.5,153.5C 225.667,153.585 224.334,154.252 223.5,155.5C 217.168,156.336 210.835,156.836 204.5,157C 220.345,143.82 236.178,130.653 252,117.5C 261.291,125.955 270.457,134.622 279.5,143.5 Z"/></g>
<g><path style="opacity:1" fill="#fc6b79" d="M 279.5,143.5 C 280.692,144.566 280.359,145.399 278.5,146C 271.147,147.122 263.814,148.288 256.5,149.5C 256.611,148.883 256.944,148.383 257.5,148C 265.115,147.182 272.448,145.682 279.5,143.5 Z"/></g>
<g><path style="opacity:1" fill="#fe6876" d="M 236.5,152.5 C 232.458,154.237 228.124,155.237 223.5,155.5C 224.334,154.252 225.667,153.585 227.5,153.5C 230.492,153.034 233.492,152.701 236.5,152.5 Z"/></g>
<g><path style="opacity:1" fill="#fffbfb" d="M 189.5,188.5 C 190.525,185.026 191.192,181.36 191.5,177.5C 191.5,176.167 191.5,174.833 191.5,173.5C 193.735,173.795 195.735,173.461 197.5,172.5C 201.817,172.917 205.817,172.25 209.5,170.5C 229.881,167.067 250.214,163.233 270.5,159C 272.902,158.186 275.235,158.353 277.5,159.5C 244.979,198.58 212.479,237.58 180,276.5C 179.734,270.154 180.067,263.821 181,257.5C 184.297,234.418 187.131,211.418 189.5,188.5 Z"/></g>
<g><path style="opacity:1" fill="#fda1ab" d="M 209.5,170.5 C 205.817,172.25 201.817,172.917 197.5,172.5C 201.295,171.383 205.295,170.717 209.5,170.5 Z"/></g>
<g><path style="opacity:1" fill="#fd7180" d="M 191.5,177.5 C 191.192,181.36 190.525,185.026 189.5,188.5C 189.335,185.15 189.502,181.817 190,178.5C 190.383,177.944 190.883,177.611 191.5,177.5 Z"/></g>
<g><path style="opacity:1" fill="#fd808e" d="M 123.5,210.5 C 125.834,212.176 126.834,214.509 126.5,217.5C 125.264,215.351 124.264,213.018 123.5,210.5 Z"/></g>
<g><path style="opacity:1" fill="#feb1ba" d="M 175.5,196.5 C 174.684,206.705 173.351,216.705 171.5,226.5C 172.167,217.159 173.001,207.825 174,198.5C 174.278,197.584 174.778,196.918 175.5,196.5 Z"/></g>
<g><path style="opacity:0.831" fill="#dce3eb" d="M 327.5,218.5 C 326.935,222.537 325.601,226.203 323.5,229.5C 324.065,225.463 325.399,221.797 327.5,218.5 Z"/></g>
<g><path style="opacity:0.349" fill="#eff1f5" d="M 320.5,236.5 C 319.54,241.086 317.54,245.086 314.5,248.5C 315.992,244.182 317.992,240.182 320.5,236.5 Z"/></g>
<g><path style="opacity:0.284" fill="#eaedf2" d="M 308.5,258.5 C 308.155,261.198 306.822,263.198 304.5,264.5C 305.34,262.147 306.674,260.147 308.5,258.5 Z"/></g>
<g><path style="opacity:0.435" fill="#e9ecf2" d="M 298.5,272.5 C 297.243,275.427 295.243,277.761 292.5,279.5C 293.757,276.573 295.757,274.239 298.5,272.5 Z"/></g>
</svg>
