<?xml version="1.0" encoding="UTF-8"?>
<!DOCTYPE svg PUBLIC "-//W3C//DTD SVG 1.1//EN" "http://www.w3.org/Graphics/SVG/1.1/DTD/svg11.dtd">
<svg xmlns="http://www.w3.org/2000/svg" version="1.1" width="256px" height="256px" style="shape-rendering:geometricPrecision; text-rendering:geometricPrecision; image-rendering:optimizeQuality; fill-rule:evenodd; clip-rule:evenodd" xmlns:xlink="http://www.w3.org/1999/xlink">
<g><path style="opacity:1" fill="#fb8f97" d="M 34.5,26.5 C 32.2188,26.0773 30.5521,26.744 29.5,28.5C 28.596,27.791 28.2627,26.791 28.5,25.5C 30.7354,25.2053 32.7354,25.5386 34.5,26.5 Z"/></g>
<g><path style="opacity:1" fill="#f03137" d="M 34.5,26.5 C 84.9483,35.0192 135.282,44.1859 185.5,54C 198.333,66.1667 211.167,78.3333 224,90.5C 224.667,91.5 224.667,92.5 224,93.5C 186.702,139.297 148.869,184.63 110.5,229.5C 82.6753,162.848 55.6753,95.848 29.5,28.5C 30.5521,26.744 32.2188,26.0773 34.5,26.5 Z M 61.5,43.5 C 96.1667,49.5 130.833,55.5 165.5,61.5C 165.918,62.2216 166.584,62.7216 167.5,63C 166.619,63.7083 165.953,64.5416 165.5,65.5C 157.536,71.4626 149.87,77.7959 142.5,84.5C 140.251,85.0798 138.585,86.4131 137.5,88.5C 133.542,91.2854 129.709,94.2854 126,97.5C 104.602,79.2592 83.1021,61.2592 61.5,43.5 Z M 51.5,52.5 C 52.1667,52.5 52.8333,52.5 53.5,52.5C 55.7514,55.2948 58.4181,57.6281 61.5,59.5C 61.9731,60.9063 62.9731,61.573 64.5,61.5C 66.7514,64.2948 69.4181,66.6281 72.5,68.5C 72.9731,69.9063 73.9731,70.573 75.5,70.5C 76.1667,71.8333 77.1667,72.8333 78.5,73.5C 78.9731,74.9063 79.9731,75.573 81.5,75.5C 83.7514,78.2948 86.4181,80.6281 89.5,82.5C 89.9731,83.9063 90.9731,84.573 92.5,84.5C 94.7514,87.2948 97.4181,89.6281 100.5,91.5C 100.973,92.9063 101.973,93.573 103.5,93.5C 105.751,96.2948 108.418,98.6281 111.5,100.5C 111.973,101.906 112.973,102.573 114.5,102.5C 115.167,103.833 116.167,104.833 117.5,105.5C 117.973,106.906 118.973,107.573 120.5,107.5C 117.002,136.815 113.669,166.149 110.5,195.5C 109.833,195.5 109.167,195.5 108.5,195.5C 90.0893,147.602 71.0893,99.935 51.5,52.5 Z M 190.5,75.5 C 190.973,76.9063 191.973,77.573 193.5,77.5C 196.5,81.1667 199.833,84.5 203.5,87.5C 202.5,88.1667 201.5,88.8333 200.5,89.5C 181.831,92.5006 163.164,95.5006 144.5,98.5C 156.309,88.198 168.309,78.0313 180.5,68C 181.167,67.3333 181.833,67.3333 182.5,68C 185.036,70.705 187.703,73.205 190.5,75.5 Z M 201.5,101.5 C 197.5,106.5 193.5,111.5 189.5,116.5C 188.094,116.973 187.427,117.973 187.5,119.5C 186.167,120.167 185.167,121.167 184.5,122.5C 183.094,122.973 182.427,123.973 182.5,125.5C 181.167,126.167 180.167,127.167 179.5,128.5C 178.094,128.973 177.427,129.973 177.5,131.5C 169.821,139.848 162.487,148.515 155.5,157.5C 154.094,157.973 153.427,158.973 153.5,160.5C 152.167,161.167 151.167,162.167 150.5,163.5C 149.094,163.973 148.427,164.973 148.5,166.5C 147.167,167.167 146.167,168.167 145.5,169.5C 144.094,169.973 143.427,170.973 143.5,172.5C 142.167,173.167 141.167,174.167 140.5,175.5C 139.094,175.973 138.427,176.973 138.5,178.5C 134.155,182.847 130.155,187.514 126.5,192.5C 125.094,192.973 124.427,193.973 124.5,195.5C 123.833,195.833 123.167,196.167 122.5,196.5C 125.5,169.167 128.5,141.833 131.5,114.5C 132.71,114.068 133.71,113.401 134.5,112.5C 156.817,108.725 179.151,105.058 201.5,101.5 Z"/></g>
<g><path style="opacity:1" fill="#fcbac1" d="M 53.5,52.5 C 52.8333,52.5 52.1667,52.5 51.5,52.5C 50.475,52.1034 50.3083,51.4368 51,50.5C 51.9947,51.0659 52.828,51.7326 53.5,52.5 Z"/></g>
<g><path style="opacity:1" fill="#fe9ba0" d="M 61.5,59.5 C 63.0269,59.427 64.0269,60.0937 64.5,61.5C 62.9731,61.573 61.9731,60.9063 61.5,59.5 Z"/></g>
<g><path style="opacity:1" fill="#fa7b7c" d="M 165.5,61.5 C 166.873,61.3433 168.207,61.51 169.5,62C 168.897,64.0714 167.564,65.2381 165.5,65.5C 165.953,64.5416 166.619,63.7083 167.5,63C 166.584,62.7216 165.918,62.2216 165.5,61.5 Z"/></g>
<g><path style="opacity:1" fill="#fe979b" d="M 72.5,68.5 C 74.0269,68.427 75.0269,69.0937 75.5,70.5C 73.9731,70.573 72.9731,69.9063 72.5,68.5 Z"/></g>
<g><path style="opacity:1" fill="#fea0a6" d="M 78.5,73.5 C 80.0269,73.427 81.0269,74.0937 81.5,75.5C 79.9731,75.573 78.9731,74.9063 78.5,73.5 Z"/></g>
<g><path style="opacity:1" fill="#fe9fa6" d="M 190.5,75.5 C 192.027,75.427 193.027,76.0937 193.5,77.5C 191.973,77.573 190.973,76.9063 190.5,75.5 Z"/></g>
<g><path style="opacity:1" fill="#fe9ca1" d="M 89.5,82.5 C 91.0269,82.427 92.0269,83.0937 92.5,84.5C 90.9731,84.573 89.9731,83.9063 89.5,82.5 Z"/></g>
<g><path style="opacity:1" fill="#fa777a" d="M 142.5,84.5 C 141.415,86.5869 139.749,87.9202 137.5,88.5C 138.585,86.4131 140.251,85.0798 142.5,84.5 Z"/></g>
<g><path style="opacity:1" fill="#fcb1b9" d="M 203.5,87.5 C 204.043,87.56 204.376,87.8933 204.5,88.5C 203.311,89.4287 201.978,89.762 200.5,89.5C 201.5,88.8333 202.5,88.1667 203.5,87.5 Z"/></g>
<g><path style="opacity:1" fill="#fe989d" d="M 100.5,91.5 C 102.027,91.427 103.027,92.0937 103.5,93.5C 101.973,93.573 100.973,92.9063 100.5,91.5 Z"/></g>
<g><path style="opacity:1" fill="#fa99a3" d="M 143.5,98.5 C 143.5,98.8333 143.5,99.1667 143.5,99.5C 142.577,100.303 141.577,100.47 140.5,100C 141.244,98.9614 142.244,98.4614 143.5,98.5 Z"/></g>
<g><path style="opacity:1" fill="#fd9499" d="M 111.5,100.5 C 113.027,100.427 114.027,101.094 114.5,102.5C 112.973,102.573 111.973,101.906 111.5,100.5 Z"/></g>
<g><path style="opacity:1" fill="#fe9da4" d="M 117.5,105.5 C 119.027,105.427 120.027,106.094 120.5,107.5C 118.973,107.573 117.973,106.906 117.5,105.5 Z"/></g>
<g><path style="opacity:1" fill="#fcd3d7" d="M 134.5,112.5 C 133.71,113.401 132.71,114.068 131.5,114.5C 131.821,112.952 132.821,112.285 134.5,112.5 Z"/></g>
<g><path style="opacity:1" fill="#fe979b" d="M 189.5,116.5 C 189.573,118.027 188.906,119.027 187.5,119.5C 187.427,117.973 188.094,116.973 189.5,116.5 Z"/></g>
<g><path style="opacity:1" fill="#fe9a9f" d="M 184.5,122.5 C 184.573,124.027 183.906,125.027 182.5,125.5C 182.427,123.973 183.094,122.973 184.5,122.5 Z"/></g>
<g><path style="opacity:1" fill="#fe9da3" d="M 179.5,128.5 C 179.573,130.027 178.906,131.027 177.5,131.5C 177.427,129.973 178.094,128.973 179.5,128.5 Z"/></g>
<g><path style="opacity:1" fill="#fe979d" d="M 155.5,157.5 C 155.573,159.027 154.906,160.027 153.5,160.5C 153.427,158.973 154.094,157.973 155.5,157.5 Z"/></g>
<g><path style="opacity:1" fill="#fe9ba0" d="M 150.5,163.5 C 150.573,165.027 149.906,166.027 148.5,166.5C 148.427,164.973 149.094,163.973 150.5,163.5 Z"/></g>
<g><path style="opacity:1" fill="#fe9ea4" d="M 145.5,169.5 C 145.573,171.027 144.906,172.027 143.5,172.5C 143.427,170.973 144.094,169.973 145.5,169.5 Z"/></g>
<g><path style="opacity:1" fill="#fea1a7" d="M 140.5,175.5 C 140.573,177.027 139.906,178.027 138.5,178.5C 138.427,176.973 139.094,175.973 140.5,175.5 Z"/></g>
<g><path style="opacity:1" fill="#fd959a" d="M 126.5,192.5 C 126.573,194.027 125.906,195.027 124.5,195.5C 124.427,193.973 125.094,192.973 126.5,192.5 Z"/></g>
<g><path style="opacity:1" fill="#fde0e3" d="M 108.5,195.5 C 109.167,195.5 109.833,195.5 110.5,195.5C 110.362,199.286 109.695,199.286 108.5,195.5 Z"/></g>
</svg>
