<?xml version="1.0" encoding="UTF-8"?>
<!DOCTYPE svg PUBLIC "-//W3C//DTD SVG 1.1//EN" "http://www.w3.org/Graphics/SVG/1.1/DTD/svg11.dtd">
<svg xmlns="http://www.w3.org/2000/svg" version="1.1" width="470px" height="470px" style="shape-rendering:geometricPrecision; text-rendering:geometricPrecision; image-rendering:optimizeQuality; fill-rule:evenodd; clip-rule:evenodd" xmlns:xlink="http://www.w3.org/1999/xlink">
<g><path style="opacity:0.995" fill="#010101" d="M 212.5,-0.5 C 227.167,-0.5 241.833,-0.5 256.5,-0.5C 343.176,10.8996 406.676,55.233 447,132.5C 458.709,158.109 466.209,184.775 469.5,212.5C 469.5,227.167 469.5,241.833 469.5,256.5C 458.1,343.176 413.767,406.676 336.5,447C 310.891,458.709 284.225,466.209 256.5,469.5C 241.833,469.5 227.167,469.5 212.5,469.5C 125.824,458.1 62.3245,413.767 22,336.5C 10.2911,310.891 2.79107,284.225 -0.5,256.5C -0.5,241.833 -0.5,227.167 -0.5,212.5C 10.8996,125.824 55.233,62.3245 132.5,22C 158.109,10.2911 184.775,2.79107 212.5,-0.5 Z"/></g>
<g><path style="opacity:1" fill="#c6c6c6" d="M 264.5,76.5 C 206.998,76.1676 149.664,76.501 92.5,77.5C 91.9569,77.44 91.6236,77.1067 91.5,76.5C 149.332,75.1686 206.999,75.1686 264.5,76.5 Z"/></g>
<g><path style="opacity:1" fill="#fcfcfc" d="M 264.5,76.5 C 315.864,83.0387 350.03,110.705 367,159.5C 367.996,163.816 368.83,168.149 369.5,172.5C 370.257,182.482 370.59,192.482 370.5,202.5C 364.033,252.128 337.367,285.628 290.5,303C 282.98,305.297 275.313,306.797 267.5,307.5C 225.487,308.161 183.82,307.494 142.5,305.5C 162.512,269.313 183.178,233.48 204.5,198C 214.849,197.168 225.183,197.334 235.5,198.5C 219.946,225.78 204.279,252.947 188.5,280C 211.833,280.667 235.167,280.667 258.5,280C 299.461,270.067 320.794,244.067 322.5,202C 319.854,166.051 301.521,142.051 267.5,130C 262.288,128.375 256.955,127.375 251.5,127C 207.833,126.667 164.167,126.333 120.5,126C 110.939,109.945 101.606,93.7787 92.5,77.5C 149.664,76.501 206.998,76.1676 264.5,76.5 Z"/></g>
<g><path style="opacity:1" fill="#263bb5" d="M 248.5,136.5 C 210.33,136.168 172.33,136.501 134.5,137.5C 133.957,137.44 133.624,137.107 133.5,136.5C 171.998,135.17 210.331,135.17 248.5,136.5 Z"/></g>
<g><path style="opacity:1" fill="#2e4ef9" d="M 248.5,136.5 C 280.681,142.843 297.681,162.343 299.5,195C 299.42,198.55 299.086,202.05 298.5,205.5C 297.076,207.515 296.41,209.848 296.5,212.5C 287.708,236.291 270.708,249.624 245.5,252.5C 233.322,252.828 221.322,252.495 209.5,251.5C 213.556,243.726 217.89,236.059 222.5,228.5C 230.145,227.669 237.812,227.169 245.5,227C 261.642,220.94 267.808,209.44 264,192.5C 262.988,189.798 261.488,187.465 259.5,185.5C 258.833,182.833 257.167,181.167 254.5,180.5C 250.931,178.917 247.265,177.417 243.5,176C 214.161,175.833 184.828,175.333 155.5,174.5C 148.237,162.306 141.237,149.973 134.5,137.5C 172.33,136.501 210.33,136.168 248.5,136.5 Z"/></g>
<g><path style="opacity:1" fill="#213298" d="M 254.5,180.5 C 257.167,181.167 258.833,182.833 259.5,185.5C 257.5,184.167 255.833,182.5 254.5,180.5 Z"/></g>
<g><path style="opacity:1" fill="#939393" d="M 369.5,172.5 C 371,178.26 371.667,184.26 371.5,190.5C 371.499,194.681 371.166,198.681 370.5,202.5C 370.59,192.482 370.257,182.482 369.5,172.5 Z"/></g>
<g><path style="opacity:1" fill="#101a4c" d="M 298.5,205.5 C 298.59,208.152 297.924,210.485 296.5,212.5C 296.41,209.848 297.076,207.515 298.5,205.5 Z"/></g>
<g><path style="opacity:1" fill="#1a1f68" d="M 209.5,251.5 C 221.322,252.495 233.322,252.828 245.5,252.5C 233.327,253.825 220.994,253.825 208.5,252.5C 208.624,251.893 208.957,251.56 209.5,251.5 Z"/></g>
<g><path style="opacity:1" fill="#d6d6d6" d="M 142.5,305.5 C 183.82,307.494 225.487,308.161 267.5,307.5C 225.331,308.831 182.998,308.831 140.5,307.5C 140.855,306.478 141.522,305.811 142.5,305.5 Z"/></g>
<g><path style="opacity:1" fill="#acabb2" d="M 346.5,343.5 C 351.305,342.513 356.305,342.179 361.5,342.5C 361.5,340.167 361.5,337.833 361.5,335.5C 353.5,335.5 345.5,335.5 337.5,335.5C 337.5,349.833 337.5,364.167 337.5,378.5C 336.504,364.01 336.171,349.343 336.5,334.5C 345.167,334.5 353.833,334.5 362.5,334.5C 362.5,337.5 362.5,340.5 362.5,343.5C 357.167,343.5 351.833,343.5 346.5,343.5 Z"/></g>
<g><path style="opacity:1" fill="#e4e4ef" d="M 102.5,334.5 C 108.842,334.334 115.175,334.5 121.5,335C 134.603,340.031 139.769,349.531 137,363.5C 134.614,371.886 129.114,376.72 120.5,378C 114.509,378.499 108.509,378.666 102.5,378.5C 102.5,363.833 102.5,349.167 102.5,334.5 Z"/></g>
<g><path style="opacity:1" fill="#e0e0ea" d="M 155.5,343.5 C 154.523,346.287 154.19,349.287 154.5,352.5C 159.5,352.5 164.5,352.5 169.5,352.5C 169.5,355.167 169.5,357.833 169.5,360.5C 164.5,360.5 159.5,360.5 154.5,360.5C 154.19,363.713 154.523,366.713 155.5,369.5C 160.5,369.5 165.5,369.5 170.5,369.5C 170.5,372.5 170.5,375.5 170.5,378.5C 161.833,378.5 153.167,378.5 144.5,378.5C 144.5,363.833 144.5,349.167 144.5,334.5C 153.167,334.5 161.833,334.5 170.5,334.5C 170.5,337.5 170.5,340.5 170.5,343.5C 165.5,343.5 160.5,343.5 155.5,343.5 Z"/></g>
<g><path style="opacity:1" fill="#e9e9f4" d="M 190.5,343.5 C 189.523,346.287 189.19,349.287 189.5,352.5C 194.833,352.5 200.167,352.5 205.5,352.5C 205.5,355.167 205.5,357.833 205.5,360.5C 200.167,360.5 194.833,360.5 189.5,360.5C 189.5,366.167 189.5,371.833 189.5,377.5C 186.833,377.5 184.167,377.5 181.5,377.5C 181.5,363.5 181.5,349.5 181.5,335.5C 189.5,335.5 197.5,335.5 205.5,335.5C 205.5,337.833 205.5,340.167 205.5,342.5C 200.305,342.179 195.305,342.513 190.5,343.5 Z"/></g>
<g><path style="opacity:1" fill="#e0dfea" d="M 265.5,343.5 C 265.5,344.833 265.5,346.167 265.5,347.5C 262.5,347.5 259.5,347.5 256.5,347.5C 255.778,343.534 253.278,341.868 249,342.5C 243.755,342.064 241.922,344.231 243.5,349C 248.644,351.27 253.978,352.937 259.5,354C 266.974,357.12 269.474,362.62 267,370.5C 264.578,375.256 260.745,378.09 255.5,379C 247.264,380.995 240.098,379.162 234,373.5C 232.241,370.392 231.408,367.059 231.5,363.5C 234.518,363.335 237.518,363.502 240.5,364C 243.202,371.479 248.202,373.479 255.5,370C 258.167,367.667 258.167,365.333 255.5,363C 247.325,361.948 240.158,358.781 234,353.5C 230.254,343.16 233.754,336.66 244.5,334C 253.847,332.345 260.847,335.512 265.5,343.5 Z"/></g>
<g><path style="opacity:1" fill="#e1e1eb" d="M 279.5,334.5 C 283.833,334.5 288.167,334.5 292.5,334.5C 294.711,344.676 297.544,354.676 301,364.5C 303.368,354.696 306.201,345.03 309.5,335.5C 313.445,334.509 317.445,334.176 321.5,334.5C 324.81,349.022 327.476,363.689 329.5,378.5C 326.102,378.82 322.768,378.487 319.5,377.5C 317.776,368.16 315.943,358.826 314,349.5C 310.699,359.038 307.866,368.705 305.5,378.5C 302.167,378.5 298.833,378.5 295.5,378.5C 293.304,368.718 290.637,359.051 287.5,349.5C 285.323,359.117 283.656,368.784 282.5,378.5C 278.833,378.5 275.167,378.5 271.5,378.5C 274.259,363.853 276.926,349.186 279.5,334.5 Z"/></g>
<g><path style="opacity:1" fill="#e8e8f3" d="M 346.5,343.5 C 346.5,346.5 346.5,349.5 346.5,352.5C 351.5,352.5 356.5,352.5 361.5,352.5C 361.5,355.167 361.5,357.833 361.5,360.5C 356.5,360.5 351.5,360.5 346.5,360.5C 346.5,363.5 346.5,366.5 346.5,369.5C 351.833,369.5 357.167,369.5 362.5,369.5C 362.5,372.5 362.5,375.5 362.5,378.5C 354.167,378.5 345.833,378.5 337.5,378.5C 337.5,364.167 337.5,349.833 337.5,335.5C 345.5,335.5 353.5,335.5 361.5,335.5C 361.5,337.833 361.5,340.167 361.5,342.5C 356.305,342.179 351.305,342.513 346.5,343.5 Z"/></g>
<g><path style="opacity:1" fill="#c5c4ca" d="M 190.5,343.5 C 195.305,342.513 200.305,342.179 205.5,342.5C 205.5,340.167 205.5,337.833 205.5,335.5C 197.5,335.5 189.5,335.5 181.5,335.5C 181.5,349.5 181.5,363.5 181.5,377.5C 184.167,377.5 186.833,377.5 189.5,377.5C 189.5,377.833 189.5,378.167 189.5,378.5C 186.5,378.5 183.5,378.5 180.5,378.5C 180.5,363.833 180.5,349.167 180.5,334.5C 189.167,334.5 197.833,334.5 206.5,334.5C 206.5,337.5 206.5,340.5 206.5,343.5C 201.167,343.5 195.833,343.5 190.5,343.5 Z"/></g>
<g><path style="opacity:1" fill="#b4b3b8" d="M 222.5,378.5 C 222.5,364.167 222.5,349.833 222.5,335.5C 219.833,335.5 217.167,335.5 214.5,335.5C 214.5,349.833 214.5,364.167 214.5,378.5C 213.504,364.01 213.171,349.343 213.5,334.5C 216.833,334.5 220.167,334.5 223.5,334.5C 223.829,349.343 223.496,364.01 222.5,378.5 Z"/></g>
<g><path style="opacity:1" fill="#eae9f5" d="M 222.5,378.5 C 219.833,378.5 217.167,378.5 214.5,378.5C 214.5,364.167 214.5,349.833 214.5,335.5C 217.167,335.5 219.833,335.5 222.5,335.5C 222.5,349.833 222.5,364.167 222.5,378.5 Z"/></g>
<g><path style="opacity:1" fill="#050505" d="M 117.5,343.5 C 124.092,344.76 127.425,348.76 127.5,355.5C 127.98,362.567 124.98,367.233 118.5,369.5C 116.5,369.5 114.5,369.5 112.5,369.5C 112.5,360.833 112.5,352.167 112.5,343.5C 114.167,343.5 115.833,343.5 117.5,343.5 Z"/></g>
<g><path style="opacity:1" fill="#949498" d="M 117.5,343.5 C 115.833,343.5 114.167,343.5 112.5,343.5C 112.5,352.167 112.5,360.833 112.5,369.5C 114.5,369.5 116.5,369.5 118.5,369.5C 116.393,370.468 114.059,370.802 111.5,370.5C 111.5,361.167 111.5,351.833 111.5,342.5C 113.735,342.205 115.735,342.539 117.5,343.5 Z"/></g>
<g><path style="opacity:1" fill="#69686c" d="M 265.5,343.5 C 266.451,344.919 266.784,346.585 266.5,348.5C 262.958,348.813 259.625,348.479 256.5,347.5C 259.5,347.5 262.5,347.5 265.5,347.5C 265.5,346.167 265.5,344.833 265.5,343.5 Z"/></g>
<g><path style="opacity:1" fill="#434348" d="M 155.5,343.5 C 155.5,346.167 155.5,348.833 155.5,351.5C 160.363,351.181 165.03,351.514 169.5,352.5C 164.5,352.5 159.5,352.5 154.5,352.5C 154.19,349.287 154.523,346.287 155.5,343.5 Z"/></g>
<g><path style="opacity:1" fill="#535258" d="M 190.5,343.5 C 190.5,346.167 190.5,348.833 190.5,351.5C 195.695,351.179 200.695,351.513 205.5,352.5C 200.167,352.5 194.833,352.5 189.5,352.5C 189.19,349.287 189.523,346.287 190.5,343.5 Z"/></g>
<g><path style="opacity:1" fill="#6f7075" d="M 205.5,360.5 C 200.695,361.487 195.695,361.821 190.5,361.5C 190.822,367.358 190.489,373.025 189.5,378.5C 189.5,378.167 189.5,377.833 189.5,377.5C 189.5,371.833 189.5,366.167 189.5,360.5C 194.833,360.5 200.167,360.5 205.5,360.5 Z"/></g>
<g><path style="opacity:1" fill="#444549" d="M 169.5,360.5 C 165.03,361.486 160.363,361.819 155.5,361.5C 155.5,364.167 155.5,366.833 155.5,369.5C 154.523,366.713 154.19,363.713 154.5,360.5C 159.5,360.5 164.5,360.5 169.5,360.5 Z"/></g>
<g><path style="opacity:1" fill="#9e9e9e" d="M 117.5,399.5 C 120.247,399.187 122.914,399.52 125.5,400.5C 123.604,401.466 121.604,401.799 119.5,401.5C 119.5,402.5 119.5,403.5 119.5,404.5C 127.5,405.167 127.5,405.833 119.5,406.5C 119.5,407.5 119.5,408.5 119.5,409.5C 121.5,409.5 123.5,409.5 125.5,409.5C 125.5,410.5 125.5,411.5 125.5,412.5C 122.833,412.5 120.167,412.5 117.5,412.5C 117.5,408.167 117.5,403.833 117.5,399.5 Z"/></g>
<g><path style="opacity:1" fill="#a1a1a1" d="M 241.5,399.5 C 244.247,399.187 246.914,399.52 249.5,400.5C 247.604,401.466 245.604,401.799 243.5,401.5C 243.5,402.5 243.5,403.5 243.5,404.5C 251.5,405.167 251.5,405.833 243.5,406.5C 243.5,407.5 243.5,408.5 243.5,409.5C 245.5,409.5 247.5,409.5 249.5,409.5C 249.5,410.5 249.5,411.5 249.5,412.5C 246.833,412.5 244.167,412.5 241.5,412.5C 241.5,408.167 241.5,403.833 241.5,399.5 Z"/></g>
<g><path style="opacity:1" fill="#b4b4b4" d="M 300.5,399.5 C 301.794,401.048 302.461,403.048 302.5,405.5C 302.167,407.5 301.833,409.5 301.5,411.5C 300.509,407.555 300.176,403.555 300.5,399.5 Z"/></g>
<g><path style="opacity:1" fill="#b4b4b4" d="M 143.5,399.5 C 144.794,401.048 145.461,403.048 145.5,405.5C 145.167,407.5 144.833,409.5 144.5,411.5C 143.509,407.555 143.176,403.555 143.5,399.5 Z"/></g>
<g><path style="opacity:1" fill="#9f9f9f" d="M 188.5,399.5 C 191.685,399.02 194.519,399.686 197,401.5C 197.564,403.562 197.064,405.395 195.5,407C 196.167,408.333 196.833,409.667 197.5,411C 197.167,411.5 196.833,412 196.5,412.5C 194.768,410.717 193.268,408.717 192,406.5C 191.964,408.941 191.131,410.941 189.5,412.5C 188.508,408.217 188.174,403.884 188.5,399.5 Z"/></g>
<g><path style="opacity:1" fill="#1d1d1d" d="M 190.5,401.5 C 192.665,401.116 194.332,401.783 195.5,403.5C 193.955,404.452 192.288,404.785 190.5,404.5C 190.5,403.5 190.5,402.5 190.5,401.5 Z"/></g>
<g><path style="opacity:1" fill="#ababab" d="M 357.5,409.5 C 358.952,410.302 360.618,410.802 362.5,411C 359.854,411.497 357.187,411.664 354.5,411.5C 354.5,407.5 354.5,403.5 354.5,399.5C 357.247,399.187 359.914,399.52 362.5,400.5C 360.955,401.452 359.288,401.785 357.5,401.5C 357.5,402.5 357.5,403.5 357.5,404.5C 364.167,405.167 364.167,405.833 357.5,406.5C 357.5,407.5 357.5,408.5 357.5,409.5 Z"/></g>
<g><path style="opacity:1" fill="#a3a3a3" d="M 173.5,399.5 C 183.486,398.424 186.153,402.258 181.5,411C 175.35,413.925 171.683,412.092 170.5,405.5C 170.628,403.045 171.628,401.045 173.5,399.5 Z"/></g>
<g><path style="opacity:1" fill="#0c0c0c" d="M 174.5,401.5 C 180.209,400.867 182.209,403.2 180.5,408.5C 173.746,410.532 171.746,408.199 174.5,401.5 Z"/></g>
<g><path style="opacity:1" fill="#a7a7a7" d="M 158.5,399.5 C 161.247,399.187 163.914,399.52 166.5,400.5C 164.604,401.466 162.604,401.799 160.5,401.5C 160.5,402.5 160.5,403.5 160.5,404.5C 168.5,405.167 168.5,405.833 160.5,406.5C 160.799,408.604 160.466,410.604 159.5,412.5C 158.508,408.217 158.174,403.884 158.5,399.5 Z"/></g>
<g><path style="opacity:1" fill="#a1a1a1" d="M 323.5,399.5 C 324.552,399.351 325.552,399.517 326.5,400C 328.123,402.08 329.623,404.246 331,406.5C 331.497,404.19 331.663,401.857 331.5,399.5C 332.5,399.5 333.5,399.5 334.5,399.5C 334.5,403.833 334.5,408.167 334.5,412.5C 333.178,412.67 332.011,412.337 331,411.5C 329.729,408.567 328.062,405.901 326,403.5C 325.818,406.226 325.318,408.893 324.5,411.5C 323.509,407.555 323.176,403.555 323.5,399.5 Z"/></g>
<g><path style="opacity:1" fill="#9f9f9f" d="M 342.5,399.5 C 345.397,399.125 348.063,399.625 350.5,401C 349.975,401.692 349.308,402.192 348.5,402.5C 342.833,400.833 340.833,402.833 342.5,408.5C 345.107,409.318 347.774,409.818 350.5,410C 346.775,413.487 343.275,413.32 340,409.5C 339.333,406.833 339.333,404.167 340,401.5C 340.995,400.934 341.828,400.267 342.5,399.5 Z"/></g>
<g><path style="opacity:1" fill="#9e9e9e" d="M 222.5,399.5 C 223.978,399.238 225.311,399.571 226.5,400.5C 227.236,402.541 228.069,404.541 229,406.5C 230.164,404.351 231.33,402.185 232.5,400C 233.793,399.51 235.127,399.343 236.5,399.5C 236.666,403.514 236.499,407.514 236,411.5C 235.586,411.957 235.086,412.291 234.5,412.5C 233.939,401.279 232.605,400.945 230.5,411.5C 229.5,411.5 228.5,411.5 227.5,411.5C 227.565,408.529 226.731,405.862 225,403.5C 224.821,406.553 224.321,409.553 223.5,412.5C 222.508,408.217 222.174,403.884 222.5,399.5 Z"/></g>
<g><path style="opacity:1" fill="#a3a3a3" d="M 265.5,399.5 C 266.675,399.281 267.675,399.614 268.5,400.5C 269.695,403.724 271.029,406.891 272.5,410C 272.167,410.5 271.833,411 271.5,411.5C 267.836,408.612 264.503,408.945 261.5,412.5C 261.167,412.167 260.833,411.833 260.5,411.5C 262.182,407.474 263.848,403.474 265.5,399.5 Z"/></g>
<g><path style="opacity:1" fill="#474747" d="M 266.5,403.5 C 269.452,406.704 268.785,407.704 264.5,406.5C 265.193,405.482 265.859,404.482 266.5,403.5 Z"/></g>
<g><path style="opacity:1" fill="#a4a4a4" d="M 101.5,399.5 C 104.649,399.211 107.649,399.711 110.5,401C 113.343,404.619 113.01,407.952 109.5,411C 106.937,412.079 104.271,412.579 101.5,412.5C 101.5,408.167 101.5,403.833 101.5,399.5 Z"/></g>
<g><path style="opacity:1" fill="#0b0b0b" d="M 103.5,401.5 C 109.313,401.062 110.98,403.562 108.5,409C 106.866,409.494 105.199,409.66 103.5,409.5C 103.5,406.833 103.5,404.167 103.5,401.5 Z"/></g>
<g><path style="opacity:1" fill="#afafaf" d="M 130.5,399.5 C 133.247,399.187 135.914,399.52 138.5,400.5C 136.604,401.466 134.604,401.799 132.5,401.5C 132.5,402.5 132.5,403.5 132.5,404.5C 140.5,405.167 140.5,405.833 132.5,406.5C 132.799,408.604 132.466,410.604 131.5,412.5C 130.508,408.217 130.174,403.884 130.5,399.5 Z"/></g>
<g><path style="opacity:1" fill="#a8a8a8" d="M 210.5,399.5 C 217.662,399.613 217.995,400.613 211.5,402.5C 213.029,404.188 214.863,405.521 217,406.5C 217.664,411.496 215.498,413.33 210.5,412C 210.043,411.586 209.709,411.086 209.5,410.5C 210.533,409.548 211.7,409.548 213,410.5C 214.28,410.387 215.113,409.72 215.5,408.5C 214.232,406.953 212.565,405.953 210.5,405.5C 209.306,403.484 209.306,401.484 210.5,399.5 Z"/></g>
<g><path style="opacity:1" fill="#a7a7a7" d="M 311.5,399.5 C 312.822,399.33 313.989,399.663 315,400.5C 315.884,403.657 317.05,406.657 318.5,409.5C 318.167,410.167 317.833,410.833 317.5,411.5C 314.5,408.833 311.5,408.833 308.5,411.5C 308.167,411 307.833,410.5 307.5,410C 309.084,406.587 310.417,403.087 311.5,399.5 Z"/></g>
<g><path style="opacity:1" fill="#2e2e2e" d="M 312.5,402.5 C 313.931,403.78 314.598,405.447 314.5,407.5C 313.5,407.5 312.5,407.5 311.5,407.5C 311.366,405.708 311.699,404.042 312.5,402.5 Z"/></g>
<g><path style="opacity:1" fill="#8c8c8c" d="M 276.5,399.5 C 277.5,399.5 278.5,399.5 279.5,399.5C 279.5,402.833 279.5,406.167 279.5,409.5C 281.167,409.5 282.833,409.5 284.5,409.5C 284.5,410.5 284.5,411.5 284.5,412.5C 281.881,412.768 279.381,412.435 277,411.5C 276.501,407.514 276.334,403.514 276.5,399.5 Z"/></g>
<g><path style="opacity:1" fill="#8e8e8e" d="M 288.5,399.5 C 289.5,399.5 290.5,399.5 291.5,399.5C 291.5,402.833 291.5,406.167 291.5,409.5C 293.167,409.5 294.833,409.5 296.5,409.5C 296.5,410.5 296.5,411.5 296.5,412.5C 293.833,412.5 291.167,412.5 288.5,412.5C 288.5,408.167 288.5,403.833 288.5,399.5 Z"/></g>
<g><path style="opacity:1" fill="#5c5c5c" d="M 357.5,409.5 C 359.5,409.5 361.5,409.5 363.5,409.5C 363.5,410.5 363.5,411.5 363.5,412.5C 360.287,412.81 357.287,412.477 354.5,411.5C 357.187,411.664 359.854,411.497 362.5,411C 360.618,410.802 358.952,410.302 357.5,409.5 Z"/></g>
</svg>
