<?xml version="1.0" encoding="UTF-8"?>
<!DOCTYPE svg PUBLIC "-//W3C//DTD SVG 1.1//EN" "http://www.w3.org/Graphics/SVG/1.1/DTD/svg11.dtd">
<svg xmlns="http://www.w3.org/2000/svg" version="1.1" width="164px" height="164px" style="shape-rendering:geometricPrecision; text-rendering:geometricPrecision; image-rendering:optimizeQuality; fill-rule:evenodd; clip-rule:evenodd" xmlns:xlink="http://www.w3.org/1999/xlink">
<g><path style="opacity:0.908" fill="#0c65ad" d="M 69.5,-0.5 C 74.1667,-0.5 78.8333,-0.5 83.5,-0.5C 84.6551,2.47489 86.3218,5.14155 88.5,7.5C 88.2907,8.08605 87.9574,8.58605 87.5,9C 88.5908,10.5501 89.9242,11.7168 91.5,12.5C 90.1667,12.5 88.8333,12.5 87.5,12.5C 84.3752,11.5206 81.0419,11.1872 77.5,11.5C 74.4108,7.75112 71.7441,3.75112 69.5,-0.5 Z"/></g>
<g><path style="opacity:0.934" fill="#116dab" d="M 68.5,-0.5 C 68.8333,-0.5 69.1667,-0.5 69.5,-0.5C 71.7441,3.75112 74.4108,7.75112 77.5,11.5C 75.5,11.5 73.5,11.5 71.5,11.5C 69.7654,7.33305 67.0987,3.99971 63.5,1.5C 65.1667,0.833333 66.8333,0.166667 68.5,-0.5 Z"/></g>
<g><path style="opacity:0.938" fill="#1773ab" d="M 63.5,1.5 C 67.0987,3.99971 69.7654,7.33305 71.5,11.5C 69.9582,12.3007 68.2915,12.634 66.5,12.5C 64.9379,8.60822 62.6046,5.27488 59.5,2.5C 60.5676,1.56552 61.901,1.23219 63.5,1.5 Z"/></g>
<g><path style="opacity:0.942" fill="#1d79aa" d="M 59.5,2.5 C 62.6046,5.27488 64.9379,8.60822 66.5,12.5C 65.8333,12.5 65.5,12.8333 65.5,13.5C 64.1667,13.5 62.8333,13.5 61.5,13.5C 60.26,9.61933 58.26,6.28599 55.5,3.5C 56.7079,2.76589 58.0413,2.43255 59.5,2.5 Z"/></g>
<g><path style="opacity:0.958" fill="#2280a9" d="M 55.5,3.5 C 58.26,6.28599 60.26,9.61933 61.5,13.5C 61.5,14.1667 61.1667,14.5 60.5,14.5C 59.325,14.719 58.325,14.3857 57.5,13.5C 55.1317,10.6892 52.7984,8.02252 50.5,5.5C 51.9303,4.46253 53.597,3.79586 55.5,3.5 Z"/></g>
<g><path style="opacity:0.928" fill="#2d88a9" d="M 50.5,5.5 C 52.7984,8.02252 55.1317,10.6892 57.5,13.5C 58.325,14.3857 59.325,14.719 60.5,14.5C 60.5,14.8333 60.5,15.1667 60.5,15.5C 59.5,15.5 58.5,15.5 57.5,15.5C 56.1266,15.6567 54.7932,15.49 53.5,15C 51.6671,12.0015 49.3338,9.5015 46.5,7.5C 47.5137,6.32627 48.847,5.6596 50.5,5.5 Z"/></g>
<g><path style="opacity:0.742" fill="#0a5cae" d="M 83.5,-0.5 C 87.1667,-0.5 90.8333,-0.5 94.5,-0.5C 114.483,3.57791 131.316,13.2446 145,28.5C 148.483,32.8067 151.317,37.4734 153.5,42.5C 151.582,44.808 149.249,45.4747 146.5,44.5C 145.15,45.9501 143.484,46.6168 141.5,46.5C 140.833,45.8333 140.167,45.1667 139.5,44.5C 139.573,42.9731 138.906,41.9731 137.5,41.5C 127.997,28.0787 115.33,19.0787 99.5,14.5C 97.4855,13.0762 95.1522,12.4095 92.5,12.5C 92.1667,12.5 91.8333,12.5 91.5,12.5C 89.9242,11.7168 88.5908,10.5501 87.5,9C 87.9574,8.58605 88.2907,8.08605 88.5,7.5C 86.3218,5.14155 84.6551,2.47489 83.5,-0.5 Z"/></g>
<g><path style="opacity:0.927" fill="#3491a7" d="M 46.5,7.5 C 49.3338,9.5015 51.6671,12.0015 53.5,15C 54.7932,15.49 56.1266,15.6567 57.5,15.5C 54.2441,16.7863 50.9108,18.1196 47.5,19.5C 44.4744,16.8046 41.4744,14.1379 38.5,11.5C 40.8485,9.659 43.5152,8.32567 46.5,7.5 Z"/></g>
<g><path style="opacity:0.996" fill="#95bdd9" d="M 71.5,11.5 C 73.5,11.5 75.5,11.5 77.5,11.5C 81.0419,11.1872 84.3752,11.5206 87.5,12.5C 80.1507,12.5488 72.8174,12.8822 65.5,13.5C 65.5,12.8333 65.8333,12.5 66.5,12.5C 68.2915,12.634 69.9582,12.3007 71.5,11.5 Z"/></g>
<g><path style="opacity:1" fill="#e3edf5" d="M 87.5,12.5 C 88.8333,12.5 90.1667,12.5 91.5,12.5C 91.8333,12.5 92.1667,12.5 92.5,12.5C 94.5145,13.9238 96.8478,14.5905 99.5,14.5C 115.33,19.0787 127.997,28.0787 137.5,41.5C 137.427,43.0269 138.094,44.0269 139.5,44.5C 140.167,45.1667 140.833,45.8333 141.5,46.5C 142.11,47.391 142.443,48.391 142.5,49.5C 141.167,49.5 140.5,50.1667 140.5,51.5C 140.167,51.5 139.833,51.5 139.5,51.5C 139.672,50.5084 139.338,49.8417 138.5,49.5C 138.573,47.9731 137.906,46.9731 136.5,46.5C 136.573,44.9731 135.906,43.9731 134.5,43.5C 133.876,41.246 132.543,39.5794 130.5,38.5C 128.5,36.1667 126.5,33.8333 124.5,31.5C 124.027,30.0937 123.027,29.427 121.5,29.5C 116.49,25.9934 111.157,22.9934 105.5,20.5C 104.365,18.7868 102.698,18.1201 100.5,18.5C 98.7085,18.634 97.0418,18.3007 95.5,17.5C 94.7375,16.7321 93.7375,16.2321 92.5,16C 84.3225,15.1772 76.3225,15.3439 68.5,16.5C 68.1667,16.5 67.8333,16.5 67.5,16.5C 63.0845,16.8606 59.0845,18.1939 55.5,20.5C 53.847,20.6596 52.5137,21.3263 51.5,22.5C 49.847,22.6596 48.5137,23.3263 47.5,24.5C 45.5887,25.075 43.922,26.075 42.5,27.5C 42.4431,26.391 42.1098,25.391 41.5,24.5C 42.3065,23.2719 43.3065,22.2719 44.5,21.5C 45.7095,21.0679 46.7095,20.4013 47.5,19.5C 50.9108,18.1196 54.2441,16.7863 57.5,15.5C 58.5,15.5 59.5,15.5 60.5,15.5C 62.403,15.2041 64.0697,14.5375 65.5,13.5C 72.8174,12.8822 80.1507,12.5488 87.5,12.5 Z"/></g>
<g><path style="opacity:0.926" fill="#3a99a5" d="M 38.5,11.5 C 41.4744,14.1379 44.4744,16.8046 47.5,19.5C 46.7095,20.4013 45.7095,21.0679 44.5,21.5C 40.082,20.1272 35.7486,18.4605 31.5,16.5C 33.5313,14.4776 35.8646,12.8109 38.5,11.5 Z"/></g>
<g><path style="opacity:0.992" fill="#96c1d6" d="M 61.5,13.5 C 62.8333,13.5 64.1667,13.5 65.5,13.5C 64.0697,14.5375 62.403,15.2041 60.5,15.5C 60.5,15.1667 60.5,14.8333 60.5,14.5C 61.1667,14.5 61.5,14.1667 61.5,13.5 Z"/></g>
<g><path style="opacity:0.933" fill="#6a9dcd" d="M 92.5,12.5 C 95.1522,12.4095 97.4855,13.0762 99.5,14.5C 96.8478,14.5905 94.5145,13.9238 92.5,12.5 Z"/></g>
<g><path style="opacity:0.973" fill="#5a96c5" d="M 68.5,16.5 C 76.3225,15.3439 84.3225,15.1772 92.5,16C 93.7375,16.2321 94.7375,16.7321 95.5,17.5C 94.5,17.5 93.5,17.5 92.5,17.5C 91.609,16.8902 90.609,16.5569 89.5,16.5C 86.5,16.5 83.5,16.5 80.5,16.5C 79.1667,16.5 77.8333,16.5 76.5,16.5C 74.5,16.5 72.5,16.5 70.5,16.5C 69.8333,16.5 69.1667,16.5 68.5,16.5 Z"/></g>
<g><path style="opacity:0.992" fill="#78b1c9" d="M 67.5,16.5 C 67.5,17.1667 67.1667,17.5 66.5,17.5C 65.1667,17.8333 63.8333,18.1667 62.5,18.5C 60.9505,19.4408 59.2838,20.1075 57.5,20.5C 56.8333,20.5 56.1667,20.5 55.5,20.5C 59.0845,18.1939 63.0845,16.8606 67.5,16.5 Z"/></g>
<g><path style="opacity:0.992" fill="#1f79a8" d="M 67.5,16.5 C 67.8333,16.5 68.1667,16.5 68.5,16.5C 69.1667,16.5 69.8333,16.5 70.5,16.5C 79.8086,36.4836 93.8086,52.4836 112.5,64.5C 110.833,64.5 109.167,64.5 107.5,64.5C 106.391,64.4431 105.391,64.1098 104.5,63.5C 88.3356,51.9179 75.669,36.5846 66.5,17.5C 67.1667,17.5 67.5,17.1667 67.5,16.5 Z"/></g>
<g><path style="opacity:0.978" fill="#0f66ab" d="M 80.5,16.5 C 83.5,16.5 86.5,16.5 89.5,16.5C 92.8082,23.1102 96.6416,29.4435 101,35.5C 105.377,39.9771 110.044,43.3104 115,45.5C 116.334,47.5031 117.834,49.0031 119.5,50C 125.402,51.3393 131.402,51.1726 137.5,49.5C 137.833,49.5 138.167,49.5 138.5,49.5C 139.338,49.8417 139.672,50.5084 139.5,51.5C 139.38,52.5862 138.713,53.2528 137.5,53.5C 130.39,55.1553 123.39,55.322 116.5,54C 115.648,52.2716 114.648,52.105 113.5,53.5C 109.518,52.4428 106.685,50.1095 105,46.5C 104.667,46.8333 104.333,47.1667 104,47.5C 93.7049,38.459 85.8716,28.1256 80.5,16.5 Z"/></g>
<g><path style="opacity:0.984" fill="#95b9db" d="M 100.5,18.5 C 102.698,18.1201 104.365,18.7868 105.5,20.5C 103.597,20.2041 101.93,19.5375 100.5,18.5 Z"/></g>
<g><path style="opacity:0.991" fill="#2a85a6" d="M 62.5,18.5 C 63.2796,22.1267 64.7796,25.46 67,28.5C 71.8529,36.2157 77.1863,43.549 83,50.5C 86.887,55.0537 91.387,58.8871 96.5,62C 99.1677,62.567 101.834,63.067 104.5,63.5C 105.391,64.1098 106.391,64.4431 107.5,64.5C 107.5,64.8333 107.5,65.1667 107.5,65.5C 107.167,66.1667 106.833,66.8333 106.5,67.5C 98.7646,65.9244 91.7646,62.7577 85.5,58C 80.0163,52.1757 74.8497,46.009 70,39.5C 66.3201,32.7957 62.1534,26.4623 57.5,20.5C 59.2838,20.1075 60.9505,19.4408 62.5,18.5 Z"/></g>
<g><path style="opacity:0.983" fill="#136daa" d="M 76.5,16.5 C 77.8333,16.5 79.1667,16.5 80.5,16.5C 85.8716,28.1256 93.7049,38.459 104,47.5C 104.333,47.1667 104.667,46.8333 105,46.5C 106.685,50.1095 109.518,52.4428 113.5,53.5C 114.37,55.2737 115.703,56.607 117.5,57.5C 114.123,57.0405 110.789,56.3739 107.5,55.5C 92.6604,46.0031 82.327,33.0031 76.5,16.5 Z"/></g>
<g><path style="opacity:0.951" fill="#0b61ac" d="M 89.5,16.5 C 90.609,16.5569 91.609,16.8902 92.5,17.5C 93.9894,19.8051 95.4894,22.1384 97,24.5C 102.061,28.473 106.561,32.973 110.5,38C 111.833,38.3333 113.167,38.6667 114.5,39C 113.159,42.2617 113.492,42.7617 115.5,40.5C 120.476,41.7322 124.976,42.7322 129,43.5C 129.608,41.8455 130.108,40.1789 130.5,38.5C 132.543,39.5794 133.876,41.246 134.5,43.5C 134.427,45.0269 135.094,46.0269 136.5,46.5C 136.557,47.609 136.89,48.609 137.5,49.5C 131.402,51.1726 125.402,51.3393 119.5,50C 117.834,49.0031 116.334,47.5031 115,45.5C 110.044,43.3104 105.377,39.9771 101,35.5C 96.6416,29.4435 92.8082,23.1102 89.5,16.5 Z"/></g>
<g><path style="opacity:0.932" fill="#0a5fae" d="M 92.5,17.5 C 93.5,17.5 94.5,17.5 95.5,17.5C 97.0418,18.3007 98.7085,18.634 100.5,18.5C 101.93,19.5375 103.597,20.2041 105.5,20.5C 111.157,22.9934 116.49,25.9934 121.5,29.5C 121.973,30.9063 122.973,31.573 124.5,31.5C 126.5,33.8333 128.5,36.1667 130.5,38.5C 130.108,40.1789 129.608,41.8455 129,43.5C 124.976,42.7322 120.476,41.7322 115.5,40.5C 113.492,42.7617 113.159,42.2617 114.5,39C 113.167,38.6667 111.833,38.3333 110.5,38C 106.561,32.973 102.061,28.473 97,24.5C 95.4894,22.1384 93.9894,19.8051 92.5,17.5 Z"/></g>
<g><path style="opacity:0.989" fill="#3793a5" d="M 55.5,20.5 C 54.6971,21.4232 54.5304,22.4232 55,23.5C 63.7149,37.2117 73.5482,50.0451 84.5,62C 86.9007,64.0624 89.5674,65.7291 92.5,67C 93.8228,67.8159 94.4894,68.9826 94.5,70.5C 92.8828,69.962 91.2161,69.6287 89.5,69.5C 88.8333,68.8333 88.1667,68.1667 87.5,67.5C 87.6716,66.5084 87.3382,65.8417 86.5,65.5C 85.791,64.596 84.791,64.2627 83.5,64.5C 80.0274,61.6677 76.5274,58.6677 73,55.5C 70.6855,51.362 67.8521,47.6953 64.5,44.5C 64.1667,44.5 63.8333,44.5 63.5,44.5C 63.5,43.8333 63.1667,43.5 62.5,43.5C 62.5,42.8333 62.1667,42.5 61.5,42.5C 59.329,35.484 55.6623,29.3173 50.5,24C 51.056,23.6174 51.3893,23.1174 51.5,22.5C 52.5137,21.3263 53.847,20.6596 55.5,20.5 Z"/></g>
<g><path style="opacity:0.911" fill="#43a3a4" d="M 31.5,16.5 C 35.7486,18.4605 40.082,20.1272 44.5,21.5C 43.3065,22.2719 42.3065,23.2719 41.5,24.5C 39.2459,25.4151 37.2459,26.7484 35.5,28.5C 32.4816,28.3354 29.4816,28.502 26.5,29C 23.9427,29.6853 22.1094,31.1853 21,33.5C 19.927,32.7203 18.7604,32.887 17.5,34C 17.8333,34.3333 18.1667,34.6667 18.5,35C 17.5838,35.3742 16.7504,35.8742 16,36.5C 14.2321,39.08 12.7321,41.7467 11.5,44.5C 10.5,44.5 9.5,44.5 8.5,44.5C 13.3219,32.8715 20.9886,23.5381 31.5,16.5 Z"/></g>
<g><path style="opacity:0.992" fill="#3c9aa6" d="M 51.5,22.5 C 51.3893,23.1174 51.056,23.6174 50.5,24C 55.6623,29.3173 59.329,35.484 61.5,42.5C 60.0222,42.762 58.6888,42.4287 57.5,41.5C 54.2433,36.6544 50.7433,31.9878 47,27.5C 46.5304,26.4232 46.6971,25.4232 47.5,24.5C 48.5137,23.3263 49.847,22.6596 51.5,22.5 Z"/></g>
<g><path style="opacity:0.991" fill="#47a3a7" d="M 47.5,24.5 C 46.6971,25.4232 46.5304,26.4232 47,27.5C 50.7433,31.9878 54.2433,36.6544 57.5,41.5C 58.6888,42.4287 60.0222,42.762 61.5,42.5C 62.1667,42.5 62.5,42.8333 62.5,43.5C 57.8333,43.5 53.1667,43.5 48.5,43.5C 49.3984,42.8423 50.3984,42.1757 51.5,41.5C 49.2133,37.8781 46.5466,34.5448 43.5,31.5C 42.2638,30.7542 40.9305,30.4208 39.5,30.5C 40.1667,29.1667 41.1667,28.1667 42.5,27.5C 43.922,26.075 45.5887,25.075 47.5,24.5 Z"/></g>
<g><path style="opacity:0.92" fill="#49a8a4" d="M 35.5,28.5 C 33.5,31.1667 31.1667,33.5 28.5,35.5C 24.6588,36.2908 21.3255,38.1241 18.5,41C 19.8333,41.6667 19.8333,42.3333 18.5,43C 17.451,43.4922 16.451,43.3256 15.5,42.5C 13.0296,47.7035 9.02963,52.3702 3.5,56.5C 4.0966,51.9831 5.76326,47.9831 8.5,44.5C 9.5,44.5 10.5,44.5 11.5,44.5C 12.7321,41.7467 14.2321,39.08 16,36.5C 16.7504,35.8742 17.5838,35.3742 18.5,35C 18.1667,34.6667 17.8333,34.3333 17.5,34C 18.7604,32.887 19.927,32.7203 21,33.5C 22.1094,31.1853 23.9427,29.6853 26.5,29C 29.4816,28.502 32.4816,28.3354 35.5,28.5 Z"/></g>
<g><path style="opacity:1" fill="#e9f5f3" d="M 41.5,24.5 C 42.1098,25.391 42.4431,26.391 42.5,27.5C 41.1667,28.1667 40.1667,29.1667 39.5,30.5C 37.5956,30.7376 36.2623,31.7376 35.5,33.5C 28.785,39.2588 23.785,46.2588 20.5,54.5C 17.0284,60.2655 15.3617,66.5989 15.5,73.5C 14.1667,78.5 14.1667,83.5 15.5,88.5C 15.8333,91.1667 16.1667,93.8333 16.5,96.5C 16.677,100.708 18.0103,104.374 20.5,107.5C 23.6109,114.739 27.9442,121.072 33.5,126.5C 34.8333,128.167 36.1667,129.833 37.5,131.5C 36.5,131.833 35.8333,132.5 35.5,133.5C 23.2672,122.624 15.2672,109.29 11.5,93.5C 11.2895,84.8 11.6228,76.1333 12.5,67.5C 14.2766,64.4954 15.2766,61.1621 15.5,57.5C 18.2783,49.2811 22.6116,41.9477 28.5,35.5C 31.1667,33.5 33.5,31.1667 35.5,28.5C 37.2459,26.7484 39.2459,25.4151 41.5,24.5 Z"/></g>
<g><path style="opacity:0.98" fill="#a5c3e1" d="M 121.5,29.5 C 123.027,29.427 124.027,30.0937 124.5,31.5C 122.973,31.573 121.973,30.9063 121.5,29.5 Z"/></g>
<g><path style="opacity:0.991" fill="#48a7a4" d="M 39.5,30.5 C 40.9305,30.4208 42.2638,30.7542 43.5,31.5C 46.5466,34.5448 49.2133,37.8781 51.5,41.5C 50.3984,42.1757 49.3984,42.8423 48.5,43.5C 47.6618,43.8417 47.3284,44.5084 47.5,45.5C 44.2804,42.1169 40.6138,39.2835 36.5,37C 35.6634,35.9887 35.33,34.8221 35.5,33.5C 36.2623,31.7376 37.5956,30.7376 39.5,30.5 Z"/></g>
<g><path style="opacity:0.986" fill="#50aea4" d="M 35.5,33.5 C 35.33,34.8221 35.6634,35.9887 36.5,37C 40.6138,39.2835 44.2804,42.1169 47.5,45.5C 47.5,50.5 47.5,55.5 47.5,60.5C 44.1153,55.7875 39.782,52.1208 34.5,49.5C 33.1374,50.1984 31.9707,50.1984 31,49.5C 27.0552,51.7871 23.5552,54.4537 20.5,57.5C 20.5,56.5 20.5,55.5 20.5,54.5C 23.785,46.2588 28.785,39.2588 35.5,33.5 Z"/></g>
<g><path style="opacity:0.896" fill="#4caba2" d="M 28.5,35.5 C 22.6116,41.9477 18.2783,49.2811 15.5,57.5C 13.7234,60.5046 12.7234,63.8379 12.5,67.5C 10.5905,68.9746 9.42381,70.9746 9,73.5C 8.78107,72.062 8.28107,70.7287 7.5,69.5C 4.97203,70.5174 4.97203,71.6841 7.5,73C 3.67499,74.3267 1.00833,76.8267 -0.5,80.5C -0.5,76.5 -0.5,72.5 -0.5,68.5C 0.523724,64.4086 1.85706,60.4086 3.5,56.5C 9.02963,52.3702 13.0296,47.7035 15.5,42.5C 16.451,43.3256 17.451,43.4922 18.5,43C 19.8333,42.3333 19.8333,41.6667 18.5,41C 21.3255,38.1241 24.6588,36.2908 28.5,35.5 Z"/></g>
<g><path style="opacity:0.937" fill="#9fbedd" d="M 137.5,41.5 C 138.906,41.9731 139.573,42.9731 139.5,44.5C 138.094,44.0269 137.427,43.0269 137.5,41.5 Z"/></g>
<g><path style="opacity:1" fill="#fdfefd" d="M 63.5,101.5 C 63.8333,102.5 64.5,103.167 65.5,103.5C 68.005,104.497 70.6717,104.497 73.5,103.5C 73.8844,105.929 74.551,108.263 75.5,110.5C 75.5,112.167 75.5,113.833 75.5,115.5C 73.5168,115.157 72.1834,115.824 71.5,117.5C 67.8333,117.5 64.1667,117.5 60.5,117.5C 59.5,117.5 58.5,117.5 57.5,117.5C 53.0409,114.577 50.0409,110.577 48.5,105.5C 48.5,85.1667 48.5,64.8333 48.5,44.5C 53.1667,44.5 57.8333,44.5 62.5,44.5C 62.1697,63.674 62.503,82.674 63.5,101.5 Z"/></g>
<g><path style="opacity:0.982" fill="#247fa7" d="M 66.5,17.5 C 75.669,36.5846 88.3356,51.9179 104.5,63.5C 101.834,63.067 99.1677,62.567 96.5,62C 91.387,58.8871 86.887,55.0537 83,50.5C 77.1863,43.549 71.8529,36.2157 67,28.5C 64.7796,25.46 63.2796,22.1267 62.5,18.5C 63.8333,18.1667 65.1667,17.8333 66.5,17.5 Z"/></g>
<g><path style="opacity:0.898" fill="#6093c7" d="M 134.5,43.5 C 135.906,43.9731 136.573,44.9731 136.5,46.5C 135.094,46.0269 134.427,45.0269 134.5,43.5 Z"/></g>
<g><path style="opacity:0.984" fill="#3b98a3" d="M 64.5,44.5 C 67.8521,47.6953 70.6855,51.362 73,55.5C 76.5274,58.6677 80.0274,61.6677 83.5,64.5C 80.8333,64.5 78.1667,64.5 75.5,64.5C 71.8092,60.8722 68.3092,56.8722 65,52.5C 64.5026,49.854 64.3359,47.1873 64.5,44.5 Z"/></g>
<g><path style="opacity:0.684" fill="#135ea3" d="M 153.5,42.5 C 155.071,44.6351 156.404,46.9684 157.5,49.5C 153.707,51.7317 149.707,53.3983 145.5,54.5C 144.737,52.6316 143.737,50.9649 142.5,49.5C 142.443,48.391 142.11,47.391 141.5,46.5C 143.484,46.6168 145.15,45.9501 146.5,44.5C 149.249,45.4747 151.582,44.808 153.5,42.5 Z"/></g>
<g><path style="opacity:0.906" fill="#74a0cc" d="M 136.5,46.5 C 137.906,46.9731 138.573,47.9731 138.5,49.5C 138.167,49.5 137.833,49.5 137.5,49.5C 136.89,48.609 136.557,47.609 136.5,46.5 Z"/></g>
<g><path style="opacity:0.986" fill="#51b1a1" d="M 47.5,60.5 C 47.5,71.8333 47.5,83.1667 47.5,94.5C 44.2155,95.1882 41.0488,96.1882 38,97.5C 36.072,97.0665 34.2387,96.3998 32.5,95.5C 31.5581,95.6082 30.7247,95.9415 30,96.5C 28.0475,94.6627 27.0475,92.3294 27,89.5C 26.8603,92.0432 26.1937,94.3766 25,96.5C 23.3117,95.6753 23.1451,94.6753 24.5,93.5C 23.9017,92.2054 23.4017,90.8721 23,89.5C 21.965,92.7864 20.465,93.1197 18.5,90.5C 17.6922,88.5767 17.1922,86.5767 17,84.5C 16.79,86.0581 16.29,87.3915 15.5,88.5C 14.1667,83.5 14.1667,78.5 15.5,73.5C 16.3269,68.0129 17.9936,62.6795 20.5,57.5C 23.5552,54.4537 27.0552,51.7871 31,49.5C 31.9707,50.1984 33.1374,50.1984 34.5,49.5C 39.782,52.1208 44.1153,55.7875 47.5,60.5 Z"/></g>
<g><path style="opacity:0.966" fill="#1b73a7" d="M 70.5,16.5 C 72.5,16.5 74.5,16.5 76.5,16.5C 82.327,33.0031 92.6604,46.0031 107.5,55.5C 111.558,58.89 115.891,61.89 120.5,64.5C 117.833,64.5 115.167,64.5 112.5,64.5C 93.8086,52.4836 79.8086,36.4836 70.5,16.5 Z"/></g>
<g><path style="opacity:0.999" fill="#ecefeb" d="M 142.5,49.5 C 143.737,50.9649 144.737,52.6316 145.5,54.5C 145.5,55.1667 145.5,55.8333 145.5,56.5C 145.69,59.855 146.69,62.855 148.5,65.5C 149.166,73.4827 149.499,81.4827 149.5,89.5C 148.714,94.8823 147.714,100.216 146.5,105.5C 144.853,108.795 143.186,112.128 141.5,115.5C 138.179,120.129 134.846,124.796 131.5,129.5C 128.793,131.843 126.126,134.177 123.5,136.5C 122.833,136.5 122.5,136.833 122.5,137.5C 119.996,138.584 117.663,139.917 115.5,141.5C 113.847,141.66 112.514,142.326 111.5,143.5C 107.261,144.796 103.261,146.462 99.5,148.5C 96.5394,149.323 93.5394,149.99 90.5,150.5C 89.5,150.5 88.5,150.5 87.5,150.5C 80.485,150.422 73.485,150.089 66.5,149.5C 63.4954,147.723 60.1621,146.723 56.5,146.5C 55.8333,146.5 55.1667,146.5 54.5,146.5C 52.5739,145.514 50.5739,144.514 48.5,143.5C 47.0351,142.263 45.3684,141.263 43.5,140.5C 41.7772,138.782 39.7772,137.449 37.5,136.5C 36.8333,135.5 36.1667,134.5 35.5,133.5C 35.8333,132.5 36.5,131.833 37.5,131.5C 38.922,132.925 40.5887,133.925 42.5,134.5C 43.8021,136.822 45.8021,138.155 48.5,138.5C 48.9731,139.906 49.9731,140.573 51.5,140.5C 51.8333,140.5 52.1667,140.5 52.5,140.5C 52.9731,141.906 53.9731,142.573 55.5,142.5C 57.0418,143.301 58.7085,143.634 60.5,143.5C 61.9187,144.451 63.5853,144.784 65.5,144.5C 66.6354,146.213 68.302,146.88 70.5,146.5C 77.3209,147.655 84.3209,147.821 91.5,147C 94.4568,146.721 97.1234,145.887 99.5,144.5C 102.716,144.655 105.383,143.655 107.5,141.5C 108.167,140.833 108.833,140.167 109.5,139.5C 110.609,139.443 111.609,139.11 112.5,138.5C 114.882,137.649 116.882,136.316 118.5,134.5C 121.093,133.246 123.427,131.58 125.5,129.5C 128.295,127.249 130.628,124.582 132.5,121.5C 136.251,117.005 139.251,112.005 141.5,106.5C 142.971,102.282 143.971,97.9487 144.5,93.5C 145.301,91.9582 145.634,90.2915 145.5,88.5C 146.833,82.8333 146.833,77.1667 145.5,71.5C 145.768,69.901 145.434,68.5676 144.5,67.5C 144.706,64.5049 144.04,61.8383 142.5,59.5C 142.741,57.1016 142.074,55.1016 140.5,53.5C 140.5,52.8333 140.5,52.1667 140.5,51.5C 140.5,50.1667 141.167,49.5 142.5,49.5 Z"/></g>
<g><path style="opacity:0.923" fill="#1a66a3" d="M 139.5,51.5 C 139.833,51.5 140.167,51.5 140.5,51.5C 140.5,52.1667 140.5,52.8333 140.5,53.5C 140.259,55.8984 140.926,57.8984 142.5,59.5C 142.5,59.8333 142.5,60.1667 142.5,60.5C 137.666,62.115 132.833,62.7817 128,62.5C 124.392,61.0582 120.892,59.3915 117.5,57.5C 115.703,56.607 114.37,55.2737 113.5,53.5C 114.648,52.105 115.648,52.2716 116.5,54C 123.39,55.322 130.39,55.1553 137.5,53.5C 138.713,53.2528 139.38,52.5862 139.5,51.5 Z"/></g>
<g><path style="opacity:0.672" fill="#246198" d="M 157.5,49.5 C 158.696,52.4214 159.696,55.4214 160.5,58.5C 157.209,61.8104 153.209,63.477 148.5,63.5C 148.065,60.8427 147.065,58.5093 145.5,56.5C 145.5,55.8333 145.5,55.1667 145.5,54.5C 149.707,53.3983 153.707,51.7317 157.5,49.5 Z"/></g>
<g><path style="opacity:0.816" fill="#5e8cba" d="M 140.5,53.5 C 142.074,55.1016 142.741,57.1016 142.5,59.5C 140.926,57.8984 140.259,55.8984 140.5,53.5 Z"/></g>
<g><path style="opacity:0.965" fill="#92cdc5" d="M 20.5,54.5 C 20.5,55.5 20.5,56.5 20.5,57.5C 17.9936,62.6795 16.3269,68.0129 15.5,73.5C 15.3617,66.5989 17.0284,60.2655 20.5,54.5 Z"/></g>
<g><path style="opacity:0.984" fill="#add9d4" d="M 15.5,57.5 C 15.2766,61.1621 14.2766,64.4954 12.5,67.5C 12.7234,63.8379 13.7234,60.5046 15.5,57.5 Z"/></g>
<g><path style="opacity:0.984" fill="#48a4a2" d="M 63.5,44.5 C 63.8333,44.5 64.1667,44.5 64.5,44.5C 64.3359,47.1873 64.5026,49.854 65,52.5C 68.3092,56.8722 71.8092,60.8722 75.5,64.5C 74.1667,64.5 72.8333,64.5 71.5,64.5C 71.0535,67.0101 71.7202,69.0101 73.5,70.5C 73.6309,71.3764 73.2975,72.0431 72.5,72.5C 69.9778,71.4847 67.6444,70.1513 65.5,68.5C 64.8319,66.0312 64.1653,63.6979 63.5,61.5C 63.5,55.8333 63.5,50.1667 63.5,44.5 Z"/></g>
<g><path style="opacity:0.972" fill="#348ba2" d="M 55.5,20.5 C 56.1667,20.5 56.8333,20.5 57.5,20.5C 62.1534,26.4623 66.3201,32.7957 70,39.5C 74.8497,46.009 80.0163,52.1757 85.5,58C 91.7646,62.7577 98.7646,65.9244 106.5,67.5C 106.5,67.8333 106.5,68.1667 106.5,68.5C 106.267,70.0618 105.6,71.3951 104.5,72.5C 101.012,72.4601 97.6791,71.7934 94.5,70.5C 94.4894,68.9826 93.8228,67.8159 92.5,67C 89.5674,65.7291 86.9007,64.0624 84.5,62C 73.5482,50.0451 63.7149,37.2117 55,23.5C 54.5304,22.4232 54.6971,21.4232 55.5,20.5 Z"/></g>
<g><path style="opacity:0.909" fill="#206b9f" d="M 107.5,55.5 C 110.789,56.3739 114.123,57.0405 117.5,57.5C 120.892,59.3915 124.392,61.0582 128,62.5C 132.833,62.7817 137.666,62.115 142.5,60.5C 142.631,61.3764 142.298,62.0431 141.5,62.5C 135.666,65.2629 129.666,65.9296 123.5,64.5C 122.5,64.5 121.5,64.5 120.5,64.5C 115.891,61.89 111.558,58.89 107.5,55.5 Z"/></g>
<g><path style="opacity:0.922" fill="#abc2d6" d="M 145.5,56.5 C 147.065,58.5093 148.065,60.8427 148.5,63.5C 148.5,64.1667 148.5,64.8333 148.5,65.5C 146.69,62.855 145.69,59.855 145.5,56.5 Z"/></g>
<g><path style="opacity:0.684" fill="#35648c" d="M 160.5,58.5 C 161.301,60.0418 161.634,61.7085 161.5,63.5C 157.723,65.7224 153.723,67.3891 149.5,68.5C 149.737,67.209 149.404,66.209 148.5,65.5C 148.5,64.8333 148.5,64.1667 148.5,63.5C 153.209,63.477 157.209,61.8104 160.5,58.5 Z"/></g>
<g><path style="opacity:0.983" fill="#72b5ba" d="M 75.5,64.5 C 78.1667,64.5 80.8333,64.5 83.5,64.5C 84.791,64.2627 85.791,64.596 86.5,65.5C 81.6367,65.1805 76.97,65.5139 72.5,66.5C 72.8333,67.8333 73.1667,69.1667 73.5,70.5C 71.7202,69.0101 71.0535,67.0101 71.5,64.5C 72.8333,64.5 74.1667,64.5 75.5,64.5 Z"/></g>
<g><path style="opacity:0.949" fill="#6299b8" d="M 107.5,65.5 C 107.5,65.1667 107.5,64.8333 107.5,64.5C 109.167,64.5 110.833,64.5 112.5,64.5C 115.167,64.5 117.833,64.5 120.5,64.5C 121.5,64.5 122.5,64.5 123.5,64.5C 123.5,65.5 123.5,66.5 123.5,67.5C 123.167,67.5 122.833,67.5 122.5,67.5C 122.5,67.1667 122.5,66.8333 122.5,66.5C 117.695,65.5128 112.695,65.1795 107.5,65.5 Z"/></g>
<g><path style="opacity:0.996" fill="#cce3e6" d="M 72.5,66.5 C 76.97,65.5139 81.6367,65.1805 86.5,65.5C 87.3382,65.8417 87.6716,66.5084 87.5,67.5C 82.5947,66.5546 77.5947,66.2213 72.5,66.5 Z"/></g>
<g><path style="opacity:0.983" fill="#c4d9e4" d="M 107.5,65.5 C 112.695,65.1795 117.695,65.5128 122.5,66.5C 117.821,66.3342 113.155,66.5008 108.5,67C 107.956,67.7172 107.289,68.2172 106.5,68.5C 106.5,68.1667 106.5,67.8333 106.5,67.5C 106.833,66.8333 107.167,66.1667 107.5,65.5 Z"/></g>
<g><path style="opacity:1" fill="#fafcfb" d="M 72.5,66.5 C 77.5947,66.2213 82.5947,66.5546 87.5,67.5C 88.1667,68.1667 88.8333,68.8333 89.5,69.5C 89.8782,71.921 90.5448,74.2543 91.5,76.5C 92.6228,80.7433 94.2895,84.7433 96.5,88.5C 99.0819,84.3384 101.415,80.0051 103.5,75.5C 103.557,74.391 103.89,73.391 104.5,72.5C 105.6,71.3951 106.267,70.0618 106.5,68.5C 107.289,68.2172 107.956,67.7172 108.5,67C 113.155,66.5008 117.821,66.3342 122.5,66.5C 122.5,66.8333 122.5,67.1667 122.5,67.5C 120.935,69.5093 119.935,71.8427 119.5,74.5C 117.935,76.5093 116.935,78.8427 116.5,81.5C 114.935,83.5093 113.935,85.8427 113.5,88.5C 111.027,92.4593 109.36,96.7926 108.5,101.5C 107.833,101.5 107.5,101.833 107.5,102.5C 104.322,108.196 101.656,114.196 99.5,120.5C 98.242,122.687 97.242,125.02 96.5,127.5C 96.4431,128.609 96.1098,129.609 95.5,130.5C 90.0557,131.108 85.0557,130.442 80.5,128.5C 80.5,127.833 80.5,127.167 80.5,126.5C 82.2927,124.574 83.2927,122.241 83.5,119.5C 85.4174,116.283 87.2507,112.949 89,109.5C 89.7385,107.119 89.2385,105.119 87.5,103.5C 85.534,98.2395 83.2007,93.2395 80.5,88.5C 78.7719,82.2443 76.4385,76.2443 73.5,70.5C 73.1667,69.1667 72.8333,67.8333 72.5,66.5 Z"/></g>
<g><path style="opacity:0.687" fill="#406584" d="M 161.5,63.5 C 162.434,64.5676 162.768,65.901 162.5,67.5C 158.623,69.6853 154.623,71.6853 150.5,73.5C 150.634,71.7085 150.301,70.0418 149.5,68.5C 153.723,67.3891 157.723,65.7224 161.5,63.5 Z"/></g>
<g><path style="opacity:0.841" fill="#326c93" d="M 142.5,59.5 C 144.04,61.8383 144.706,64.5049 144.5,67.5C 144.64,69.1238 143.973,70.2904 142.5,71C 139.443,71.2565 136.443,71.7565 133.5,72.5C 132.5,71.1667 131.5,71.1667 130.5,72.5C 129.064,70.1782 127.23,69.5115 125,70.5C 123.961,69.7562 123.461,68.7562 123.5,67.5C 123.5,66.5 123.5,65.5 123.5,64.5C 129.666,65.9296 135.666,65.2629 141.5,62.5C 142.298,62.0431 142.631,61.3764 142.5,60.5C 142.5,60.1667 142.5,59.8333 142.5,59.5 Z"/></g>
<g><path style="opacity:0.852" fill="#52b1a1" d="M 12.5,67.5 C 11.6228,76.1333 11.2895,84.8 11.5,93.5C 11.631,94.2389 11.4643,94.9056 11,95.5C 9.4694,88.9832 7.9694,88.9832 6.5,95.5C 8.06186,97.3627 7.72853,98.6961 5.5,99.5C 4.91968,96.621 3.25301,94.9543 0.5,94.5C 0.166667,94.5 -0.166667,94.5 -0.5,94.5C -0.5,89.8333 -0.5,85.1667 -0.5,80.5C 1.00833,76.8267 3.67499,74.3267 7.5,73C 4.97203,71.6841 4.97203,70.5174 7.5,69.5C 8.28107,70.7287 8.78107,72.062 9,73.5C 9.42381,70.9746 10.5905,68.9746 12.5,67.5 Z"/></g>
<g><path style="opacity:0.91" fill="#7da6b9" d="M 122.5,67.5 C 122.483,69.5648 122.15,71.5648 121.5,73.5C 120.833,73.8333 120.167,74.1667 119.5,74.5C 119.935,71.8427 120.935,69.5093 122.5,67.5 Z"/></g>
<g><path style="opacity:0.657" fill="#4c677b" d="M 162.5,67.5 C 162.5,68.1667 162.833,68.5 163.5,68.5C 163.5,70.5 163.5,72.5 163.5,74.5C 159.103,76.0153 154.769,77.682 150.5,79.5C 150.5,77.5 150.5,75.5 150.5,73.5C 154.623,71.6853 158.623,69.6853 162.5,67.5 Z"/></g>
<g><path style="opacity:0.799" fill="#416f89" d="M 122.5,67.5 C 122.833,67.5 123.167,67.5 123.5,67.5C 123.461,68.7562 123.961,69.7562 125,70.5C 127.23,69.5115 129.064,70.1782 130.5,72.5C 131.5,71.1667 132.5,71.1667 133.5,72.5C 136.443,71.7565 139.443,71.2565 142.5,71C 143.973,70.2904 144.64,69.1238 144.5,67.5C 145.434,68.5676 145.768,69.901 145.5,71.5C 145.799,73.604 145.466,75.604 144.5,77.5C 139.892,78.8548 134.892,79.5215 129.5,79.5C 126.946,77.3211 124.28,75.3211 121.5,73.5C 122.15,71.5648 122.483,69.5648 122.5,67.5 Z"/></g>
<g><path style="opacity:0.971" fill="#469399" d="M 89.5,69.5 C 91.2161,69.6287 92.8828,69.962 94.5,70.5C 97.6791,71.7934 101.012,72.4601 104.5,72.5C 103.89,73.391 103.557,74.391 103.5,75.5C 99.5851,77.3781 95.5851,77.7115 91.5,76.5C 90.5448,74.2543 89.8782,71.921 89.5,69.5 Z"/></g>
<g><path style="opacity:0.996" fill="#b5ddd7" d="M 48.5,43.5 C 53.1667,43.5 57.8333,43.5 62.5,43.5C 63.1667,43.5 63.5,43.8333 63.5,44.5C 63.5,50.1667 63.5,55.8333 63.5,61.5C 63.5,74.8333 63.5,88.1667 63.5,101.5C 62.503,82.674 62.1697,63.674 62.5,44.5C 57.8333,44.5 53.1667,44.5 48.5,44.5C 48.5,64.8333 48.5,85.1667 48.5,105.5C 47.5184,102.038 47.185,98.3714 47.5,94.5C 47.5,83.1667 47.5,71.8333 47.5,60.5C 47.5,55.5 47.5,50.5 47.5,45.5C 47.3284,44.5084 47.6618,43.8417 48.5,43.5 Z"/></g>
<g><path style="opacity:0.867" fill="#abb9c3" d="M 148.5,65.5 C 149.404,66.209 149.737,67.209 149.5,68.5C 150.301,70.0418 150.634,71.7085 150.5,73.5C 150.5,75.5 150.5,77.5 150.5,79.5C 150.5,82.1667 150.5,84.8333 150.5,87.5C 150.5,88.1667 150.5,88.8333 150.5,89.5C 150.167,89.5 149.833,89.5 149.5,89.5C 149.499,81.4827 149.166,73.4827 148.5,65.5 Z"/></g>
<g><path style="opacity:0.918" fill="#85a9b1" d="M 119.5,74.5 C 119.634,76.2915 119.301,77.9582 118.5,79.5C 118.167,80.5 117.5,81.1667 116.5,81.5C 116.935,78.8427 117.935,76.5093 119.5,74.5 Z"/></g>
<g><path style="opacity:0.884" fill="#487a89" d="M 121.5,73.5 C 124.28,75.3211 126.946,77.3211 129.5,79.5C 129.5,80.5 129.5,81.5 129.5,82.5C 128.178,82.33 127.011,82.6634 126,83.5C 124.066,81.0573 121.566,79.724 118.5,79.5C 119.301,77.9582 119.634,76.2915 119.5,74.5C 120.167,74.1667 120.833,73.8333 121.5,73.5 Z"/></g>
<g><path style="opacity:0.977" fill="#599c98" d="M 103.5,75.5 C 101.415,80.0051 99.0819,84.3384 96.5,88.5C 94.2895,84.7433 92.6228,80.7433 91.5,76.5C 95.5851,77.7115 99.5851,77.3781 103.5,75.5 Z"/></g>
<g><path style="opacity:0.725" fill="#596872" d="M 163.5,74.5 C 163.5,77.8333 163.5,81.1667 163.5,84.5C 162.527,85.7914 161.527,85.7914 160.5,84.5C 157.833,85.8333 155.167,87.1667 152.5,88.5C 151.817,88.1373 151.15,87.8039 150.5,87.5C 150.5,84.8333 150.5,82.1667 150.5,79.5C 154.769,77.682 159.103,76.0153 163.5,74.5 Z"/></g>
<g><path style="opacity:0.993" fill="#56ad9c" d="M 63.5,61.5 C 64.1653,63.6979 64.8319,66.0312 65.5,68.5C 67.6444,70.1513 69.9778,71.4847 72.5,72.5C 73.2975,72.0431 73.6309,71.3764 73.5,70.5C 76.4385,76.2443 78.7719,82.2443 80.5,88.5C 79.4997,94.1888 77.1664,99.1888 73.5,103.5C 71.0185,102.742 68.3519,102.742 65.5,103.5C 64.5,103.167 63.8333,102.5 63.5,101.5C 63.5,88.1667 63.5,74.8333 63.5,61.5 Z"/></g>
<g><path style="opacity:0.839" fill="#57757f" d="M 145.5,71.5 C 146.833,77.1667 146.833,82.8333 145.5,88.5C 145.5,87.1667 145.5,85.8333 145.5,84.5C 140.728,84.7054 136.062,85.3721 131.5,86.5C 130.761,86.631 130.094,86.4643 129.5,86C 130.791,84.7083 130.791,83.5417 129.5,82.5C 129.5,81.5 129.5,80.5 129.5,79.5C 134.892,79.5215 139.892,78.8548 144.5,77.5C 145.466,75.604 145.799,73.604 145.5,71.5 Z"/></g>
<g><path style="opacity:0.984" fill="#54b3a0" d="M 47.5,94.5 C 47.185,98.3714 47.5184,102.038 48.5,105.5C 48.2865,107.144 48.6198,108.644 49.5,110C 48.7734,111.399 48.2734,112.899 48,114.5C 42.6056,117.93 37.7722,121.93 33.5,126.5C 27.9442,121.072 23.6109,114.739 20.5,107.5C 19.5376,103.605 18.2043,99.9385 16.5,96.5C 16.1667,93.8333 15.8333,91.1667 15.5,88.5C 16.29,87.3915 16.79,86.0581 17,84.5C 17.1922,86.5767 17.6922,88.5767 18.5,90.5C 20.465,93.1197 21.965,92.7864 23,89.5C 23.4017,90.8721 23.9017,92.2054 24.5,93.5C 23.1451,94.6753 23.3117,95.6753 25,96.5C 26.1937,94.3766 26.8603,92.0432 27,89.5C 27.0475,92.3294 28.0475,94.6627 30,96.5C 30.7247,95.9415 31.5581,95.6082 32.5,95.5C 34.2387,96.3998 36.072,97.0665 38,97.5C 41.0488,96.1882 44.2155,95.1882 47.5,94.5 Z"/></g>
<g><path style="opacity:0.734" fill="#61696d" d="M 163.5,84.5 C 163.5,87.8333 163.5,91.1667 163.5,94.5C 163.167,94.5 162.833,94.5 162.5,94.5C 160.983,94.4894 159.816,93.8228 159,92.5C 158.333,93.1667 157.667,93.8333 157,94.5C 155.475,94.1119 153.808,94.1119 152,94.5C 150.731,93.0953 150.231,91.4286 150.5,89.5C 150.5,88.8333 150.5,88.1667 150.5,87.5C 151.15,87.8039 151.817,88.1373 152.5,88.5C 155.167,87.1667 157.833,85.8333 160.5,84.5C 161.527,85.7914 162.527,85.7914 163.5,84.5 Z"/></g>
<g><path style="opacity:0.883" fill="#5a7c7b" d="M 118.5,79.5 C 121.566,79.724 124.066,81.0573 126,83.5C 127.011,82.6634 128.178,82.33 129.5,82.5C 130.791,83.5417 130.791,84.7083 129.5,86C 130.094,86.4643 130.761,86.631 131.5,86.5C 131.717,89.4206 131.051,92.0872 129.5,94.5C 125.895,94.2284 122.228,94.2284 118.5,94.5C 117.867,94.1205 117.2,93.7871 116.5,93.5C 116.924,89.3784 116.924,85.3784 116.5,81.5C 117.5,81.1667 118.167,80.5 118.5,79.5 Z"/></g>
<g><path style="opacity:0.857" fill="#5f7272" d="M 145.5,88.5 C 145.634,90.2915 145.301,91.9582 144.5,93.5C 141.842,94.1545 139.009,94.1545 136,93.5C 134.139,94.8729 132.306,95.2062 130.5,94.5C 130.167,94.5 129.833,94.5 129.5,94.5C 131.051,92.0872 131.717,89.4206 131.5,86.5C 136.062,85.3721 140.728,84.7054 145.5,84.5C 145.5,85.8333 145.5,87.1667 145.5,88.5 Z"/></g>
<g><path style="opacity:0.882" fill="#58b49f" d="M 11.5,93.5 C 15.2672,109.29 23.2672,122.624 35.5,133.5C 36.1667,134.5 36.8333,135.5 37.5,136.5C 34.6071,138.114 31.6071,139.447 28.5,140.5C 28.7373,141.791 28.404,142.791 27.5,143.5C 12.5266,130.561 3.52656,114.227 0.5,94.5C 3.25301,94.9543 4.91968,96.621 5.5,99.5C 7.72853,98.6961 8.06186,97.3627 6.5,95.5C 7.9694,88.9832 9.4694,88.9832 11,95.5C 11.4643,94.9056 11.631,94.2389 11.5,93.5 Z"/></g>
<g><path style="opacity:0.949" fill="#66897e" d="M 116.5,81.5 C 116.924,85.3784 116.924,89.3784 116.5,93.5C 117.2,93.7871 117.867,94.1205 118.5,94.5C 117.147,95.5261 116.147,96.8595 115.5,98.5C 114.038,97.5291 112.705,97.8624 111.5,99.5C 111.87,95.7674 112.537,92.1007 113.5,88.5C 113.935,85.8427 114.935,83.5093 116.5,81.5 Z"/></g>
<g><path style="opacity:0.802" fill="#696d6b" d="M 149.5,89.5 C 149.833,89.5 150.167,89.5 150.5,89.5C 150.231,91.4286 150.731,93.0953 152,94.5C 153.808,94.1119 155.475,94.1119 157,94.5C 157.667,93.8333 158.333,93.1667 159,92.5C 159.816,93.8228 160.983,94.4894 162.5,94.5C 162.02,100.927 160.353,106.927 157.5,112.5C 156.883,112.611 156.383,112.944 156,113.5C 154.438,111.566 152.605,109.899 150.5,108.5C 149.522,108.977 148.689,109.643 148,110.5C 147.648,108.753 147.148,107.086 146.5,105.5C 147.714,100.216 148.714,94.8823 149.5,89.5 Z"/></g>
<g><path style="opacity:0.957" fill="#8aa69a" d="M 113.5,88.5 C 112.537,92.1007 111.87,95.7674 111.5,99.5C 110.883,99.3893 110.383,99.056 110,98.5C 109.768,99.7375 109.268,100.737 108.5,101.5C 109.36,96.7926 111.027,92.4593 113.5,88.5 Z"/></g>
<g><path style="opacity:0.863" fill="#68716c" d="M 144.5,93.5 C 143.971,97.9487 142.971,102.282 141.5,106.5C 139.871,105.375 138.371,104.041 137,102.5C 136.667,103.167 136.333,103.833 136,104.5C 133.905,104.046 131.739,103.046 129.5,101.5C 129.993,99.1944 130.326,96.861 130.5,94.5C 132.306,95.2062 134.139,94.8729 136,93.5C 139.009,94.1545 141.842,94.1545 144.5,93.5 Z"/></g>
<g><path style="opacity:0.992" fill="#b2ddd4" d="M 16.5,96.5 C 18.2043,99.9385 19.5376,103.605 20.5,107.5C 18.0103,104.374 16.677,100.708 16.5,96.5 Z"/></g>
<g><path style="opacity:0.955" fill="#6d8874" d="M 115.5,98.5 C 115.5,101.167 115.5,103.833 115.5,106.5C 113.5,106.5 111.5,106.5 109.5,106.5C 107.824,105.817 107.157,104.483 107.5,102.5C 107.5,101.833 107.833,101.5 108.5,101.5C 109.268,100.737 109.768,99.7375 110,98.5C 110.383,99.056 110.883,99.3893 111.5,99.5C 112.705,97.8624 114.038,97.5291 115.5,98.5 Z"/></g>
<g><path style="opacity:0.919" fill="#6b7b6d" d="M 129.5,94.5 C 129.833,94.5 130.167,94.5 130.5,94.5C 130.326,96.861 129.993,99.1944 129.5,101.5C 128.343,104.273 127.676,107.273 127.5,110.5C 124.389,109.106 121.222,107.772 118,106.5C 117.329,107.252 116.496,107.586 115.5,107.5C 115.5,107.167 115.5,106.833 115.5,106.5C 115.5,103.833 115.5,101.167 115.5,98.5C 116.147,96.8595 117.147,95.5261 118.5,94.5C 122.228,94.2284 125.895,94.2284 129.5,94.5 Z"/></g>
<g><path style="opacity:0.996" fill="#62ab93" d="M 80.5,88.5 C 83.2007,93.2395 85.534,98.2395 87.5,103.5C 83.5677,105.805 79.5677,108.138 75.5,110.5C 74.551,108.263 73.8844,105.929 73.5,103.5C 77.1664,99.1888 79.4997,94.1888 80.5,88.5 Z"/></g>
<g><path style="opacity:0.899" fill="#707469" d="M 129.5,101.5 C 131.739,103.046 133.905,104.046 136,104.5C 136.333,103.833 136.667,103.167 137,102.5C 138.371,104.041 139.871,105.375 141.5,106.5C 139.251,112.005 136.251,117.005 132.5,121.5C 128.053,119.239 126.386,115.572 127.5,110.5C 127.676,107.273 128.343,104.273 129.5,101.5 Z"/></g>
<g><path style="opacity:0.996" fill="#afd8cd" d="M 73.5,103.5 C 70.6717,104.497 68.005,104.497 65.5,103.5C 68.3519,102.742 71.0185,102.742 73.5,103.5 Z"/></g>
<g><path style="opacity:0.969" fill="#849b80" d="M 107.5,102.5 C 107.157,104.483 107.824,105.817 109.5,106.5C 108.609,108.609 107.442,110.609 106,112.5C 105.51,113.793 105.343,115.127 105.5,116.5C 104.448,116.351 103.448,116.517 102.5,117C 102.026,118.729 101.026,119.895 99.5,120.5C 101.656,114.196 104.322,108.196 107.5,102.5 Z"/></g>
<g><path style="opacity:0.782" fill="#6f7067" d="M 146.5,105.5 C 147.148,107.086 147.648,108.753 148,110.5C 148.689,109.643 149.522,108.977 150.5,108.5C 152.605,109.899 154.438,111.566 156,113.5C 156.383,112.944 156.883,112.611 157.5,112.5C 155.692,117.45 153.358,122.117 150.5,126.5C 149.778,126.082 149.278,125.416 149,124.5C 148.577,125.956 147.744,126.456 146.5,126C 146.833,125.667 147.167,125.333 147.5,125C 146.491,122.828 144.824,121.662 142.5,121.5C 142.167,119.5 141.833,117.5 141.5,115.5C 143.186,112.128 144.853,108.795 146.5,105.5 Z"/></g>
<g><path style="opacity:0.922" fill="#767c66" d="M 127.5,110.5 C 126.386,115.572 128.053,119.239 132.5,121.5C 130.628,124.582 128.295,127.249 125.5,129.5C 125.762,128.022 125.429,126.689 124.5,125.5C 121.171,123.494 118.171,121.161 115.5,118.5C 115.5,114.833 115.5,111.167 115.5,107.5C 116.496,107.586 117.329,107.252 118,106.5C 121.222,107.772 124.389,109.106 127.5,110.5 Z"/></g>
<g><path style="opacity:0.994" fill="#6fab89" d="M 87.5,103.5 C 89.2385,105.119 89.7385,107.119 89,109.5C 87.2507,112.949 85.4174,116.283 83.5,119.5C 83.1667,119.5 82.8333,119.5 82.5,119.5C 82.719,118.325 82.3857,117.325 81.5,116.5C 78.6079,117.394 75.9413,118.728 73.5,120.5C 72.8243,119.398 72.1577,118.398 71.5,117.5C 72.1834,115.824 73.5168,115.157 75.5,115.5C 75.5,113.833 75.5,112.167 75.5,110.5C 79.5677,108.138 83.5677,105.805 87.5,103.5 Z"/></g>
<g><path style="opacity:0.953" fill="#77876a" d="M 109.5,106.5 C 111.5,106.5 113.5,106.5 115.5,106.5C 115.5,106.833 115.5,107.167 115.5,107.5C 115.5,111.167 115.5,114.833 115.5,118.5C 114.036,117.595 112.702,117.595 111.5,118.5C 111.189,117.522 110.522,116.855 109.5,116.5C 108.005,117.705 106.672,117.705 105.5,116.5C 105.343,115.127 105.51,113.793 106,112.5C 107.442,110.609 108.609,108.609 109.5,106.5 Z"/></g>
<g><path style="opacity:0.968" fill="#5eb49c" d="M 48.5,105.5 C 50.0409,110.577 53.0409,114.577 57.5,117.5C 53.5471,119.951 50.0471,122.951 47,126.5C 46.6667,126.167 46.3333,125.833 46,125.5C 45.1376,127.087 44.4709,128.754 44,130.5C 42.9326,131.191 41.7659,131.691 40.5,132C 41.3805,132.708 42.0472,133.542 42.5,134.5C 40.5887,133.925 38.922,132.925 37.5,131.5C 36.1667,129.833 34.8333,128.167 33.5,126.5C 37.7722,121.93 42.6056,117.93 48,114.5C 48.2734,112.899 48.7734,111.399 49.5,110C 48.6198,108.644 48.2865,107.144 48.5,105.5 Z"/></g>
<g><path style="opacity:0.964" fill="#61b293" d="M 57.5,117.5 C 58.5,117.5 59.5,117.5 60.5,117.5C 61.3984,118.158 62.3984,118.824 63.5,119.5C 59.8701,123.63 55.5367,126.797 50.5,129C 49.1413,131.545 47.6413,134.045 46,136.5C 45.1841,135.177 44.0174,134.511 42.5,134.5C 42.0472,133.542 41.3805,132.708 40.5,132C 41.7659,131.691 42.9326,131.191 44,130.5C 44.4709,128.754 45.1376,127.087 46,125.5C 46.3333,125.833 46.6667,126.167 47,126.5C 50.0471,122.951 53.5471,119.951 57.5,117.5 Z"/></g>
<g><path style="opacity:0.965" fill="#6db491" d="M 60.5,117.5 C 64.1667,117.5 67.8333,117.5 71.5,117.5C 68.2933,120.455 64.6266,122.955 60.5,125C 57.027,128.473 53.527,131.973 50,135.5C 49.5172,136.448 49.3505,137.448 49.5,138.5C 49.1667,138.5 48.8333,138.5 48.5,138.5C 45.8021,138.155 43.8021,136.822 42.5,134.5C 44.0174,134.511 45.1841,135.177 46,136.5C 47.6413,134.045 49.1413,131.545 50.5,129C 55.5367,126.797 59.8701,123.63 63.5,119.5C 62.3984,118.824 61.3984,118.158 60.5,117.5 Z"/></g>
<g><path style="opacity:0.969" fill="#869569" d="M 105.5,116.5 C 106.672,117.705 108.005,117.705 109.5,116.5C 110.522,116.855 111.189,117.522 111.5,118.5C 111.66,120.199 111.494,121.866 111,123.5C 107.877,121.902 107.044,122.569 108.5,125.5C 107.167,125.5 105.833,125.5 104.5,125.5C 102.565,124.85 100.565,124.517 98.5,124.5C 98.7148,126.179 98.0481,127.179 96.5,127.5C 97.242,125.02 98.242,122.687 99.5,120.5C 101.026,119.895 102.026,118.729 102.5,117C 103.448,116.517 104.448,116.351 105.5,116.5 Z"/></g>
<g><path style="opacity:0.956" fill="#71b085" d="M 82.5,119.5 C 71.2934,124.093 61.96,131.093 54.5,140.5C 53.8333,140.5 53.1667,140.5 52.5,140.5C 52.1667,140.5 51.8333,140.5 51.5,140.5C 51.1667,139.5 50.5,138.833 49.5,138.5C 49.3505,137.448 49.5172,136.448 50,135.5C 53.527,131.973 57.027,128.473 60.5,125C 64.6266,122.955 68.2933,120.455 71.5,117.5C 72.1577,118.398 72.8243,119.398 73.5,120.5C 75.9413,118.728 78.6079,117.394 81.5,116.5C 82.3857,117.325 82.719,118.325 82.5,119.5 Z"/></g>
<g><path style="opacity:0.79" fill="#777664" d="M 141.5,115.5 C 141.833,117.5 142.167,119.5 142.5,121.5C 144.824,121.662 146.491,122.828 147.5,125C 147.167,125.333 146.833,125.667 146.5,126C 147.744,126.456 148.577,125.956 149,124.5C 149.278,125.416 149.778,126.082 150.5,126.5C 147.848,130.482 144.848,134.149 141.5,137.5C 138.25,134.828 134.917,132.161 131.5,129.5C 134.846,124.796 138.179,120.129 141.5,115.5 Z"/></g>
<g><path style="opacity:0.956" fill="#7db17e" d="M 82.5,119.5 C 82.8333,119.5 83.1667,119.5 83.5,119.5C 83.2927,122.241 82.2927,124.574 80.5,126.5C 80.5654,126.062 80.3988,125.728 80,125.5C 75.7861,129.382 71.2861,132.882 66.5,136C 64.215,138.299 62.215,140.799 60.5,143.5C 58.7085,143.634 57.0418,143.301 55.5,142.5C 55.1667,141.833 54.8333,141.167 54.5,140.5C 61.96,131.093 71.2934,124.093 82.5,119.5 Z"/></g>
<g><path style="opacity:0.928" fill="#858761" d="M 115.5,118.5 C 118.171,121.161 121.171,123.494 124.5,125.5C 125.429,126.689 125.762,128.022 125.5,129.5C 123.427,131.58 121.093,133.246 118.5,134.5C 118.719,133.325 118.386,132.325 117.5,131.5C 114.453,129.432 111.453,127.432 108.5,125.5C 107.044,122.569 107.877,121.902 111,123.5C 111.494,121.866 111.66,120.199 111.5,118.5C 112.702,117.595 114.036,117.595 115.5,118.5 Z"/></g>
<g><path style="opacity:0.967" fill="#919a61" d="M 104.5,125.5 C 105.015,127.894 105.681,130.228 106.5,132.5C 102.865,131.886 99.1981,131.552 95.5,131.5C 95.5,131.167 95.5,130.833 95.5,130.5C 96.1098,129.609 96.4431,128.609 96.5,127.5C 98.0481,127.179 98.7148,126.179 98.5,124.5C 100.565,124.517 102.565,124.85 104.5,125.5 Z"/></g>
<g><path style="opacity:0.928" fill="#8f905e" d="M 104.5,125.5 C 105.833,125.5 107.167,125.5 108.5,125.5C 111.453,127.432 114.453,129.432 117.5,131.5C 118.386,132.325 118.719,133.325 118.5,134.5C 116.882,136.316 114.882,137.649 112.5,138.5C 112.631,137.761 112.464,137.094 112,136.5C 109.833,135.512 108,134.179 106.5,132.5C 105.681,130.228 105.015,127.894 104.5,125.5 Z"/></g>
<g><path style="opacity:0.992" fill="#b8c89f" d="M 80.5,128.5 C 85.0557,130.442 90.0557,131.108 95.5,130.5C 95.5,130.833 95.5,131.167 95.5,131.5C 91.1667,131.5 86.8333,131.5 82.5,131.5C 81.5,131.5 80.5,131.5 79.5,131.5C 79.2627,130.209 79.596,129.209 80.5,128.5 Z"/></g>
<g><path style="opacity:0.953" fill="#989a59" d="M 95.5,131.5 C 99.1981,131.552 102.865,131.886 106.5,132.5C 108,134.179 109.833,135.512 112,136.5C 112.464,137.094 112.631,137.761 112.5,138.5C 111.609,139.11 110.609,139.443 109.5,139.5C 106.4,136.79 102.733,135.457 98.5,135.5C 97.8826,135.611 97.3826,135.944 97,136.5C 96.7679,135.263 96.2679,134.263 95.5,133.5C 95.5,132.833 95.5,132.167 95.5,131.5 Z"/></g>
<g><path style="opacity:0.963" fill="#8ab071" d="M 80.5,126.5 C 80.5,127.167 80.5,127.833 80.5,128.5C 79.596,129.209 79.2627,130.209 79.5,131.5C 80.5,131.5 81.5,131.5 82.5,131.5C 76.24,135.098 70.5734,139.431 65.5,144.5C 63.5853,144.784 61.9187,144.451 60.5,143.5C 62.215,140.799 64.215,138.299 66.5,136C 71.2861,132.882 75.7861,129.382 80,125.5C 80.3988,125.728 80.5654,126.062 80.5,126.5 Z"/></g>
<g><path style="opacity:0.846" fill="#63b394" d="M 37.5,136.5 C 39.7772,137.449 41.7772,138.782 43.5,140.5C 39.8726,142.794 36.5393,145.46 33.5,148.5C 31.4602,146.823 29.4602,145.156 27.5,143.5C 28.404,142.791 28.7373,141.791 28.5,140.5C 31.6071,139.447 34.6071,138.114 37.5,136.5 Z"/></g>
<g><path style="opacity:0.945" fill="#98af67" d="M 82.5,131.5 C 86.8333,131.5 91.1667,131.5 95.5,131.5C 95.5,132.167 95.5,132.833 95.5,133.5C 89.9232,135.95 84.2566,138.45 78.5,141C 76.576,142.75 74.9093,144.583 73.5,146.5C 72.5,146.5 71.5,146.5 70.5,146.5C 68.302,146.88 66.6354,146.213 65.5,144.5C 70.5734,139.431 76.24,135.098 82.5,131.5 Z"/></g>
<g><path style="opacity:0.808" fill="#8d8659" d="M 123.5,136.5 C 127.156,139.152 130.823,141.819 134.5,144.5C 133.205,145.488 131.872,146.488 130.5,147.5C 129.206,146.71 128.039,145.71 127,144.5C 126.667,144.833 126.333,145.167 126,145.5C 124.5,143.333 123,141.167 121.5,139C 122.056,138.617 122.389,138.117 122.5,137.5C 122.5,136.833 122.833,136.5 123.5,136.5 Z"/></g>
<g><path style="opacity:0.801" fill="#837f5e" d="M 131.5,129.5 C 134.917,132.161 138.25,134.828 141.5,137.5C 139.5,140.167 137.167,142.5 134.5,144.5C 130.823,141.819 127.156,139.152 123.5,136.5C 126.126,134.177 128.793,131.843 131.5,129.5 Z"/></g>
<g><path style="opacity:0.949" fill="#b1d5be" d="M 48.5,138.5 C 48.8333,138.5 49.1667,138.5 49.5,138.5C 50.5,138.833 51.1667,139.5 51.5,140.5C 49.9731,140.573 48.9731,139.906 48.5,138.5 Z"/></g>
<g><path style="opacity:0.957" fill="#a3ab5a" d="M 95.5,133.5 C 96.2679,134.263 96.7679,135.263 97,136.5C 97.3826,135.944 97.8826,135.611 98.5,135.5C 99.5,138.167 100.5,140.833 101.5,143.5C 100.508,143.328 99.8417,143.662 99.5,144.5C 90.9241,146.142 82.2574,146.809 73.5,146.5C 74.9093,144.583 76.576,142.75 78.5,141C 84.2566,138.45 89.9232,135.95 95.5,133.5 Z"/></g>
<g><path style="opacity:0.942" fill="#a29f57" d="M 98.5,135.5 C 102.733,135.457 106.4,136.79 109.5,139.5C 108.833,140.167 108.167,140.833 107.5,141.5C 105.421,141.971 103.421,142.637 101.5,143.5C 100.5,140.833 99.5,138.167 98.5,135.5 Z"/></g>
<g><path style="opacity:0.949" fill="#b8d6bc" d="M 52.5,140.5 C 53.1667,140.5 53.8333,140.5 54.5,140.5C 54.8333,141.167 55.1667,141.833 55.5,142.5C 53.9731,142.573 52.9731,141.906 52.5,140.5 Z"/></g>
<g><path style="opacity:0.788" fill="#978e57" d="M 122.5,137.5 C 122.389,138.117 122.056,138.617 121.5,139C 123,141.167 124.5,143.333 126,145.5C 126.333,145.167 126.667,144.833 127,144.5C 128.039,145.71 129.206,146.71 130.5,147.5C 129.101,148.89 127.434,149.89 125.5,150.5C 123.031,147.856 120.698,145.023 118.5,142C 117.552,141.517 116.552,141.351 115.5,141.5C 117.663,139.917 119.996,138.584 122.5,137.5 Z"/></g>
<g><path style="opacity:0.812" fill="#6db38b" d="M 43.5,140.5 C 45.3684,141.263 47.0351,142.263 48.5,143.5C 45.1485,145.854 42.4819,148.854 40.5,152.5C 38.0313,151.431 35.6979,150.098 33.5,148.5C 36.5393,145.46 39.8726,142.794 43.5,140.5 Z"/></g>
<g><path style="opacity:0.984" fill="#dddbbc" d="M 107.5,141.5 C 105.383,143.655 102.716,144.655 99.5,144.5C 99.8417,143.662 100.508,143.328 101.5,143.5C 103.421,142.637 105.421,141.971 107.5,141.5 Z"/></g>
<g><path style="opacity:0.89" fill="#c0b87f" d="M 111.5,143.5 C 111.5,143.833 111.5,144.167 111.5,144.5C 109.321,145.677 106.987,146.677 104.5,147.5C 102.958,148.301 101.292,148.634 99.5,148.5C 103.261,146.462 107.261,144.796 111.5,143.5 Z"/></g>
<g><path style="opacity:0.786" fill="#78b481" d="M 48.5,143.5 C 50.5739,144.514 52.5739,145.514 54.5,146.5C 50.669,148.516 48.0023,151.516 46.5,155.5C 44.1815,155.008 42.1815,154.008 40.5,152.5C 42.4819,148.854 45.1485,145.854 48.5,143.5 Z"/></g>
<g><path style="opacity:0.965" fill="#cbdcbd" d="M 56.5,146.5 C 60.1621,146.723 63.4954,147.723 66.5,149.5C 65.5,149.5 64.5,149.5 63.5,149.5C 62.2921,148.766 60.9587,148.433 59.5,148.5C 58.5,147.833 57.5,147.167 56.5,146.5 Z"/></g>
<g><path style="opacity:0.953" fill="#d1d4a7" d="M 99.5,144.5 C 97.1234,145.887 94.4568,146.721 91.5,147C 84.3209,147.821 77.3209,147.655 70.5,146.5C 71.5,146.5 72.5,146.5 73.5,146.5C 82.2574,146.809 90.9241,146.142 99.5,144.5 Z"/></g>
<g><path style="opacity:0.845" fill="#a99c4d" d="M 111.5,144.5 C 114.863,147.522 118.53,150.188 122.5,152.5C 120.151,154.341 117.485,155.674 114.5,156.5C 110.789,153.968 107.456,150.968 104.5,147.5C 106.987,146.677 109.321,145.677 111.5,144.5 Z"/></g>
<g><path style="opacity:0.815" fill="#9f9453" d="M 115.5,141.5 C 116.552,141.351 117.552,141.517 118.5,142C 120.698,145.023 123.031,147.856 125.5,150.5C 125.027,151.906 124.027,152.573 122.5,152.5C 118.53,150.188 114.863,147.522 111.5,144.5C 111.5,144.167 111.5,143.833 111.5,143.5C 112.514,142.326 113.847,141.66 115.5,141.5 Z"/></g>
<g><path style="opacity:0.796" fill="#84b377" d="M 54.5,146.5 C 55.1667,146.5 55.8333,146.5 56.5,146.5C 57.5,147.167 58.5,147.833 59.5,148.5C 56.2806,151.264 53.2806,154.264 50.5,157.5C 48.847,157.34 47.5137,156.674 46.5,155.5C 48.0023,151.516 50.669,148.516 54.5,146.5 Z"/></g>
<g><path style="opacity:0.769" fill="#90b36d" d="M 59.5,148.5 C 60.9587,148.433 62.2921,148.766 63.5,149.5C 61.9464,153.386 59.6131,156.719 56.5,159.5C 54.2143,159.405 52.2143,158.738 50.5,157.5C 53.2806,154.264 56.2806,151.264 59.5,148.5 Z"/></g>
<g><path style="opacity:0.749" fill="#9db362" d="M 63.5,149.5 C 64.5,149.5 65.5,149.5 66.5,149.5C 67.5676,150.434 68.901,150.768 70.5,150.5C 68.078,154.344 65.4113,158.01 62.5,161.5C 60.2143,161.405 58.2143,160.738 56.5,159.5C 59.6131,156.719 61.9464,153.386 63.5,149.5 Z"/></g>
<g><path style="opacity:0.91" fill="#c7cc90" d="M 66.5,149.5 C 73.485,150.089 80.485,150.422 87.5,150.5C 85.0521,151.473 82.3854,151.806 79.5,151.5C 76.4299,151.632 73.4299,151.299 70.5,150.5C 68.901,150.768 67.5676,150.434 66.5,149.5 Z"/></g>
<g><path style="opacity:0.819" fill="#a9b358" d="M 70.5,150.5 C 73.4299,151.299 76.4299,151.632 79.5,151.5C 75.614,154.93 71.9473,158.597 68.5,162.5C 66.3792,162.675 64.3792,162.341 62.5,161.5C 65.4113,158.01 68.078,154.344 70.5,150.5 Z"/></g>
<g><path style="opacity:0.799" fill="#b6b14d" d="M 87.5,150.5 C 88.5,150.5 89.5,150.5 90.5,150.5C 91.3847,153.061 92.7181,155.394 94.5,157.5C 91.4781,157.804 88.4781,158.304 85.5,159C 87.9011,159.805 87.7344,160.638 85,161.5C 82.8921,160.388 81.3921,161.054 80.5,163.5C 76.5,163.5 72.5,163.5 68.5,163.5C 68.5,163.167 68.5,162.833 68.5,162.5C 71.9473,158.597 75.614,154.93 79.5,151.5C 82.3854,151.806 85.0521,151.473 87.5,150.5 Z"/></g>
<g><path style="opacity:0.845" fill="#b5a849" d="M 104.5,147.5 C 107.456,150.968 110.789,153.968 114.5,156.5C 111.203,158.601 107.537,159.935 103.5,160.5C 101.616,160.288 100.283,159.288 99.5,157.5C 97.7853,157.596 96.1186,157.596 94.5,157.5C 92.7181,155.394 91.3847,153.061 90.5,150.5C 93.5394,149.99 96.5394,149.323 99.5,148.5C 101.292,148.634 102.958,148.301 104.5,147.5 Z"/></g>
<g><path style="opacity:0.747" fill="#bdaf46" d="M 94.5,157.5 C 96.1186,157.596 97.7853,157.596 99.5,157.5C 100.283,159.288 101.616,160.288 103.5,160.5C 100.535,161.626 97.5349,162.626 94.5,163.5C 89.8333,163.5 85.1667,163.5 80.5,163.5C 81.3921,161.054 82.8921,160.388 85,161.5C 87.7344,160.638 87.9011,159.805 85.5,159C 88.4781,158.304 91.4781,157.804 94.5,157.5 Z"/></g>
</svg>
