<?xml version="1.0" encoding="UTF-8"?>
<!DOCTYPE svg PUBLIC "-//W3C//DTD SVG 1.1//EN" "http://www.w3.org/Graphics/SVG/1.1/DTD/svg11.dtd">
<svg xmlns="http://www.w3.org/2000/svg" version="1.1" width="64px" height="64px" style="shape-rendering:geometricPrecision; text-rendering:geometricPrecision; image-rendering:optimizeQuality; fill-rule:evenodd; clip-rule:evenodd" xmlns:xlink="http://www.w3.org/1999/xlink">
<g><path style="opacity:1" fill="#fbfefc" d="M -0.5,-0.5 C 8.16667,-0.5 16.8333,-0.5 25.5,-0.5C 18.5612,1.72514 12.3945,5.39181 7,10.5C 6.67533,12.5527 7.00867,14.5527 8,16.5C 9.25152,18.0009 10.2515,19.6675 11,21.5C 11.4994,26.8229 11.666,32.1563 11.5,37.5C 9.71493,32.9325 8.8816,27.9325 9,22.5C 7.5,20.1667 6,17.8333 4.5,15.5C 2.23415,18.9935 0.567485,22.6602 -0.5,26.5C -0.5,17.5 -0.5,8.5 -0.5,-0.5 Z"/></g>
<g><path style="opacity:1" fill="#fcfefd" d="M 37.5,-0.5 C 46.1667,-0.5 54.8333,-0.5 63.5,-0.5C 63.5,8.16667 63.5,16.8333 63.5,25.5C 59.8333,11.8333 51.1667,3.16667 37.5,-0.5 Z"/></g>
<g><path style="opacity:1" fill="#0fa94d" d="M 25.5,-0.5 C 29.5,-0.5 33.5,-0.5 37.5,-0.5C 51.1667,3.16667 59.8333,11.8333 63.5,25.5C 63.5,29.5 63.5,33.5 63.5,37.5C 62.5309,39.663 61.6976,41.9963 61,44.5C 57.9209,40.6756 55.0876,36.6756 52.5,32.5C 55.8003,27.1006 54.3003,24.1006 48,23.5C 46.6153,23.5143 45.4486,23.8476 44.5,24.5C 43.0818,27.0204 42.0818,29.6871 41.5,32.5C 41.6686,25.0617 38.0019,22.0617 30.5,23.5C 30.5,28.1667 30.5,32.8333 30.5,37.5C 29.8337,33.9792 29.1671,30.3125 28.5,26.5C 28.2129,27.2003 27.8795,27.8669 27.5,28.5C 24.8787,23.9687 20.8787,22.302 15.5,23.5C 15.5,24.5 15.5,25.5 15.5,26.5C 14.6805,29.3054 14.1805,32.3054 14,35.5C 13.2917,36.3805 12.4584,37.0472 11.5,37.5C 11.666,32.1563 11.4994,26.8229 11,21.5C 10.2515,19.6675 9.25152,18.0009 8,16.5C 7.00867,14.5527 6.67533,12.5527 7,10.5C 12.3945,5.39181 18.5612,1.72514 25.5,-0.5 Z"/></g>
<g><path style="opacity:1" fill="#0ca94c" d="M 11.5,37.5 C 12.4584,37.0472 13.2917,36.3805 14,35.5C 14.1805,32.3054 14.6805,29.3054 15.5,26.5C 15.5,30.1667 15.5,33.8333 15.5,37.5C 22.9179,38.81 26.9179,35.81 27.5,28.5C 27.8795,27.8669 28.2129,27.2003 28.5,26.5C 29.1671,30.3125 29.8337,33.9792 30.5,37.5C 35.4971,38.2969 39.1637,36.6302 41.5,32.5C 42.0818,29.6871 43.0818,27.0204 44.5,24.5C 44.5,28.8333 44.5,33.1667 44.5,37.5C 45.5,37.5 46.5,37.5 47.5,37.5C 47.2148,35.712 47.5481,34.0453 48.5,32.5C 51.8281,36.6695 54.9948,41.0028 58,45.5C 57.6949,51.1781 54.8616,55.3448 49.5,58C 45.439,60.7345 41.1057,62.5679 36.5,63.5C 33.1667,63.5 29.8333,63.5 26.5,63.5C 12.1793,59.846 3.17933,50.846 -0.5,36.5C -0.5,33.1667 -0.5,29.8333 -0.5,26.5C 0.567485,22.6602 2.23415,18.9935 4.5,15.5C 6,17.8333 7.5,20.1667 9,22.5C 8.8816,27.9325 9.71493,32.9325 11.5,37.5 Z"/></g>
<g><path style="opacity:1" fill="#f7fdf9" d="M 27.5,28.5 C 26.9179,35.81 22.9179,38.81 15.5,37.5C 15.5,33.8333 15.5,30.1667 15.5,26.5C 15.5,25.5 15.5,24.5 15.5,23.5C 20.8787,22.302 24.8787,23.9687 27.5,28.5 Z"/></g>
<g><path style="opacity:1" fill="#0ea84c" d="M 18.5,26.5 C 24.4685,26.6049 25.8018,29.1049 22.5,34C 21.2068,34.49 19.8734,34.6567 18.5,34.5C 18.5,31.8333 18.5,29.1667 18.5,26.5 Z"/></g>
<g><path style="opacity:1" fill="#f7fdfa" d="M 41.5,32.5 C 39.1637,36.6302 35.4971,38.2969 30.5,37.5C 30.5,32.8333 30.5,28.1667 30.5,23.5C 38.0019,22.0617 41.6686,25.0617 41.5,32.5 Z"/></g>
<g><path style="opacity:1" fill="#13a84c" d="M 32.5,26.5 C 38.62,26.2591 40.2867,28.7591 37.5,34C 35.8659,34.4935 34.1992,34.6602 32.5,34.5C 32.5,31.8333 32.5,29.1667 32.5,26.5 Z"/></g>
<g><path style="opacity:1" fill="#fbfefc" d="M -0.5,36.5 C 3.17933,50.846 12.1793,59.846 26.5,63.5C 17.5,63.5 8.5,63.5 -0.5,63.5C -0.5,54.5 -0.5,45.5 -0.5,36.5 Z"/></g>
<g><path style="opacity:1" fill="#fbfefc" d="M 63.5,37.5 C 63.5,46.1667 63.5,54.8333 63.5,63.5C 54.5,63.5 45.5,63.5 36.5,63.5C 41.1057,62.5679 45.439,60.7345 49.5,58C 54.8616,55.3448 57.6949,51.1781 58,45.5C 54.9948,41.0028 51.8281,36.6695 48.5,32.5C 47.5481,34.0453 47.2148,35.712 47.5,37.5C 46.5,37.5 45.5,37.5 44.5,37.5C 44.5,33.1667 44.5,28.8333 44.5,24.5C 45.4486,23.8476 46.6153,23.5143 48,23.5C 54.3003,24.1006 55.8003,27.1006 52.5,32.5C 55.0876,36.6756 57.9209,40.6756 61,44.5C 61.6976,41.9963 62.5309,39.663 63.5,37.5 Z"/></g>
<g><path style="opacity:1" fill="#13a44e" d="M 47.5,26.5 C 48.8333,26.5 50.1667,26.5 51.5,26.5C 51.8333,29.5 50.5,30.8333 47.5,30.5C 47.5,29.1667 47.5,27.8333 47.5,26.5 Z"/></g>
</svg>
