<?xml version="1.0" encoding="UTF-8"?>
<!DOCTYPE svg PUBLIC "-//W3C//DTD SVG 1.1//EN" "http://www.w3.org/Graphics/SVG/1.1/DTD/svg11.dtd">
<svg xmlns="http://www.w3.org/2000/svg" version="1.1" width="174px" height="174px" style="shape-rendering:geometricPrecision; text-rendering:geometricPrecision; image-rendering:optimizeQuality; fill-rule:evenodd; clip-rule:evenodd" xmlns:xlink="http://www.w3.org/1999/xlink">
<g><path style="opacity:0.907" fill="#7e808a" d="M 127.5,9.5 C 128.52,11.9684 130.354,13.635 133,14.5C 133.49,15.7932 133.657,17.1266 133.5,18.5C 112.573,5.3762 89.9066,1.54287 65.5,7C 38.6918,14.3185 20.3584,30.8185 10.5,56.5C 10.1667,58.5 9.83333,60.5 9.5,62.5C 8.17618,64.6541 6.34285,66.3207 4,67.5C 2.69882,66.9019 1.86549,65.9019 1.5,64.5C 12.111,30.0621 35.111,8.8954 70.5,1C 81.5,0.333333 92.5,0.333333 103.5,1C 112.058,2.35214 120.058,5.18548 127.5,9.5 Z"/></g>
<g><path style="opacity:1" fill="#7a7986" d="M 133.5,18.5 C 135.017,18.5106 136.184,19.1772 137,20.5C 137.744,22.8997 138.577,25.233 139.5,27.5C 139.631,28.2389 139.464,28.9056 139,29.5C 136.382,24.8837 132.549,21.717 127.5,20C 126.833,19 126.167,18 125.5,17C 96.8225,3.86723 68.8225,5.20057 41.5,21C 33.6551,27.1788 26.8218,34.3455 21,42.5C 20.5172,43.448 20.3505,44.448 20.5,45.5C 17.1383,49.1925 13.8049,52.8592 10.5,56.5C 20.3584,30.8185 38.6918,14.3185 65.5,7C 89.9066,1.54287 112.573,5.3762 133.5,18.5 Z"/></g>
<g><path style="opacity:0.999" fill="#81808d" d="M 139.5,27.5 C 140.404,28.209 140.737,29.209 140.5,30.5C 140.657,31.8734 140.49,33.2068 140,34.5C 137.833,32 135.667,29.5 133.5,27C 125.319,22.7435 116.986,18.7435 108.5,15C 93.5394,11.4059 78.8727,11.7392 64.5,16C 59.6043,17.9462 54.6043,19.6128 49.5,21C 44.7156,24.899 39.7156,28.5657 34.5,32C 33.6634,33.0113 33.33,34.1779 33.5,35.5C 30.4124,35.1966 28.7458,36.5299 28.5,39.5C 26.1162,41.8847 23.4495,43.8847 20.5,45.5C 20.3505,44.448 20.5172,43.448 21,42.5C 26.8218,34.3455 33.6551,27.1788 41.5,21C 68.8225,5.20057 96.8225,3.86723 125.5,17C 126.167,18 126.833,19 127.5,20C 132.549,21.717 136.382,24.8837 139,29.5C 139.464,28.9056 139.631,28.2389 139.5,27.5 Z"/></g>
<g><path style="opacity:0.994" fill="#888795" d="M 140.5,30.5 C 141.643,33.9758 141.81,37.6425 141,41.5C 140.583,40.244 139.75,39.5774 138.5,39.5C 128.868,27.1727 116.202,19.6727 100.5,17C 93.5644,16.0817 86.731,15.5817 80,15.5C 70.6419,17.641 61.4752,20.3076 52.5,23.5C 52.5,24.5 52.5,25.5 52.5,26.5C 50.9275,27.6873 49.2608,28.6873 47.5,29.5C 40.7195,32.0561 34.3862,35.3894 28.5,39.5C 28.7458,36.5299 30.4124,35.1966 33.5,35.5C 33.33,34.1779 33.6634,33.0113 34.5,32C 39.7156,28.5657 44.7156,24.899 49.5,21C 54.6043,19.6128 59.6043,17.9462 64.5,16C 78.8727,11.7392 93.5394,11.4059 108.5,15C 116.986,18.7435 125.319,22.7435 133.5,27C 135.667,29.5 137.833,32 140,34.5C 140.49,33.2068 140.657,31.8734 140.5,30.5 Z"/></g>
<g><path style="opacity:1" fill="#8e8c9b" d="M 138.5,39.5 C 139.491,41.4823 140.491,43.4823 141.5,45.5C 142.086,45.2907 142.586,44.9574 143,44.5C 143.667,47.1667 143.667,49.8333 143,52.5C 141.717,49.5594 140.05,46.8927 138,44.5C 132.536,40.279 127.536,35.6123 123,30.5C 121.293,31.1383 119.46,31.1383 117.5,30.5C 117.5,33.1667 117.5,35.8333 117.5,38.5C 115.821,38.2852 114.821,38.9519 114.5,40.5C 113.869,38.5522 112.869,36.7189 111.5,35C 98.8413,30.8841 85.8413,29.3841 72.5,30.5C 71.7611,30.631 71.0944,30.4643 70.5,30C 71.6405,29.2588 71.6405,28.4255 70.5,27.5C 71.376,26.7492 72.376,26.2492 73.5,26C 80.4371,24.8267 87.4371,24.16 94.5,24C 80.2921,21.5635 66.2921,22.3968 52.5,26.5C 52.5,25.5 52.5,24.5 52.5,23.5C 61.4752,20.3076 70.6419,17.641 80,15.5C 86.731,15.5817 93.5644,16.0817 100.5,17C 116.202,19.6727 128.868,27.1727 138.5,39.5 Z"/></g>
<g><path style="opacity:1" fill="#bbbac7" d="M 72.5,30.5 C 72.0472,31.4584 71.3805,32.2917 70.5,33C 63.708,34.0077 57.708,36.5077 52.5,40.5C 51.2652,40.7214 50.2652,41.3881 49.5,42.5C 48.914,42.2907 48.414,41.9574 48,41.5C 47.7216,42.4158 47.2216,43.0825 46.5,43.5C 46.5,42.8333 46.1667,42.5 45.5,42.5C 45.0831,41.8761 44.4164,41.5427 43.5,41.5C 40.8333,42.5 38.1667,43.5 35.5,44.5C 34.8333,44.1667 34.1667,43.8333 33.5,43.5C 34.0412,41.4648 34.7078,39.4648 35.5,37.5C 40.2211,34.4728 45.2211,31.9728 50.5,30C 49.552,29.5172 48.552,29.3505 47.5,29.5C 49.2608,28.6873 50.9275,27.6873 52.5,26.5C 66.2921,22.3968 80.2921,21.5635 94.5,24C 87.4371,24.16 80.4371,24.8267 73.5,26C 72.376,26.2492 71.376,26.7492 70.5,27.5C 71.6405,28.4255 71.6405,29.2588 70.5,30C 71.0944,30.4643 71.7611,30.631 72.5,30.5 Z"/></g>
<g><path style="opacity:1" fill="#ea9461" d="M 72.5,30.5 C 85.8413,29.3841 98.8413,30.8841 111.5,35C 112.869,36.7189 113.869,38.5522 114.5,40.5C 115.473,42.9479 115.806,45.6146 115.5,48.5C 113.095,45.2993 111.428,41.6326 110.5,37.5C 107.686,34.9466 104.353,33.4466 100.5,33C 91.8397,32.5002 83.1731,32.3336 74.5,32.5C 74.5,33.5 74.5,34.5 74.5,35.5C 79.8746,35.1718 85.2079,35.5052 90.5,36.5C 91.8262,37.6422 92.8262,38.9755 93.5,40.5C 92.8333,40.5 92.1667,40.5 91.5,40.5C 88.7074,38.0795 85.3741,37.0795 81.5,37.5C 72.8555,37.9761 64.3555,39.3094 56,41.5C 54.6153,41.4857 53.4486,41.1524 52.5,40.5C 57.708,36.5077 63.708,34.0077 70.5,33C 71.3805,32.2917 72.0472,31.4584 72.5,30.5 Z"/></g>
<g><path style="opacity:1" fill="#fb904d" d="M 115.5,48.5 C 115.881,57.5679 115.381,66.5679 114,75.5C 112.113,77.0261 111.113,79.0261 111,81.5C 110.667,79.1667 110.333,76.8333 110,74.5C 109.292,73.6195 108.458,72.9528 107.5,72.5C 105.463,71.1535 103.463,69.8202 101.5,68.5C 102.48,60.0131 101.146,52.0131 97.5,44.5C 96.4822,43.8075 95.4822,43.1408 94.5,42.5C 94.1667,41.8333 93.8333,41.1667 93.5,40.5C 92.8262,38.9755 91.8262,37.6422 90.5,36.5C 85.2079,35.5052 79.8746,35.1718 74.5,35.5C 74.5,34.5 74.5,33.5 74.5,32.5C 83.1731,32.3336 91.8397,32.5002 100.5,33C 104.353,33.4466 107.686,34.9466 110.5,37.5C 111.428,41.6326 113.095,45.2993 115.5,48.5 Z"/></g>
<g><path style="opacity:0.982" fill="#9596a5" d="M 127.5,9.5 C 135.397,12.927 140.231,18.927 142,27.5C 142.861,32.9399 144.028,38.2733 145.5,43.5C 144.848,44.4486 144.514,45.6153 144.5,47C 144.307,49.0081 144.974,50.5081 146.5,51.5C 146.5,55.1667 146.5,58.8333 146.5,62.5C 145.962,64.1172 145.629,65.7839 145.5,67.5C 144.5,67.5 143.5,67.5 142.5,67.5C 142.5,73.1667 142.5,78.8333 142.5,84.5C 142.167,84.5 141.833,84.5 141.5,84.5C 143.001,71.9723 140.834,60.3056 135,49.5C 130.641,44.4781 125.641,40.1448 120,36.5C 121.005,42.5277 121.505,48.6943 121.5,55C 121.499,59.3472 121.166,63.5139 120.5,67.5C 121.191,57.6105 120.191,47.9438 117.5,38.5C 117.5,35.8333 117.5,33.1667 117.5,30.5C 119.46,31.1383 121.293,31.1383 123,30.5C 127.536,35.6123 132.536,40.279 138,44.5C 140.05,46.8927 141.717,49.5594 143,52.5C 143.667,49.8333 143.667,47.1667 143,44.5C 142.586,44.9574 142.086,45.2907 141.5,45.5C 140.491,43.4823 139.491,41.4823 138.5,39.5C 139.75,39.5774 140.583,40.244 141,41.5C 141.81,37.6425 141.643,33.9758 140.5,30.5C 140.737,29.209 140.404,28.209 139.5,27.5C 138.577,25.233 137.744,22.8997 137,20.5C 136.184,19.1772 135.017,18.5106 133.5,18.5C 133.657,17.1266 133.49,15.7932 133,14.5C 130.354,13.635 128.52,11.9684 127.5,9.5 Z"/></g>
<g><path style="opacity:0.996" fill="#7c7d88" d="M 173.5,70.5 C 173.5,81.8333 173.5,93.1667 173.5,104.5C 167.486,129.688 153.486,149.188 131.5,163C 127.116,165.208 122.449,166.041 117.5,165.5C 118.706,164.12 118.373,162.953 116.5,162C 115.167,161.667 113.833,161.333 112.5,161C 116.656,160.586 120.656,159.586 124.5,158C 128.669,154.75 133.002,151.75 137.5,149C 140.306,144.861 143.806,141.361 148,138.5C 163.54,118.007 169.206,95.0073 165,69.5C 162.434,62.6099 159.601,55.9433 156.5,49.5C 154.251,43.9268 152.084,38.2601 150,32.5C 148.871,30.8588 147.371,29.8588 145.5,29.5C 143.744,25.4186 145.077,23.9186 149.5,25C 161.349,38.1997 169.349,53.3664 173.5,70.5 Z"/></g>
<g><path style="opacity:1" fill="#2f2a71" d="M 117.5,38.5 C 120.191,47.9438 121.191,57.6105 120.5,67.5C 120.5,67.8333 120.5,68.1667 120.5,68.5C 120.167,68.5 119.833,68.5 119.5,68.5C 118.833,62.8333 118.167,57.1667 117.5,51.5C 116.833,50.5 116.167,49.5 115.5,48.5C 115.806,45.6146 115.473,42.9479 114.5,40.5C 114.821,38.9519 115.821,38.2852 117.5,38.5 Z"/></g>
<g><path style="opacity:0.907" fill="#dbdbe2" d="M 47.5,29.5 C 48.552,29.3505 49.552,29.5172 50.5,30C 45.2211,31.9728 40.2211,34.4728 35.5,37.5C 34.7078,39.4648 34.0412,41.4648 33.5,43.5C 34.1667,43.8333 34.8333,44.1667 35.5,44.5C 38.1667,43.5 40.8333,42.5 43.5,41.5C 44.4164,41.5427 45.0831,41.8761 45.5,42.5C 45.6716,43.4916 45.3382,44.1583 44.5,44.5C 44.1667,43.1667 43.8333,43.1667 43.5,44.5C 43.0269,45.9063 42.0269,46.573 40.5,46.5C 39.5,45.1667 38.5,45.1667 37.5,46.5C 27.5427,50.8099 18.2094,56.1432 9.5,62.5C 9.83333,60.5 10.1667,58.5 10.5,56.5C 13.8049,52.8592 17.1383,49.1925 20.5,45.5C 23.4495,43.8847 26.1162,41.8847 28.5,39.5C 34.3862,35.3894 40.7195,32.0561 47.5,29.5 Z"/></g>
<g><path style="opacity:1" fill="#aeacbd" d="M 91.5,40.5 C 91.2914,41.9217 90.7914,43.255 90,44.5C 88.1873,44.4066 86.3539,44.0733 84.5,43.5C 76.9225,45.3036 69.5891,47.8036 62.5,51C 58.3333,53.8333 54.8333,57.3333 52,61.5C 51.0617,63.4885 50.2283,65.4885 49.5,67.5C 48.0695,67.5792 46.7362,67.2458 45.5,66.5C 43.1443,68.69 40.6443,70.69 38,72.5C 37.8333,72.1667 37.6667,71.8333 37.5,71.5C 38.8882,66.9033 40.7215,62.5699 43,58.5C 46.7531,55.0393 50.2531,51.3726 53.5,47.5C 50.4985,47.1301 48.1652,45.7968 46.5,43.5C 47.2216,43.0825 47.7216,42.4158 48,41.5C 48.414,41.9574 48.914,42.2907 49.5,42.5C 50.2652,41.3881 51.2652,40.7214 52.5,40.5C 53.4486,41.1524 54.6153,41.4857 56,41.5C 64.3555,39.3094 72.8555,37.9761 81.5,37.5C 85.3741,37.0795 88.7074,38.0795 91.5,40.5 Z"/></g>
<g><path style="opacity:0.988" fill="#9e9ead" d="M 45.5,42.5 C 46.1667,42.5 46.5,42.8333 46.5,43.5C 48.1652,45.7968 50.4985,47.1301 53.5,47.5C 50.2531,51.3726 46.7531,55.0393 43,58.5C 40.7215,62.5699 38.8882,66.9033 37.5,71.5C 37.6667,71.8333 37.8333,72.1667 38,72.5C 40.6443,70.69 43.1443,68.69 45.5,66.5C 46.7362,67.2458 48.0695,67.5792 49.5,67.5C 51.1667,67.5 52.8333,67.5 54.5,67.5C 53.791,68.404 52.791,68.7373 51.5,68.5C 49.8333,68.5 48.1667,68.5 46.5,68.5C 46.5,69.8333 46.5,71.1667 46.5,72.5C 42.9673,73.374 39.634,74.7073 36.5,76.5C 35.6307,72.6261 33.2974,69.9594 29.5,68.5C 25.7016,67.5166 21.7016,67.1832 17.5,67.5C 17.6678,64.316 16.3345,63.816 13.5,66C 11.241,69.4288 8.24096,71.9288 4.5,73.5C 13.8468,62.3469 24.8468,53.3469 37.5,46.5C 38.5,46.5 39.5,46.5 40.5,46.5C 42.0269,46.573 43.0269,45.9063 43.5,44.5C 43.8333,44.5 44.1667,44.5 44.5,44.5C 45.3382,44.1583 45.6716,43.4916 45.5,42.5 Z"/></g>
<g><path style="opacity:1" fill="#c4c3d1" d="M 91.5,40.5 C 92.1667,40.5 92.8333,40.5 93.5,40.5C 93.8333,41.1667 94.1667,41.8333 94.5,42.5C 96.721,46.3978 98.3876,50.5645 99.5,55C 99.204,56.8882 98.704,58.7216 98,60.5C 96.9326,59.8095 95.7659,59.3095 94.5,59C 89.1667,58.3333 83.8333,58.3333 78.5,59C 75.1797,59.8122 74.1797,61.6455 75.5,64.5C 74.0115,63.0615 72.1782,62.3948 70,62.5C 64.5969,63.6381 59.4302,65.3048 54.5,67.5C 52.8333,67.5 51.1667,67.5 49.5,67.5C 50.2283,65.4885 51.0617,63.4885 52,61.5C 54.8333,57.3333 58.3333,53.8333 62.5,51C 69.5891,47.8036 76.9225,45.3036 84.5,43.5C 86.3539,44.0733 88.1873,44.4066 90,44.5C 90.7914,43.255 91.2914,41.9217 91.5,40.5 Z"/></g>
<g><path style="opacity:0.996" fill="#81818e" d="M 156.5,49.5 C 159.601,55.9433 162.434,62.6099 165,69.5C 169.206,95.0073 163.54,118.007 148,138.5C 143.806,141.361 140.306,144.861 137.5,149C 133.002,151.75 128.669,154.75 124.5,158C 120.656,159.586 116.656,160.586 112.5,161C 113.833,161.333 115.167,161.667 116.5,162C 118.373,162.953 118.706,164.12 117.5,165.5C 113.279,165.314 109.279,164.314 105.5,162.5C 104.64,160.386 102.973,159.22 100.5,159C 111.158,156.672 121.158,152.672 130.5,147C 133.523,143.397 136.69,139.897 140,136.5C 140.333,136.833 140.667,137.167 141,137.5C 147.027,129.961 152.194,121.794 156.5,113C 156.167,112.667 155.833,112.333 155.5,112C 157.219,110.13 158.219,107.963 158.5,105.5C 156.943,104.132 154.609,103.132 151.5,102.5C 153.5,102.5 155.5,102.5 157.5,102.5C 157.5,100.833 157.5,99.1667 157.5,97.5C 154.167,97.5 150.833,97.5 147.5,97.5C 147.5,87.8333 147.5,78.1667 147.5,68.5C 148.494,77.6517 148.827,86.985 148.5,96.5C 150.467,96.7394 152.301,96.4061 154,95.5C 157.549,80.3173 158.383,64.984 156.5,49.5 Z"/></g>
<g><path style="opacity:0.997" fill="#82818d" d="M 29.5,68.5 C 25.5,68.5 21.5,68.5 17.5,68.5C 17.5,79.8333 17.5,91.1667 17.5,102.5C 22.2142,102.647 26.8809,102.314 31.5,101.5C 33.7335,108.543 36.7335,115.21 40.5,121.5C 38.5487,120.718 37.0487,119.384 36,117.5C 35.6667,118.167 35.3333,118.833 35,119.5C 34.3292,118.748 33.4959,118.414 32.5,118.5C 31.3052,116.249 30.3052,113.915 29.5,111.5C 27.7647,104.168 23.098,101.668 15.5,104C 16.5,106.333 17.5,108.667 18.5,111C 18.1667,111.333 17.8333,111.667 17.5,112C 18.8256,114.646 20.4923,116.979 22.5,119C 21.4092,121.818 21.4092,124.651 22.5,127.5C 19.1529,122.471 16.3196,117.138 14,111.5C 13.645,107.649 12.9784,103.649 12,99.5C 10.7792,98.2259 9.94585,96.7259 9.5,95C 10.7826,92.1516 10.7826,89.3182 9.5,86.5C 10.1062,84.2906 10.7728,82.124 11.5,80C 11.1667,79.6667 10.8333,79.3333 10.5,79C 12.4439,76.8471 12.9439,74.3471 12,71.5C 11.7216,72.4158 11.2216,73.0825 10.5,73.5C 10.44,72.9569 10.1067,72.6236 9.5,72.5C 7.92878,74.415 5.92878,75.415 3.5,75.5C 3.91176,77.9726 2.91176,79.3059 0.5,79.5C 1.3507,77.1184 2.68403,75.1184 4.5,73.5C 8.24096,71.9288 11.241,69.4288 13.5,66C 16.3345,63.816 17.6678,64.316 17.5,67.5C 21.7016,67.1832 25.7016,67.5166 29.5,68.5 Z"/></g>
<g><path style="opacity:1" fill="#423a74" d="M 75.5,64.5 C 75.5,64.8333 75.5,65.1667 75.5,65.5C 72.8127,65.3359 70.146,65.5026 67.5,66C 65.3474,66.0995 63.6808,66.9328 62.5,68.5C 62.1667,68.5 61.8333,68.5 61.5,68.5C 59.4471,68.4021 57.7804,69.0687 56.5,70.5C 55.1667,70.8333 53.8333,71.1667 52.5,71.5C 51.596,70.791 51.2627,69.791 51.5,68.5C 52.791,68.7373 53.791,68.404 54.5,67.5C 59.4302,65.3048 64.5969,63.6381 70,62.5C 72.1782,62.3948 74.0115,63.0615 75.5,64.5 Z"/></g>
<g><path style="opacity:1" fill="#aa6d56" d="M 75.5,65.5 C 76.8333,66.5 76.8333,67.5 75.5,68.5C 71.1667,68.5 66.8333,68.5 62.5,68.5C 63.6808,66.9328 65.3474,66.0995 67.5,66C 70.146,65.5026 72.8127,65.3359 75.5,65.5 Z"/></g>
<g><path style="opacity:1" fill="#adacbc" d="M 141.5,84.5 C 139.256,88.7932 137.923,93.4599 137.5,98.5C 135.521,102.03 133.688,105.696 132,109.5C 128.846,112.512 125.346,114.845 121.5,116.5C 114.286,116.594 107.619,114.761 101.5,111C 108.865,109.174 111.865,104.674 110.5,97.5C 111.578,94.7931 112.578,92.1264 113.5,89.5C 111.901,89.7678 110.568,89.4345 109.5,88.5C 110.5,87.8333 111.5,87.1667 112.5,86.5C 113.209,87.404 114.209,87.7373 115.5,87.5C 114.689,92.4674 114.022,97.4674 113.5,102.5C 115.5,102.5 117.5,102.5 119.5,102.5C 119.5,101.167 119.5,99.8333 119.5,98.5C 121.833,98.5 124.167,98.5 126.5,98.5C 126.5,99.8333 126.5,101.167 126.5,102.5C 128.167,102.5 129.833,102.5 131.5,102.5C 132.641,99.3601 132.808,96.0267 132,92.5C 131.021,85.5769 129.521,78.9102 127.5,72.5C 127.5,71.1667 127.5,69.8333 127.5,68.5C 125.167,68.5 122.833,68.5 120.5,68.5C 120.5,68.1667 120.5,67.8333 120.5,67.5C 121.166,63.5139 121.499,59.3472 121.5,55C 121.505,48.6943 121.005,42.5277 120,36.5C 125.641,40.1448 130.641,44.4781 135,49.5C 140.834,60.3056 143.001,71.9723 141.5,84.5 Z"/></g>
<g><path style="opacity:1" fill="#d3d4dd" d="M 145.5,29.5 C 147.371,29.8588 148.871,30.8588 150,32.5C 152.084,38.2601 154.251,43.9268 156.5,49.5C 158.383,64.984 157.549,80.3173 154,95.5C 152.301,96.4061 150.467,96.7394 148.5,96.5C 148.827,86.985 148.494,77.6517 147.5,68.5C 147.158,67.6618 146.492,67.3284 145.5,67.5C 145.629,65.7839 145.962,64.1172 146.5,62.5C 147.799,56.9006 147.799,53.234 146.5,51.5C 144.974,50.5081 144.307,49.0081 144.5,47C 144.514,45.6153 144.848,44.4486 145.5,43.5C 146.774,41.5842 146.774,36.9175 145.5,29.5 Z"/></g>
<g><path style="opacity:1" fill="#0e0b0e" d="M 29.5,68.5 C 33.2974,69.9594 35.6307,72.6261 36.5,76.5C 35.7093,78.6907 35.7093,80.6907 36.5,82.5C 35.645,83.5307 34.9783,84.6974 34.5,86C 37.646,91.9851 36.646,97.1518 31.5,101.5C 26.8809,102.314 22.2142,102.647 17.5,102.5C 17.5,91.1667 17.5,79.8333 17.5,68.5C 21.5,68.5 25.5,68.5 29.5,68.5 Z"/></g>
<g><path style="opacity:1" fill="#080407" d="M 51.5,68.5 C 51.2627,69.791 51.596,70.791 52.5,71.5C 52.5,71.8333 52.5,72.1667 52.5,72.5C 51.5062,81.9856 51.1729,91.6522 51.5,101.5C 50.1667,101.5 48.8333,101.5 47.5,101.5C 47.8261,92.9832 47.4927,84.6499 46.5,76.5C 45.8333,76.5 45.1667,76.5 44.5,76.5C 45.8062,75.5326 46.4729,74.1993 46.5,72.5C 46.5,71.1667 46.5,69.8333 46.5,68.5C 48.1667,68.5 49.8333,68.5 51.5,68.5 Z"/></g>
<g><path style="opacity:1" fill="#110e0e" d="M 61.5,68.5 C 61.8333,68.5 62.1667,68.5 62.5,68.5C 66.8333,68.5 71.1667,68.5 75.5,68.5C 76.8333,68.5 78.1667,68.5 79.5,68.5C 79.5,70.1667 79.5,71.8333 79.5,73.5C 77.5,73.5 75.5,73.5 73.5,73.5C 73.5,83.1667 73.5,92.8333 73.5,102.5C 71.5,102.5 69.5,102.5 67.5,102.5C 67.5,95.5 67.5,88.5 67.5,81.5C 67.5,78.8333 67.5,76.1667 67.5,73.5C 65.5,73.5 63.5,73.5 61.5,73.5C 61.5,71.8333 61.5,70.1667 61.5,68.5 Z"/></g>
<g><path style="opacity:1" fill="#454546" d="M 88.5,68.5 C 88.8333,68.5 89.1667,68.5 89.5,68.5C 89.5,79.5 89.5,90.5 89.5,101.5C 90.8333,101.5 92.1667,101.5 93.5,101.5C 93.1832,97.2984 93.5166,93.2984 94.5,89.5C 94.5,93.8333 94.5,98.1667 94.5,102.5C 92.5,102.5 90.5,102.5 88.5,102.5C 88.5,91.1667 88.5,79.8333 88.5,68.5 Z"/></g>
<g><path style="opacity:1" fill="#100c0c" d="M 89.5,68.5 C 93.5,68.5 97.5,68.5 101.5,68.5C 103.463,69.8202 105.463,71.1535 107.5,72.5C 108.038,77.4671 107.371,82.1338 105.5,86.5C 102.332,89.0561 98.6656,90.0561 94.5,89.5C 93.5166,93.2984 93.1832,97.2984 93.5,101.5C 92.1667,101.5 90.8333,101.5 89.5,101.5C 89.5,90.5 89.5,79.5 89.5,68.5 Z"/></g>
<g><path style="opacity:1" fill="#131215" d="M 119.5,68.5 C 119.833,68.5 120.167,68.5 120.5,68.5C 122.833,68.5 125.167,68.5 127.5,68.5C 127.5,69.8333 127.5,71.1667 127.5,72.5C 129.051,82.4717 130.384,92.4717 131.5,102.5C 129.833,102.5 128.167,102.5 126.5,102.5C 126.5,101.167 126.5,99.8333 126.5,98.5C 124.167,98.5 121.833,98.5 119.5,98.5C 119.5,99.8333 119.5,101.167 119.5,102.5C 117.5,102.5 115.5,102.5 113.5,102.5C 114.022,97.4674 114.689,92.4674 115.5,87.5C 117.085,81.241 118.419,74.9077 119.5,68.5 Z"/></g>
<g><path style="opacity:1" fill="#0b090b" d="M 145.5,67.5 C 146.492,67.3284 147.158,67.6618 147.5,68.5C 147.5,78.1667 147.5,87.8333 147.5,97.5C 150.833,97.5 154.167,97.5 157.5,97.5C 157.5,99.1667 157.5,100.833 157.5,102.5C 155.5,102.5 153.5,102.5 151.5,102.5C 148.5,102.5 145.5,102.5 142.5,102.5C 142.5,96.5 142.5,90.5 142.5,84.5C 142.5,78.8333 142.5,73.1667 142.5,67.5C 143.5,67.5 144.5,67.5 145.5,67.5 Z"/></g>
<g><path style="opacity:1" fill="#f59051" d="M 56.5,70.5 C 57.5,70.5 58.5,70.5 59.5,70.5C 59.5,72.1667 59.5,73.8333 59.5,75.5C 61.8333,75.5 64.1667,75.5 66.5,75.5C 66.5,77.5 66.5,79.5 66.5,81.5C 63.214,83.155 60.214,85.3217 57.5,88C 55.9751,89.0086 54.3084,89.5086 52.5,89.5C 52.5,83.8333 52.5,78.1667 52.5,72.5C 52.5,72.1667 52.5,71.8333 52.5,71.5C 53.8333,71.1667 55.1667,70.8333 56.5,70.5 Z"/></g>
<g><path style="opacity:0.998" fill="#7c7c87" d="M 10.5,73.5 C 9.21009,74.0577 8.37675,75.0577 8,76.5C 7.78827,79.7577 7.28827,82.9243 6.5,86C 9.60203,128.769 31.9354,155.436 73.5,166C 78.1548,166.499 82.8215,166.666 87.5,166.5C 92.8253,167.165 98.1586,167.832 103.5,168.5C 105.369,168.493 107.036,168.16 108.5,167.5C 111.076,167.722 111.91,169.055 111,171.5C 109.052,172.109 107.218,172.776 105.5,173.5C 92.8333,173.5 80.1667,173.5 67.5,173.5C 34.1024,164.604 12.269,143.604 2,110.5C 0.630222,100.223 0.130222,89.8894 0.5,79.5C 2.91176,79.3059 3.91176,77.9726 3.5,75.5C 5.92878,75.415 7.92878,74.415 9.5,72.5C 10.1067,72.6236 10.44,72.9569 10.5,73.5 Z"/></g>
<g><path style="opacity:1" fill="#80808d" d="M 22.5,127.5 C 25.9178,135.107 30.9178,141.44 37.5,146.5C 49.4584,153.595 62.1251,158.928 75.5,162.5C 79.6806,163.539 83.6806,164.872 87.5,166.5C 82.8215,166.666 78.1548,166.499 73.5,166C 31.9354,155.436 9.60203,128.769 6.5,86C 7.28827,82.9243 7.78827,79.7577 8,76.5C 8.37675,75.0577 9.21009,74.0577 10.5,73.5C 11.2216,73.0825 11.7216,72.4158 12,71.5C 12.9439,74.3471 12.4439,76.8471 10.5,79C 10.8333,79.3333 11.1667,79.6667 11.5,80C 10.7728,82.124 10.1062,84.2906 9.5,86.5C 10.7826,89.3182 10.7826,92.1516 9.5,95C 9.94585,96.7259 10.7792,98.2259 12,99.5C 12.9784,103.649 13.645,107.649 14,111.5C 16.3196,117.138 19.1529,122.471 22.5,127.5 Z"/></g>
<g><path style="opacity:1" fill="#b26b47" d="M 61.5,68.5 C 61.5,70.1667 61.5,71.8333 61.5,73.5C 63.5,73.5 65.5,73.5 67.5,73.5C 67.5,76.1667 67.5,78.8333 67.5,81.5C 67.1667,81.5 66.8333,81.5 66.5,81.5C 66.5,79.5 66.5,77.5 66.5,75.5C 64.1667,75.5 61.8333,75.5 59.5,75.5C 59.5,73.8333 59.5,72.1667 59.5,70.5C 58.5,70.5 57.5,70.5 56.5,70.5C 57.7804,69.0687 59.4471,68.4021 61.5,68.5 Z"/></g>
<g><path style="opacity:1" fill="#8a8996" d="M 23.5,73.5 C 29.487,72.9773 31.487,75.4773 29.5,81C 27.5273,81.4955 25.5273,81.6621 23.5,81.5C 23.5,78.8333 23.5,76.1667 23.5,73.5 Z"/></g>
<g><path style="opacity:1" fill="#2a2764" d="M 46.5,72.5 C 46.4729,74.1993 45.8062,75.5326 44.5,76.5C 41.5505,78.1153 38.8838,80.1153 36.5,82.5C 35.7093,80.6907 35.7093,78.6907 36.5,76.5C 39.634,74.7073 42.9673,73.374 46.5,72.5 Z"/></g>
<g><path style="opacity:1" fill="#e08655" d="M 115.5,48.5 C 116.167,49.5 116.833,50.5 117.5,51.5C 118.586,63.6151 116.92,75.2817 112.5,86.5C 111.5,87.1667 110.5,87.8333 109.5,88.5C 108.395,87.3995 107.062,86.7329 105.5,86.5C 107.371,82.1338 108.038,77.4671 107.5,72.5C 108.458,72.9528 109.292,73.6195 110,74.5C 110.333,76.8333 110.667,79.1667 111,81.5C 111.113,79.0261 112.113,77.0261 114,75.5C 115.381,66.5679 115.881,57.5679 115.5,48.5 Z"/></g>
<g><path style="opacity:1" fill="#3c2751" d="M 117.5,51.5 C 118.167,57.1667 118.833,62.8333 119.5,68.5C 118.419,74.9077 117.085,81.241 115.5,87.5C 114.209,87.7373 113.209,87.404 112.5,86.5C 116.92,75.2817 118.586,63.6151 117.5,51.5 Z"/></g>
<g><path style="opacity:1" fill="#ccbfbb" d="M 94.5,73.5 C 96.5,73.5 98.5,73.5 100.5,73.5C 101.329,76.4686 101.495,79.4686 101,82.5C 99.2111,84.229 97.0444,84.8957 94.5,84.5C 94.5,80.8333 94.5,77.1667 94.5,73.5 Z"/></g>
<g><path style="opacity:1" fill="#64646d" d="M 127.5,72.5 C 129.521,78.9102 131.021,85.5769 132,92.5C 132.808,96.0267 132.641,99.3601 131.5,102.5C 130.384,92.4717 129.051,82.4717 127.5,72.5 Z"/></g>
<g><path style="opacity:1" fill="#a9a7b2" d="M 122.5,81.5 C 124.25,85.1829 124.917,89.1829 124.5,93.5C 123.5,93.5 122.5,93.5 121.5,93.5C 121.307,89.4338 121.64,85.4338 122.5,81.5 Z"/></g>
<g><path style="opacity:1" fill="#6c6a73" d="M 23.5,87.5 C 30.4965,87.4422 32.1632,90.2755 28.5,96C 26.8659,96.4935 25.1992,96.6602 23.5,96.5C 23.5,93.5 23.5,90.5 23.5,87.5 Z"/></g>
<g><path style="opacity:1" fill="#cbc6ce" d="M 94.5,42.5 C 95.4822,43.1408 96.4822,43.8075 97.5,44.5C 101.146,52.0131 102.48,60.0131 101.5,68.5C 97.5,68.5 93.5,68.5 89.5,68.5C 89.1667,68.5 88.8333,68.5 88.5,68.5C 91.9619,67.5184 95.6286,67.185 99.5,67.5C 99.5,66.1667 99.5,64.8333 99.5,63.5C 93.0529,61.5123 86.3863,61.0123 79.5,62C 77.8446,63.4443 77.178,65.2776 77.5,67.5C 78.8333,67.5 80.1667,67.5 81.5,67.5C 81.6621,69.5273 81.4955,71.5273 81,73.5C 79.6439,74.3802 78.1439,74.7135 76.5,74.5C 74.5068,85.1545 73.8401,95.8212 74.5,106.5C 73.6618,106.842 73.3284,107.508 73.5,108.5C 72.2801,110.05 72.2801,111.716 73.5,113.5C 74.4339,115.239 74.4339,116.905 73.5,118.5C 68.8965,117.064 65.7298,114.064 64,109.5C 62.414,108.624 60.914,107.624 59.5,106.5C 56.5531,101.286 54.2197,95.9524 52.5,90.5C 52.5,90.1667 52.5,89.8333 52.5,89.5C 54.3084,89.5086 55.9751,89.0086 57.5,88C 60.214,85.3217 63.214,83.155 66.5,81.5C 66.8333,81.5 67.1667,81.5 67.5,81.5C 67.5,88.5 67.5,95.5 67.5,102.5C 69.5,102.5 71.5,102.5 73.5,102.5C 73.5,92.8333 73.5,83.1667 73.5,73.5C 75.5,73.5 77.5,73.5 79.5,73.5C 79.5,71.8333 79.5,70.1667 79.5,68.5C 78.1667,68.5 76.8333,68.5 75.5,68.5C 76.8333,67.5 76.8333,66.5 75.5,65.5C 75.5,65.1667 75.5,64.8333 75.5,64.5C 74.1797,61.6455 75.1797,59.8122 78.5,59C 83.8333,58.3333 89.1667,58.3333 94.5,59C 95.7659,59.3095 96.9326,59.8095 98,60.5C 98.704,58.7216 99.204,56.8882 99.5,55C 98.3876,50.5645 96.721,46.3978 94.5,42.5 Z"/></g>
<g><path style="opacity:1" fill="#e3e0e3" d="M 88.5,68.5 C 88.5,79.8333 88.5,91.1667 88.5,102.5C 90.5,102.5 92.5,102.5 94.5,102.5C 94.5,98.1667 94.5,93.8333 94.5,89.5C 98.6656,90.0561 102.332,89.0561 105.5,86.5C 107.062,86.7329 108.395,87.3995 109.5,88.5C 110.568,89.4345 111.901,89.7678 113.5,89.5C 112.578,92.1264 111.578,94.7931 110.5,97.5C 111.865,104.674 108.865,109.174 101.5,111C 107.619,114.761 114.286,116.594 121.5,116.5C 118.696,117.638 115.696,117.805 112.5,117C 102.122,113.589 92.7885,108.422 84.5,101.5C 81.1425,103.171 77.8091,104.838 74.5,106.5C 73.8401,95.8212 74.5068,85.1545 76.5,74.5C 78.1439,74.7135 79.6439,74.3802 81,73.5C 81.4955,71.5273 81.6621,69.5273 81.5,67.5C 80.1667,67.5 78.8333,67.5 77.5,67.5C 77.178,65.2776 77.8446,63.4443 79.5,62C 86.3863,61.0123 93.0529,61.5123 99.5,63.5C 99.5,64.8333 99.5,66.1667 99.5,67.5C 95.6286,67.185 91.9619,67.5184 88.5,68.5 Z"/></g>
<g><path style="opacity:1" fill="#eb8c52" d="M 44.5,76.5 C 45.1667,76.5 45.8333,76.5 46.5,76.5C 46.5,83.8333 46.5,91.1667 46.5,98.5C 46.1667,98.5 45.8333,98.5 45.5,98.5C 42.1359,103.778 41.6359,109.445 44,115.5C 46.7564,118.018 48.7564,121.018 50,124.5C 53.6667,128.167 57.3333,131.833 61,135.5C 61.6667,136.167 61.6667,136.833 61,137.5C 60.3292,136.748 59.4959,136.414 58.5,136.5C 56.7446,135.928 55.0779,135.094 53.5,134C 49.2713,129.602 44.9379,125.436 40.5,121.5C 36.7335,115.21 33.7335,108.543 31.5,101.5C 36.646,97.1518 37.646,91.9851 34.5,86C 34.9783,84.6974 35.645,83.5307 36.5,82.5C 38.8838,80.1153 41.5505,78.1153 44.5,76.5 Z"/></g>
<g><path style="opacity:1" fill="#c37f5a" d="M 141.5,84.5 C 141.833,84.5 142.167,84.5 142.5,84.5C 142.5,90.5 142.5,96.5 142.5,102.5C 141.687,104.261 140.687,105.928 139.5,107.5C 140.397,102.86 140.564,98.1935 140,93.5C 139.626,95.4913 138.793,97.158 137.5,98.5C 137.923,93.4599 139.256,88.7932 141.5,84.5 Z"/></g>
<g><path style="opacity:1" fill="#3f2c26" d="M 52.5,72.5 C 52.5,78.1667 52.5,83.8333 52.5,89.5C 52.5,89.8333 52.5,90.1667 52.5,90.5C 52.5,94.5 52.5,98.5 52.5,102.5C 50.5,102.5 48.5,102.5 46.5,102.5C 46.5,101.167 46.5,99.8333 46.5,98.5C 46.5,91.1667 46.5,83.8333 46.5,76.5C 47.4927,84.6499 47.8261,92.9832 47.5,101.5C 48.8333,101.5 50.1667,101.5 51.5,101.5C 51.1729,91.6522 51.5062,81.9856 52.5,72.5 Z"/></g>
<g><path style="opacity:1" fill="#bcbccc" d="M 52.5,90.5 C 54.2197,95.9524 56.5531,101.286 59.5,106.5C 60.914,107.624 62.414,108.624 64,109.5C 65.7298,114.064 68.8965,117.064 73.5,118.5C 74.4339,116.905 74.4339,115.239 73.5,113.5C 77.5,117.167 81.5,120.833 85.5,124.5C 85.5,125.833 85.5,127.167 85.5,128.5C 86.675,128.281 87.675,128.614 88.5,129.5C 84.878,130.659 81.2113,130.825 77.5,130C 73.7505,128.059 69.7505,126.726 65.5,126C 63.1911,123.513 60.5244,121.513 57.5,120C 56.1667,118 54.8333,116 53.5,114C 52.552,113.517 51.552,113.351 50.5,113.5C 50.2231,109.822 48.8898,106.655 46.5,104C 48.7078,103.809 50.7078,103.309 52.5,102.5C 52.5,98.5 52.5,94.5 52.5,90.5 Z"/></g>
<g><path style="opacity:1" fill="#f89050" d="M 139.5,107.5 C 136.288,113.237 132.788,118.904 129,124.5C 125.535,126.963 122.369,129.796 119.5,133C 112.722,132.813 106.056,131.646 99.5,129.5C 88.8754,124.863 80.2087,117.863 73.5,108.5C 73.3284,107.508 73.6618,106.842 74.5,106.5C 77.8091,104.838 81.1425,103.171 84.5,101.5C 92.7885,108.422 102.122,113.589 112.5,117C 115.696,117.805 118.696,117.638 121.5,116.5C 125.346,114.845 128.846,112.512 132,109.5C 133.688,105.696 135.521,102.03 137.5,98.5C 138.793,97.158 139.626,95.4913 140,93.5C 140.564,98.1935 140.397,102.86 139.5,107.5 Z"/></g>
<g><path style="opacity:1" fill="#c3a7a3" d="M 45.5,98.5 C 44.5581,103.805 44.3914,109.139 45,114.5C 45.6667,115.167 46.3333,115.833 47,116.5C 46.0826,111.731 47.416,111.397 51,115.5C 52.6548,117.747 52.9881,120.08 52,122.5C 54.5434,126.261 57.3767,129.595 60.5,132.5C 62.1933,135.184 63.86,137.851 65.5,140.5C 63.2972,140.396 61.2972,139.73 59.5,138.5C 59.1667,137.833 58.8333,137.167 58.5,136.5C 59.4959,136.414 60.3292,136.748 61,137.5C 61.6667,136.833 61.6667,136.167 61,135.5C 57.3333,131.833 53.6667,128.167 50,124.5C 48.7564,121.018 46.7564,118.018 44,115.5C 41.6359,109.445 42.1359,103.778 45.5,98.5 Z"/></g>
<g><path style="opacity:1" fill="#c58165" d="M 139.5,107.5 C 136.12,118.391 129.786,127.224 120.5,134C 118.19,134.497 115.857,134.663 113.5,134.5C 109.16,133.498 104.826,132.331 100.5,131C 99.944,130.617 99.6107,130.117 99.5,129.5C 106.056,131.646 112.722,132.813 119.5,133C 122.369,129.796 125.535,126.963 129,124.5C 132.788,118.904 136.288,113.237 139.5,107.5 Z"/></g>
<g><path style="opacity:1" fill="#8a8998" d="M 29.5,111.5 C 27.9907,110.141 27.324,110.641 27.5,113C 37.7921,135.126 53.7921,151.626 75.5,162.5C 62.1251,158.928 49.4584,153.595 37.5,146.5C 30.9178,141.44 25.9178,135.107 22.5,127.5C 21.4092,124.651 21.4092,121.818 22.5,119C 20.4923,116.979 18.8256,114.646 17.5,112C 17.8333,111.667 18.1667,111.333 18.5,111C 17.5,108.667 16.5,106.333 15.5,104C 23.098,101.668 27.7647,104.168 29.5,111.5 Z"/></g>
<g><path style="opacity:1" fill="#8e8d9b" d="M 142.5,102.5 C 145.5,102.5 148.5,102.5 151.5,102.5C 154.609,103.132 156.943,104.132 158.5,105.5C 158.219,107.963 157.219,110.13 155.5,112C 155.833,112.333 156.167,112.667 156.5,113C 152.194,121.794 147.027,129.961 141,137.5C 140.667,137.167 140.333,136.833 140,136.5C 136.69,139.897 133.523,143.397 130.5,147C 121.158,152.672 111.158,156.672 100.5,159C 102.973,159.22 104.64,160.386 105.5,162.5C 101.468,161.918 97.8013,160.584 94.5,158.5C 92.6992,156.862 91.0325,155.029 89.5,153C 88.0494,153.263 86.7161,153.096 85.5,152.5C 94.3836,151.612 103.05,149.778 111.5,147C 114.938,146.08 117.938,144.413 120.5,142C 119.5,141.667 118.5,141.333 117.5,141C 117.833,140.667 118.167,140.333 118.5,140C 115.372,139.159 112.372,138.325 109.5,137.5C 110.873,137.657 112.207,137.49 113.5,137C 114.598,136.23 114.598,135.397 113.5,134.5C 115.857,134.663 118.19,134.497 120.5,134C 129.786,127.224 136.12,118.391 139.5,107.5C 140.687,105.928 141.687,104.261 142.5,102.5 Z"/></g>
<g><path style="opacity:1" fill="#adadbf" d="M 45.5,98.5 C 45.8333,98.5 46.1667,98.5 46.5,98.5C 46.5,99.8333 46.5,101.167 46.5,102.5C 48.5,102.5 50.5,102.5 52.5,102.5C 50.7078,103.309 48.7078,103.809 46.5,104C 48.8898,106.655 50.2231,109.822 50.5,113.5C 51.552,113.351 52.552,113.517 53.5,114C 54.8333,116 56.1667,118 57.5,120C 60.5244,121.513 63.1911,123.513 65.5,126C 69.7505,126.726 73.7505,128.059 77.5,130C 81.2113,130.825 84.878,130.659 88.5,129.5C 87.675,128.614 86.675,128.281 85.5,128.5C 85.5,127.167 85.5,125.833 85.5,124.5C 90.328,128.081 95.328,131.415 100.5,134.5C 100.756,136.912 99.756,138.579 97.5,139.5C 96.2888,138.726 96.2888,137.893 97.5,137C 96.5838,136.626 95.7504,136.126 95,135.5C 92.9777,136.786 90.8111,137.786 88.5,138.5C 81.2599,137.767 73.9265,136.601 66.5,135C 65.3816,133.926 64.3816,132.76 63.5,131.5C 62.5832,132.127 61.5832,132.461 60.5,132.5C 57.3767,129.595 54.5434,126.261 52,122.5C 52.9881,120.08 52.6548,117.747 51,115.5C 47.416,111.397 46.0826,111.731 47,116.5C 46.3333,115.833 45.6667,115.167 45,114.5C 44.3914,109.139 44.5581,103.805 45.5,98.5 Z"/></g>
<g><path style="opacity:1" fill="#332e73" d="M 73.5,108.5 C 80.2087,117.863 88.8754,124.863 99.5,129.5C 99.6107,130.117 99.944,130.617 100.5,131C 104.826,132.331 109.16,133.498 113.5,134.5C 114.598,135.397 114.598,136.23 113.5,137C 112.207,137.49 110.873,137.657 109.5,137.5C 106.574,136.302 103.574,135.302 100.5,134.5C 95.328,131.415 90.328,128.081 85.5,124.5C 81.5,120.833 77.5,117.167 73.5,113.5C 72.2801,111.716 72.2801,110.05 73.5,108.5 Z"/></g>
<g><path style="opacity:1" fill="#a2a1b2" d="M 100.5,134.5 C 103.574,135.302 106.574,136.302 109.5,137.5C 112.372,138.325 115.372,139.159 118.5,140C 118.167,140.333 117.833,140.667 117.5,141C 118.5,141.333 119.5,141.667 120.5,142C 117.938,144.413 114.938,146.08 111.5,147C 103.05,149.778 94.3836,151.612 85.5,152.5C 86.7161,153.096 88.0494,153.263 89.5,153C 91.0325,155.029 92.6992,156.862 94.5,158.5C 90.0558,157.111 85.7225,155.444 81.5,153.5C 81.1583,152.662 80.4916,152.328 79.5,152.5C 79.5,151.833 79.1667,151.5 78.5,151.5C 78.1583,150.662 77.4916,150.328 76.5,150.5C 76.5,149.833 76.1667,149.5 75.5,149.5C 73.6216,148.468 71.9549,147.134 70.5,145.5C 70.5,144.833 70.1667,144.5 69.5,144.5C 68.1667,143.167 66.8333,141.833 65.5,140.5C 63.86,137.851 62.1933,135.184 60.5,132.5C 61.5832,132.461 62.5832,132.127 63.5,131.5C 64.3816,132.76 65.3816,133.926 66.5,135C 73.9265,136.601 81.2599,137.767 88.5,138.5C 90.8111,137.786 92.9777,136.786 95,135.5C 95.7504,136.126 96.5838,136.626 97.5,137C 96.2888,137.893 96.2888,138.726 97.5,139.5C 99.756,138.579 100.756,136.912 100.5,134.5 Z"/></g>
<g><path style="opacity:0.985" fill="#aca8b8" d="M 40.5,121.5 C 44.9379,125.436 49.2713,129.602 53.5,134C 55.0779,135.094 56.7446,135.928 58.5,136.5C 58.8333,137.167 59.1667,137.833 59.5,138.5C 59.5106,140.017 60.1772,141.184 61.5,142C 58.4898,144.169 55.1564,144.836 51.5,144C 44.0613,136.274 37.7279,127.774 32.5,118.5C 33.4959,118.414 34.3292,118.748 35,119.5C 35.3333,118.833 35.6667,118.167 36,117.5C 37.0487,119.384 38.5487,120.718 40.5,121.5 Z"/></g>
<g><path style="opacity:1" fill="#d1d1da" d="M 29.5,111.5 C 30.3052,113.915 31.3052,116.249 32.5,118.5C 37.7279,127.774 44.0613,136.274 51.5,144C 55.1564,144.836 58.4898,144.169 61.5,142C 60.1772,141.184 59.5106,140.017 59.5,138.5C 61.2972,139.73 63.2972,140.396 65.5,140.5C 66.8333,141.833 68.1667,143.167 69.5,144.5C 70.1667,144.5 70.5,144.833 70.5,145.5C 71.9549,147.134 73.6216,148.468 75.5,149.5C 76.1667,149.5 76.5,149.833 76.5,150.5C 76.8417,151.338 77.5084,151.672 78.5,151.5C 79.1667,151.5 79.5,151.833 79.5,152.5C 79.8417,153.338 80.5084,153.672 81.5,153.5C 90.334,158.551 99.334,163.218 108.5,167.5C 107.036,168.16 105.369,168.493 103.5,168.5C 98.1586,167.832 92.8253,167.165 87.5,166.5C 83.6806,164.872 79.6806,163.539 75.5,162.5C 53.7921,151.626 37.7921,135.126 27.5,113C 27.324,110.641 27.9907,110.141 29.5,111.5 Z"/></g>
</svg>
