<?xml version="1.0" encoding="UTF-8"?>
<!DOCTYPE svg PUBLIC "-//W3C//DTD SVG 1.1//EN" "http://www.w3.org/Graphics/SVG/1.1/DTD/svg11.dtd">
<svg xmlns="http://www.w3.org/2000/svg" version="1.1" width="215px" height="215px" style="shape-rendering:geometricPrecision; text-rendering:geometricPrecision; image-rendering:optimizeQuality; fill-rule:evenodd; clip-rule:evenodd" xmlns:xlink="http://www.w3.org/1999/xlink">
<g><path style="opacity:0.987" fill="#010100" d="M 92.5,-0.5 C 102.167,-0.5 111.833,-0.5 121.5,-0.5C 172.833,10.1667 203.833,41.1667 214.5,92.5C 214.5,102.167 214.5,111.833 214.5,121.5C 203.833,172.833 172.833,203.833 121.5,214.5C 111.833,214.5 102.167,214.5 92.5,214.5C 41.1667,203.833 10.1667,172.833 -0.5,121.5C -0.5,111.833 -0.5,102.167 -0.5,92.5C 10.1667,41.1667 41.1667,10.1667 92.5,-0.5 Z"/></g>
<g><path style="opacity:1" fill="#888888" d="M 97.5,27.5 C 89.2312,25.5302 80.5645,24.8636 71.5,25.5C 70.5093,31.979 70.176,38.6457 70.5,45.5C 69.5088,38.6866 69.1755,31.6866 69.5,24.5C 79.1667,24.5 88.8333,24.5 98.5,24.5C 98.7373,25.791 98.404,26.791 97.5,27.5 Z"/></g>
<g><path style="opacity:1" fill="#8f7b36" d="M 123.5,24.5 C 123.5,24.8333 123.5,25.1667 123.5,25.5C 118.156,25.334 112.823,25.5006 107.5,26C 105.297,28.3722 102.963,30.5389 100.5,32.5C 101.882,29.6057 103.882,27.1057 106.5,25C 112.157,24.5006 117.824,24.3339 123.5,24.5 Z"/></g>
<g><path style="opacity:1" fill="#564a20" d="M 123.5,25.5 C 123.5,25.1667 123.5,24.8333 123.5,24.5C 126.228,24.1706 128.562,24.8372 130.5,26.5C 128.139,26.3259 125.806,25.9926 123.5,25.5 Z"/></g>
<g><path style="opacity:1" fill="#b7b7b7" d="M 71.5,25.5 C 71.5,31.8333 71.5,38.1667 71.5,44.5C 74.8333,44.5 78.1667,44.5 81.5,44.5C 80.1286,45.7868 78.2953,46.4535 76,46.5C 73.9674,46.4944 72.134,46.1611 70.5,45.5C 70.176,38.6457 70.5093,31.979 71.5,25.5 Z"/></g>
<g><path style="opacity:1" fill="#fafafa" d="M 71.5,25.5 C 80.5645,24.8636 89.2312,25.5302 97.5,27.5C 94.0969,29.8998 91.4302,32.8998 89.5,36.5C 86.7573,38.2393 84.7573,40.5726 83.5,43.5C 82.8333,43.8333 82.1667,44.1667 81.5,44.5C 78.1667,44.5 74.8333,44.5 71.5,44.5C 71.5,38.1667 71.5,31.8333 71.5,25.5 Z"/></g>
<g><path style="opacity:1" fill="#907a36" d="M 134.5,27.5 C 138.313,27.9379 141.646,29.2712 144.5,31.5C 144.167,31.5 143.833,31.5 143.5,31.5C 140.186,30.6072 137.186,29.2739 134.5,27.5 Z"/></g>
<g><path style="opacity:1" fill="#f5cf5b" d="M 123.5,25.5 C 125.806,25.9926 128.139,26.3259 130.5,26.5C 132.099,26.2322 133.432,26.5655 134.5,27.5C 137.186,29.2739 140.186,30.6072 143.5,31.5C 143.937,33.0744 144.937,34.2411 146.5,35C 132.837,35.4999 119.171,35.6666 105.5,35.5C 104.833,34.1667 104.167,34.1667 103.5,35.5C 103.167,35.5 102.833,35.5 102.5,35.5C 101.508,35.6716 100.842,35.3382 100.5,34.5C 100.5,33.8333 100.5,33.1667 100.5,32.5C 102.963,30.5389 105.297,28.3722 107.5,26C 112.823,25.5006 118.156,25.334 123.5,25.5 Z"/></g>
<g><path style="opacity:1" fill="#443819" d="M 146.5,32.5 C 148.404,32.7376 149.738,33.7376 150.5,35.5C 148.596,35.2624 147.262,34.2624 146.5,32.5 Z"/></g>
<g><path style="opacity:1" fill="#5f5f5f" d="M 97.5,27.5 C 95.5698,31.1002 92.9031,34.1002 89.5,36.5C 91.4302,32.8998 94.0969,29.8998 97.5,27.5 Z"/></g>
<g><path style="opacity:1" fill="#f7ca57" d="M 143.5,31.5 C 143.833,31.5 144.167,31.5 144.5,31.5C 144.842,32.3382 145.508,32.6716 146.5,32.5C 147.262,34.2624 148.596,35.2624 150.5,35.5C 150.833,36.1667 151.167,36.8333 151.5,37.5C 151.5,38.1667 151.5,38.8333 151.5,39.5C 150.71,40.7942 149.71,41.9609 148.5,43C 134.158,43.3689 119.824,43.8689 105.5,44.5C 105.5,41.5 105.5,38.5 105.5,35.5C 119.171,35.6666 132.837,35.4999 146.5,35C 144.937,34.2411 143.937,33.0744 143.5,31.5 Z"/></g>
<g><path style="opacity:1" fill="#79612a" d="M 102.5,35.5 C 102.833,35.5 103.167,35.5 103.5,35.5C 104.479,38.6248 104.813,41.9581 104.5,45.5C 108.042,45.1872 111.375,45.5206 114.5,46.5C 110.833,46.5 107.167,46.5 103.5,46.5C 103.802,43.9407 103.468,41.6074 102.5,39.5C 102.5,38.1667 102.5,36.8333 102.5,35.5 Z"/></g>
<g><path style="opacity:1" fill="#957934" d="M 151.5,37.5 C 153.587,38.5846 154.92,40.2512 155.5,42.5C 154.167,41.5 152.833,40.5 151.5,39.5C 151.5,38.8333 151.5,38.1667 151.5,37.5 Z"/></g>
<g><path style="opacity:1" fill="#545454" d="M 89.5,36.5 C 88.2427,39.4274 86.2427,41.7607 83.5,43.5C 84.7573,40.5726 86.7573,38.2393 89.5,36.5 Z"/></g>
<g><path style="opacity:1" fill="#8a7131" d="M 100.5,32.5 C 100.5,33.1667 100.5,33.8333 100.5,34.5C 97.8333,36.8333 95.1667,39.1667 92.5,41.5C 94.4302,37.8998 97.0969,34.8998 100.5,32.5 Z"/></g>
<g><path style="opacity:1" fill="#f4c253" d="M 100.5,34.5 C 100.842,35.3382 101.508,35.6716 102.5,35.5C 102.5,36.8333 102.5,38.1667 102.5,39.5C 101.167,42.5 99.8333,45.5 98.5,48.5C 96.7853,49.6574 94.7853,50.3241 92.5,50.5C 90.3603,50.4439 88.6936,49.7773 87.5,48.5C 89.5798,46.4268 91.2464,44.0934 92.5,41.5C 95.1667,39.1667 97.8333,36.8333 100.5,34.5 Z"/></g>
<g><path style="opacity:1" fill="#5a481f" d="M 102.5,39.5 C 101.943,44.1646 100.61,48.4979 98.5,52.5C 98.5,51.1667 98.5,49.8333 98.5,48.5C 99.8333,45.5 101.167,42.5 102.5,39.5 Z"/></g>
<g><path style="opacity:1" fill="#f4c153" d="M 103.5,35.5 C 104.167,34.1667 104.833,34.1667 105.5,35.5C 105.5,38.5 105.5,41.5 105.5,44.5C 119.824,43.8689 134.158,43.3689 148.5,43C 149.71,41.9609 150.71,40.7942 151.5,39.5C 152.833,40.5 154.167,41.5 155.5,42.5C 155.557,43.609 155.89,44.609 156.5,45.5C 156.5,46.5 156.5,47.5 156.5,48.5C 147.095,50.4334 137.428,51.1001 127.5,50.5C 125.281,48.3939 122.615,47.3939 119.5,47.5C 117.958,46.6993 116.292,46.366 114.5,46.5C 111.375,45.5206 108.042,45.1872 104.5,45.5C 104.813,41.9581 104.479,38.6248 103.5,35.5 Z"/></g>
<g><path style="opacity:1" fill="#050301" d="M 102.5,39.5 C 103.468,41.6074 103.802,43.9407 103.5,46.5C 107.167,46.5 110.833,46.5 114.5,46.5C 116.292,46.366 117.958,46.6993 119.5,47.5C 122.925,48.7671 125.925,50.7671 128.5,53.5C 129.338,53.8417 129.672,54.5084 129.5,55.5C 129.677,59.2343 129.344,62.9009 128.5,66.5C 126.833,68.5 125.167,70.5 123.5,72.5C 122.833,72.5 122.167,72.5 121.5,72.5C 112.167,72.5 102.833,72.5 93.5,72.5C 94.5,67.8333 95.5,63.1667 96.5,58.5C 97.1667,56.5 97.8333,54.5 98.5,52.5C 100.61,48.4979 101.943,44.1646 102.5,39.5 Z"/></g>
<g><path style="opacity:1" fill="#56441d" d="M 155.5,42.5 C 156.906,42.9731 157.573,43.9731 157.5,45.5C 157.167,45.5 156.833,45.5 156.5,45.5C 155.89,44.609 155.557,43.609 155.5,42.5 Z"/></g>
<g><path style="opacity:1" fill="#7e632a" d="M 119.5,47.5 C 122.615,47.3939 125.281,48.3939 127.5,50.5C 128.11,51.391 128.443,52.391 128.5,53.5C 125.925,50.7671 122.925,48.7671 119.5,47.5 Z"/></g>
<g><path style="opacity:1" fill="#8e7030" d="M 92.5,41.5 C 91.2464,44.0934 89.5798,46.4268 87.5,48.5C 86.5,49.1667 85.5,49.8333 84.5,50.5C 86.4302,46.8998 89.0969,43.8998 92.5,41.5 Z"/></g>
<g><path style="opacity:1" fill="#f8b94d" d="M 156.5,48.5 C 157.441,53.0704 157.774,57.737 157.5,62.5C 156.711,62.7828 156.044,63.2828 155.5,64C 147.507,64.4997 139.507,64.6664 131.5,64.5C 131.806,61.6146 131.473,58.9479 130.5,56.5C 130.5,55.8333 130.167,55.5 129.5,55.5C 129.672,54.5084 129.338,53.8417 128.5,53.5C 128.443,52.391 128.11,51.391 127.5,50.5C 137.428,51.1001 147.095,50.4334 156.5,48.5 Z"/></g>
<g><path style="opacity:1" fill="#f3b64c" d="M 87.5,48.5 C 88.6936,49.7773 90.3603,50.4439 92.5,50.5C 94.7853,50.3241 96.7853,49.6574 98.5,48.5C 98.5,49.8333 98.5,51.1667 98.5,52.5C 97.8333,54.5 97.1667,56.5 96.5,58.5C 95.5,60.5 94.5,62.5 93.5,64.5C 87.3554,63.5098 81.0221,63.1765 74.5,63.5C 77.8574,59.148 81.1907,54.8147 84.5,50.5C 85.5,49.8333 86.5,49.1667 87.5,48.5 Z"/></g>
<g><path style="opacity:1" fill="#8d692b" d="M 84.5,50.5 C 81.1907,54.8147 77.8574,59.148 74.5,63.5C 71.8333,65.8333 69.1667,68.1667 66.5,70.5C 71.5655,63.0694 77.5655,56.4027 84.5,50.5 Z"/></g>
<g><path style="opacity:1" fill="#b68939" d="M 156.5,45.5 C 156.833,45.5 157.167,45.5 157.5,45.5C 157.557,46.609 157.89,47.609 158.5,48.5C 158.821,54.0262 158.488,59.3595 157.5,64.5C 157.5,63.8333 157.5,63.1667 157.5,62.5C 157.774,57.737 157.441,53.0704 156.5,48.5C 156.5,47.5 156.5,46.5 156.5,45.5 Z"/></g>
<g><path style="opacity:1" fill="#63491e" d="M 129.5,55.5 C 130.167,55.5 130.5,55.8333 130.5,56.5C 130.747,59.9387 130.414,63.272 129.5,66.5C 129.167,66.5 128.833,66.5 128.5,66.5C 129.344,62.9009 129.677,59.2343 129.5,55.5 Z"/></g>
<g><path style="opacity:1" fill="#443316" d="M 158.5,48.5 C 159.652,53.9846 159.818,59.6513 159,65.5C 158.8,67.3197 157.966,68.653 156.5,69.5C 157.038,67.8828 157.371,66.2161 157.5,64.5C 158.488,59.3595 158.821,54.0262 158.5,48.5 Z"/></g>
<g><path style="opacity:1" fill="#67481d" d="M 96.5,58.5 C 95.5,63.1667 94.5,67.8333 93.5,72.5C 102.833,72.5 112.167,72.5 121.5,72.5C 121.5,72.8333 121.5,73.1667 121.5,73.5C 111.833,73.5 102.167,73.5 92.5,73.5C 92.5,72.5 92.5,71.5 92.5,70.5C 92.8333,68.5 93.1667,66.5 93.5,64.5C 94.5,62.5 95.5,60.5 96.5,58.5 Z"/></g>
<g><path style="opacity:1" fill="#f7ab45" d="M 130.5,56.5 C 131.473,58.9479 131.806,61.6146 131.5,64.5C 139.507,64.6664 147.507,64.4997 155.5,64C 156.044,63.2828 156.711,62.7828 157.5,62.5C 157.5,63.1667 157.5,63.8333 157.5,64.5C 157.371,66.2161 157.038,67.8828 156.5,69.5C 154.068,72.6881 151.401,75.6881 148.5,78.5C 119.426,78.8247 90.4262,78.4914 61.5,77.5C 63.5798,75.4268 65.2464,73.0934 66.5,70.5C 69.1667,68.1667 71.8333,65.8333 74.5,63.5C 81.0221,63.1765 87.3554,63.5098 93.5,64.5C 93.1667,66.5 92.8333,68.5 92.5,70.5C 91.5655,71.5676 91.2322,72.901 91.5,74.5C 101.681,74.8274 111.681,74.494 121.5,73.5C 121.5,73.1667 121.5,72.8333 121.5,72.5C 122.167,72.5 122.833,72.5 123.5,72.5C 126.5,71.5 128.5,69.5 129.5,66.5C 130.414,63.272 130.747,59.9387 130.5,56.5 Z"/></g>
<g><path style="opacity:1" fill="#9c6e2d" d="M 128.5,66.5 C 128.833,66.5 129.167,66.5 129.5,66.5C 128.5,69.5 126.5,71.5 123.5,72.5C 125.167,70.5 126.833,68.5 128.5,66.5 Z"/></g>
<g><path style="opacity:1" fill="#d6943b" d="M 92.5,70.5 C 92.5,71.5 92.5,72.5 92.5,73.5C 102.167,73.5 111.833,73.5 121.5,73.5C 111.681,74.494 101.681,74.8274 91.5,74.5C 91.2322,72.901 91.5655,71.5676 92.5,70.5 Z"/></g>
<g><path style="opacity:1" fill="#583d19" d="M 156.5,69.5 C 155.141,74.5734 152.141,78.2401 147.5,80.5C 147.833,79.8333 148.167,79.1667 148.5,78.5C 151.401,75.6881 154.068,72.6881 156.5,69.5 Z"/></g>
<g><path style="opacity:1" fill="#805823" d="M 66.5,70.5 C 65.2464,73.0934 63.5798,75.4268 61.5,77.5C 60.5,78.1667 59.5,78.8333 58.5,79.5C 60.4302,75.8998 63.0969,72.8998 66.5,70.5 Z"/></g>
<g><path style="opacity:1" fill="#f7a440" d="M 61.5,77.5 C 90.4262,78.4914 119.426,78.8247 148.5,78.5C 148.167,79.1667 147.833,79.8333 147.5,80.5C 145.938,80.7329 144.605,81.3995 143.5,82.5C 142.44,84.0433 140.94,85.0433 139,85.5C 111.028,84.2215 82.8608,84.2215 54.5,85.5C 56.2516,83.7541 57.5849,81.7541 58.5,79.5C 59.5,78.8333 60.5,78.1667 61.5,77.5 Z"/></g>
<g><path style="opacity:1" fill="#916025" d="M 58.5,79.5 C 57.5849,81.7541 56.2516,83.7541 54.5,85.5C 53.8333,85.8333 53.1667,86.1667 52.5,86.5C 53.7573,83.5726 55.7573,81.2393 58.5,79.5 Z"/></g>
<g><path style="opacity:1" fill="#5c3d18" d="M 147.5,80.5 C 146.859,81.4822 146.193,82.4822 145.5,83.5C 147.184,84.1497 148.517,85.1497 149.5,86.5C 146.487,86.4191 144.487,85.0858 143.5,82.5C 144.605,81.3995 145.938,80.7329 147.5,80.5 Z"/></g>
<g><path style="opacity:1" fill="#f49d3c" d="M 143.5,82.5 C 144.487,85.0858 146.487,86.4191 149.5,86.5C 151.349,87.593 153.016,88.9263 154.5,90.5C 141.3,92.1616 128.3,91.8283 115.5,89.5C 115.44,88.9569 115.107,88.6236 114.5,88.5C 113.148,89.5244 111.815,90.5244 110.5,91.5C 90.1667,91.5 69.8333,91.5 49.5,91.5C 50.925,90.078 51.925,88.4113 52.5,86.5C 53.1667,86.1667 53.8333,85.8333 54.5,85.5C 82.8608,84.2215 111.028,84.2215 139,85.5C 140.94,85.0433 142.44,84.0433 143.5,82.5 Z"/></g>
<g><path style="opacity:1" fill="#f39638" d="M 115.5,89.5 C 128.3,91.8283 141.3,92.1616 154.5,90.5C 155.5,91.1667 156.5,91.8333 157.5,92.5C 157.738,94.4044 158.738,95.7377 160.5,96.5C 160.427,98.0269 161.094,99.0269 162.5,99.5C 162.5,100.833 162.5,102.167 162.5,103.5C 161.751,102.469 161.085,101.302 160.5,100C 151.5,99.3333 142.5,99.3333 133.5,100C 134.252,100.671 134.586,101.504 134.5,102.5C 134.167,102.5 133.833,102.5 133.5,102.5C 133.144,100.81 132.144,99.8102 130.5,99.5C 129.817,97.8235 128.483,97.1568 126.5,97.5C 124.958,96.6993 123.292,96.366 121.5,96.5C 119.393,95.5318 117.059,95.1984 114.5,95.5C 114.325,93.3792 114.659,91.3792 115.5,89.5 Z"/></g>
<g><path style="opacity:1" fill="#f69737" d="M 49.5,91.5 C 69.8333,91.5 90.1667,91.5 110.5,91.5C 109.4,92.6049 108.733,93.9382 108.5,95.5C 105.757,97.2393 103.757,99.5726 102.5,102.5C 101.5,102.833 100.833,103.5 100.5,104.5C 99.1667,105.5 97.8333,106.5 96.5,107.5C 90.021,106.509 83.3543,106.176 76.5,106.5C 76.5,105.167 76.5,103.833 76.5,102.5C 76.5,102.167 76.5,101.833 76.5,101.5C 77.404,100.791 77.7373,99.791 77.5,98.5C 66.5,97.8333 55.5,97.1667 44.5,96.5C 45.8333,94.5 47.5,92.8333 49.5,91.5 Z"/></g>
<g><path style="opacity:1" fill="#5e3b17" d="M 115.5,89.5 C 114.659,91.3792 114.325,93.3792 114.5,95.5C 117.059,95.1984 119.393,95.5318 121.5,96.5C 118.833,96.5 116.167,96.5 113.5,96.5C 113.66,94.8008 113.494,93.1341 113,91.5C 111.629,93.0414 110.129,94.3747 108.5,95.5C 108.733,93.9382 109.4,92.6049 110.5,91.5C 111.815,90.5244 113.148,89.5244 114.5,88.5C 115.107,88.6236 115.44,88.9569 115.5,89.5 Z"/></g>
<g><path style="opacity:1" fill="#8d5821" d="M 52.5,86.5 C 51.925,88.4113 50.925,90.078 49.5,91.5C 47.5,92.8333 45.8333,94.5 44.5,96.5C 43.6618,96.8417 43.3284,97.5084 43.5,98.5C 42.6618,98.1583 42.3284,97.4916 42.5,96.5C 45.5,92.8333 48.8333,89.5 52.5,86.5 Z"/></g>
<g><path style="opacity:1" fill="#85521e" d="M 157.5,92.5 C 159.262,93.2623 160.262,94.5956 160.5,96.5C 158.738,95.7377 157.738,94.4044 157.5,92.5 Z"/></g>
<g><path style="opacity:1" fill="#cf7e2e" d="M 44.5,96.5 C 55.5,97.1667 66.5,97.8333 77.5,98.5C 66.1667,98.5 54.8333,98.5 43.5,98.5C 43.3284,97.5084 43.6618,96.8417 44.5,96.5 Z"/></g>
<g><path style="opacity:1" fill="#925921" d="M 126.5,97.5 C 128.483,97.1568 129.817,97.8235 130.5,99.5C 128.847,99.3404 127.514,98.6737 126.5,97.5 Z"/></g>
<g><path style="opacity:1" fill="#643c15" d="M 42.5,96.5 C 42.3284,97.4916 42.6618,98.1583 43.5,98.5C 54.8333,98.5 66.1667,98.5 77.5,98.5C 77.7373,99.791 77.404,100.791 76.5,101.5C 65.2146,99.5216 53.5479,98.8549 41.5,99.5C 41.2627,98.209 41.596,97.209 42.5,96.5 Z"/></g>
<g><path style="opacity:1" fill="#4f3013" d="M 108.5,95.5 C 107.243,98.4274 105.243,100.761 102.5,102.5C 103.757,99.5726 105.757,97.2393 108.5,95.5 Z"/></g>
<g><path style="opacity:1" fill="#683f17" d="M 160.5,96.5 C 161.906,96.9731 162.573,97.9731 162.5,99.5C 161.094,99.0269 160.427,98.0269 160.5,96.5 Z"/></g>
<g><path style="opacity:1" fill="#3e2710" d="M 130.5,99.5 C 132.144,99.8102 133.144,100.81 133.5,102.5C 131.856,102.19 130.856,101.19 130.5,99.5 Z"/></g>
<g><path style="opacity:1" fill="#543112" d="M 133.5,102.5 C 133.833,102.5 134.167,102.5 134.5,102.5C 135.11,103.391 135.443,104.391 135.5,105.5C 134.094,105.027 133.427,104.027 133.5,102.5 Z"/></g>
<g><path style="opacity:1" fill="#563113" d="M 100.5,104.5 C 99.9202,106.749 98.5869,108.415 96.5,109.5C 96.5,108.833 96.5,108.167 96.5,107.5C 97.8333,106.5 99.1667,105.5 100.5,104.5 Z"/></g>
<g><path style="opacity:1" fill="#f1872e" d="M 76.5,102.5 C 76.5,103.833 76.5,105.167 76.5,106.5C 83.3543,106.176 90.021,106.509 96.5,107.5C 96.5,108.167 96.5,108.833 96.5,109.5C 94.8333,110.5 93.5,111.833 92.5,113.5C 90.4131,114.585 89.0798,116.251 88.5,118.5C 87.1667,119.5 85.8333,120.5 84.5,121.5C 82.9522,120.206 80.9522,119.539 78.5,119.5C 76.0788,119.56 73.7455,119.893 71.5,120.5C 72.1667,118.167 72.8333,115.833 73.5,113.5C 74.9238,111.485 75.5905,109.152 75.5,106.5C 75.2322,104.901 75.5655,103.568 76.5,102.5 Z"/></g>
<g><path style="opacity:1" fill="#f58c31" d="M 162.5,103.5 C 163.222,103.918 163.722,104.584 164,105.5C 164.817,111.016 164.651,116.35 163.5,121.5C 163.665,118.15 163.498,114.817 163,111.5C 162.667,112.167 162.333,112.833 162,113.5C 154.045,113.297 145.878,113.297 137.5,113.5C 137.663,111.143 137.497,108.81 137,106.5C 136.617,105.944 136.117,105.611 135.5,105.5C 135.443,104.391 135.11,103.391 134.5,102.5C 134.586,101.504 134.252,100.671 133.5,100C 142.5,99.3333 151.5,99.3333 160.5,100C 161.085,101.302 161.751,102.469 162.5,103.5 Z"/></g>
<g><path style="opacity:1" fill="#a95f21" d="M 75.5,106.5 C 75.5905,109.152 74.9238,111.485 73.5,113.5C 73.5,112.833 73.5,112.167 73.5,111.5C 73.7959,109.597 74.4625,107.93 75.5,106.5 Z"/></g>
<g><path style="opacity:1" fill="#9b571e" d="M 135.5,105.5 C 136.117,105.611 136.617,105.944 137,106.5C 137.497,108.81 137.663,111.143 137.5,113.5C 137.573,115.027 136.906,116.027 135.5,116.5C 135.5,112.833 135.5,109.167 135.5,105.5 Z"/></g>
<g><path style="opacity:1" fill="#774015" d="M 73.5,111.5 C 73.5,112.167 73.5,112.833 73.5,113.5C 72.8333,115.833 72.1667,118.167 71.5,120.5C 71.0113,121.995 70.3446,123.329 69.5,124.5C 70.0569,119.835 71.3902,115.502 73.5,111.5 Z"/></g>
<g><path style="opacity:1" fill="#593011" d="M 92.5,113.5 C 91.9202,115.749 90.5869,117.415 88.5,118.5C 89.0798,116.251 90.4131,114.585 92.5,113.5 Z"/></g>
<g><path style="opacity:1" fill="#6a3a14" d="M 162.5,99.5 C 163.793,100.842 164.626,102.509 165,104.5C 165.667,110.5 165.667,116.5 165,122.5C 164.8,124.32 163.966,125.653 162.5,126.5C 163.038,124.883 163.371,123.216 163.5,121.5C 164.651,116.35 164.817,111.016 164,105.5C 163.722,104.584 163.222,103.918 162.5,103.5C 162.5,102.167 162.5,100.833 162.5,99.5 Z"/></g>
<g><path style="opacity:1" fill="#a85a1e" d="M 135.5,117.5 C 135.167,119.833 133.833,121.167 131.5,121.5C 132.5,119.833 133.833,118.5 135.5,117.5 Z"/></g>
<g><path style="opacity:1" fill="#f48029" d="M 163.5,121.5 C 163.371,123.216 163.038,124.883 162.5,126.5C 162.5,126.833 162.5,127.167 162.5,127.5C 161.833,127.833 161.167,128.167 160.5,128.5C 146.962,127.8 133.295,127.133 119.5,126.5C 119.5,126.167 119.5,125.833 119.5,125.5C 121.042,124.699 122.708,124.366 124.5,124.5C 127.577,124.821 129.91,123.821 131.5,121.5C 133.833,121.167 135.167,119.833 135.5,117.5C 135.5,117.167 135.5,116.833 135.5,116.5C 136.906,116.027 137.573,115.027 137.5,113.5C 145.878,113.297 154.045,113.297 162,113.5C 162.333,112.833 162.667,112.167 163,111.5C 163.498,114.817 163.665,118.15 163.5,121.5 Z"/></g>
<g><path style="opacity:1" fill="#8c4817" d="M 131.5,121.5 C 129.91,123.821 127.577,124.821 124.5,124.5C 126.649,123.264 128.982,122.264 131.5,121.5 Z"/></g>
<g><path style="opacity:1" fill="#582d10" d="M 84.5,122.5 C 83.9202,124.749 82.5869,126.415 80.5,127.5C 81.0798,125.251 82.4131,123.585 84.5,122.5 Z"/></g>
<g><path style="opacity:1" fill="#894516" d="M 119.5,125.5 C 119.5,125.833 119.5,126.167 119.5,126.5C 109.494,126.334 99.4944,126.5 89.5,127C 88.6266,128.045 87.6266,128.878 86.5,129.5C 86.5106,127.983 87.1772,126.816 88.5,126C 98.828,125.5 109.161,125.334 119.5,125.5 Z"/></g>
<g><path style="opacity:1" fill="#ec7524" d="M 84.5,121.5 C 84.5,121.833 84.5,122.167 84.5,122.5C 82.4131,123.585 81.0798,125.251 80.5,127.5C 78.8333,128.5 77.5,129.833 76.5,131.5C 74.4131,132.585 73.0798,134.251 72.5,136.5C 70.8333,137.5 69.5,138.833 68.5,140.5C 67.0937,140.973 66.427,141.973 66.5,143.5C 66.1667,143.5 65.8333,143.5 65.5,143.5C 64.9033,143.265 64.5699,142.765 64.5,142C 65.6868,139.276 66.3535,136.443 66.5,133.5C 68.3104,130.855 69.3104,127.855 69.5,124.5C 70.3446,123.329 71.0113,121.995 71.5,120.5C 73.7455,119.893 76.0788,119.56 78.5,119.5C 80.9522,119.539 82.9522,120.206 84.5,121.5 Z"/></g>
<g><path style="opacity:1" fill="#723812" d="M 69.5,124.5 C 69.3104,127.855 68.3104,130.855 66.5,133.5C 66.5275,130.084 67.5275,127.084 69.5,124.5 Z"/></g>
<g><path style="opacity:1" fill="#f57824" d="M 119.5,126.5 C 133.295,127.133 146.962,127.8 160.5,128.5C 160.5,129.167 160.5,129.833 160.5,130.5C 159.094,130.973 158.427,131.973 158.5,133.5C 157.167,134.5 155.833,135.5 154.5,136.5C 131.19,134.51 107.524,133.843 83.5,134.5C 84.1098,133.609 84.4431,132.609 84.5,131.5C 84.8333,130.5 85.5,129.833 86.5,129.5C 87.6266,128.878 88.6266,128.045 89.5,127C 99.4944,126.5 109.494,126.334 119.5,126.5 Z"/></g>
<g><path style="opacity:1" fill="#653210" d="M 162.5,127.5 C 162.573,129.027 161.906,130.027 160.5,130.5C 160.5,129.833 160.5,129.167 160.5,128.5C 161.167,128.167 161.833,127.833 162.5,127.5 Z"/></g>
<g><path style="opacity:1" fill="#5f2f0f" d="M 160.5,130.5 C 160.573,132.027 159.906,133.027 158.5,133.5C 158.427,131.973 159.094,130.973 160.5,130.5 Z"/></g>
<g><path style="opacity:1" fill="#572a0e" d="M 76.5,131.5 C 75.9202,133.749 74.5869,135.415 72.5,136.5C 73.0798,134.251 74.4131,132.585 76.5,131.5 Z"/></g>
<g><path style="opacity:1" fill="#954715" d="M 84.5,131.5 C 84.4431,132.609 84.1098,133.609 83.5,134.5C 81.8333,135.833 80.1667,137.167 78.5,138.5C 79.7573,135.573 81.7573,133.239 84.5,131.5 Z"/></g>
<g><path style="opacity:1" fill="#f37020" d="M 83.5,134.5 C 107.524,133.843 131.19,134.51 154.5,136.5C 154.5,136.833 154.5,137.167 154.5,137.5C 152.973,137.427 151.973,138.094 151.5,139.5C 149.326,139.75 147.659,140.75 146.5,142.5C 144.901,142.232 143.568,142.566 142.5,143.5C 140.102,143.259 138.102,143.926 136.5,145.5C 134.236,146.219 131.903,146.552 129.5,146.5C 110.497,146.667 91.4971,146.5 72.5,146C 74.4641,144.549 75.7974,142.716 76.5,140.5C 76.8333,139.5 77.5,138.833 78.5,138.5C 80.1667,137.167 81.8333,135.833 83.5,134.5 Z"/></g>
<g><path style="opacity:1" fill="#72340f" d="M 66.5,133.5 C 66.3535,136.443 65.6868,139.276 64.5,142C 64.5699,142.765 64.9033,143.265 65.5,143.5C 64.6942,146.422 63.6942,146.756 62.5,144.5C 63.4679,140.587 64.8012,136.92 66.5,133.5 Z"/></g>
<g><path style="opacity:1" fill="#4f250d" d="M 154.5,137.5 C 154.027,138.906 153.027,139.573 151.5,139.5C 151.973,138.094 152.973,137.427 154.5,137.5 Z"/></g>
<g><path style="opacity:1" fill="#4b220c" d="M 68.5,140.5 C 68.573,142.027 67.9063,143.027 66.5,143.5C 66.427,141.973 67.0937,140.973 68.5,140.5 Z"/></g>
<g><path style="opacity:1" fill="#3f1d0a" d="M 151.5,139.5 C 150.514,141.408 148.848,142.408 146.5,142.5C 147.659,140.75 149.326,139.75 151.5,139.5 Z"/></g>
<g><path style="opacity:1" fill="#57270c" d="M 142.5,143.5 C 140.898,145.074 138.898,145.741 136.5,145.5C 138.102,143.926 140.102,143.259 142.5,143.5 Z"/></g>
<g><path style="opacity:1" fill="#954111" d="M 76.5,140.5 C 75.7974,142.716 74.4641,144.549 72.5,146C 91.4971,146.5 110.497,146.667 129.5,146.5C 109.996,147.828 90.3293,147.828 70.5,146.5C 72.1878,144.146 74.1878,142.146 76.5,140.5 Z"/></g>
<g><path style="opacity:1" fill="#393939" d="M 147.5,157.5 C 147.158,158.338 146.492,158.672 145.5,158.5C 142.428,158.183 139.428,158.516 136.5,159.5C 138.167,160.167 139.833,160.833 141.5,161.5C 141.376,162.107 141.043,162.44 140.5,162.5C 136.03,161.514 131.363,161.181 126.5,161.5C 126.5,160.5 126.5,159.5 126.5,158.5C 133.457,157.614 140.457,157.28 147.5,157.5 Z"/></g>
<g><path style="opacity:1" fill="#b0b0b0" d="M 107.5,159.5 C 107.5,159.167 107.5,158.833 107.5,158.5C 113.5,158.5 119.5,158.5 125.5,158.5C 125.5,160.167 125.5,161.833 125.5,163.5C 123.5,164.833 121.5,166.167 119.5,167.5C 118.28,172.556 117.28,177.556 116.5,182.5C 116.376,176.401 117.043,170.401 118.5,164.5C 120.5,164.5 122.5,164.5 124.5,164.5C 124.5,162.833 124.5,161.167 124.5,159.5C 118.833,159.5 113.167,159.5 107.5,159.5 Z"/></g>
<g><path style="opacity:1" fill="#949494" d="M 70.5,158.5 C 69.4479,160.256 67.7812,160.923 65.5,160.5C 63.9142,159.852 62.2475,159.352 60.5,159C 63.8168,158.502 67.1501,158.335 70.5,158.5 Z"/></g>
<g><path style="opacity:1" fill="#f0f0f0" d="M 72.5,158.5 C 77.5,158.5 82.5,158.5 87.5,158.5C 87.8333,158.5 88.1667,158.5 88.5,158.5C 89.1667,159.5 89.8333,160.5 90.5,161.5C 90.5,162.167 90.5,162.833 90.5,163.5C 90.1667,164.833 89.8333,166.167 89.5,167.5C 87.4805,168.538 87.1472,169.872 88.5,171.5C 89.1667,171.5 89.5,171.833 89.5,172.5C 89.552,174.903 89.2186,177.236 88.5,179.5C 87.1667,180.5 85.8333,181.5 84.5,182.5C 79.1667,182.5 73.8333,182.5 68.5,182.5C 68.5,180.833 68.5,179.167 68.5,177.5C 69.6233,172.65 70.6233,167.65 71.5,162.5C 71.4326,161.041 71.7659,159.708 72.5,158.5 Z"/></g>
<g><path style="opacity:1" fill="#3a3a3a" d="M 125.5,158.5 C 119.5,158.5 113.5,158.5 107.5,158.5C 102.821,158.334 98.1548,158.501 93.5,159C 97.4686,159.853 101.469,160.519 105.5,161C 100.511,161.499 95.5111,161.666 90.5,161.5C 89.8333,160.5 89.1667,159.5 88.5,158.5C 100.98,157.239 113.314,157.239 125.5,158.5 Z"/></g>
<g><path style="opacity:1" fill="#f9f9f9" d="M 107.5,159.5 C 113.167,159.5 118.833,159.5 124.5,159.5C 124.5,161.167 124.5,162.833 124.5,164.5C 122.5,164.5 120.5,164.5 118.5,164.5C 117.043,170.401 116.376,176.401 116.5,182.5C 114.167,182.5 111.833,182.5 109.5,182.5C 109.646,178.481 109.979,174.481 110.5,170.5C 111.461,168.735 111.795,166.735 111.5,164.5C 110.167,164.5 108.833,164.5 107.5,164.5C 107.5,162.833 107.5,161.167 107.5,159.5 Z"/></g>
<g><path style="opacity:1" fill="#f2f2f2" d="M 147.5,157.5 C 151.881,157.372 156.215,157.705 160.5,158.5C 160.567,159.959 160.234,161.292 159.5,162.5C 156.169,164.298 152.502,164.964 148.5,164.5C 148.5,165.5 148.5,166.5 148.5,167.5C 150.861,167.674 153.194,168.007 155.5,168.5C 155.833,168.5 156.167,168.5 156.5,168.5C 157.344,172.099 157.677,175.766 157.5,179.5C 156.094,179.973 155.427,180.973 155.5,182.5C 150.562,183.392 145.562,183.726 140.5,183.5C 139.833,183.5 139.167,183.5 138.5,183.5C 138.325,181.379 138.659,179.379 139.5,177.5C 143.167,177.5 146.833,177.5 150.5,177.5C 150.5,176.5 150.5,175.5 150.5,174.5C 149.167,174.5 147.833,174.5 146.5,174.5C 145.5,174.5 144.5,174.5 143.5,174.5C 140.438,168.727 141.105,163.394 145.5,158.5C 146.492,158.672 147.158,158.338 147.5,157.5 Z"/></g>
<g><path style="opacity:1" fill="#686868" d="M 70.5,158.5 C 71.1667,158.5 71.8333,158.5 72.5,158.5C 71.7659,159.708 71.4326,161.041 71.5,162.5C 68.9407,162.198 66.6074,162.532 64.5,163.5C 61.7531,163.813 59.0865,163.48 56.5,162.5C 59.6417,161.833 62.6417,161.166 65.5,160.5C 67.7812,160.923 69.4479,160.256 70.5,158.5 Z"/></g>
<g><path style="opacity:1" fill="#787878" d="M 107.5,158.5 C 107.5,158.833 107.5,159.167 107.5,159.5C 106.527,161.948 106.194,164.615 106.5,167.5C 103.167,167.5 99.8333,167.5 96.5,167.5C 95.7375,166.732 94.7375,166.232 93.5,166C 95.5767,165.808 97.5767,165.308 99.5,164.5C 96.5719,163.516 93.5719,163.183 90.5,163.5C 90.5,162.833 90.5,162.167 90.5,161.5C 95.5111,161.666 100.511,161.499 105.5,161C 101.469,160.519 97.4686,159.853 93.5,159C 98.1548,158.501 102.821,158.334 107.5,158.5 Z"/></g>
<g><path style="opacity:1" fill="#676767" d="M 125.5,158.5 C 125.833,158.5 126.167,158.5 126.5,158.5C 126.5,159.5 126.5,160.5 126.5,161.5C 131.363,161.181 136.03,161.514 140.5,162.5C 138.265,162.205 136.265,162.539 134.5,163.5C 131.5,163.5 128.5,163.5 125.5,163.5C 125.5,161.833 125.5,160.167 125.5,158.5 Z"/></g>
<g><path style="opacity:1" fill="#353535" d="M 87.5,158.5 C 82.5,158.5 77.5,158.5 72.5,158.5C 71.8333,158.5 71.1667,158.5 70.5,158.5C 67.1501,158.335 63.8168,158.502 60.5,159C 62.2475,159.352 63.9142,159.852 65.5,160.5C 62.6417,161.166 59.6417,161.833 56.5,162.5C 59.0865,163.48 61.7531,163.813 64.5,163.5C 66.2922,164.309 68.2922,164.809 70.5,165C 52.4623,164.945 52.1289,166.279 69.5,169C 66.4465,169.179 63.4465,169.679 60.5,170.5C 63.2125,171.228 65.8791,172.061 68.5,173C 64.6437,173.177 60.977,173.677 57.5,174.5C 49.526,173.984 49.526,173.151 57.5,172C 50.0068,171.452 49.6734,170.119 56.5,168C 55.2412,167.077 53.9079,166.243 52.5,165.5C 53.376,164.749 54.376,164.249 55.5,164C 53.771,162.211 53.1043,160.044 53.5,157.5C 65.0123,157.172 76.3456,157.505 87.5,158.5 Z"/></g>
<g><path style="opacity:1" fill="#b5b5b5" d="M 107.5,159.5 C 107.5,161.167 107.5,162.833 107.5,164.5C 108.833,164.5 110.167,164.5 111.5,164.5C 111.795,166.735 111.461,168.735 110.5,170.5C 110.5,169.5 110.5,168.5 110.5,167.5C 109.167,167.5 107.833,167.5 106.5,167.5C 106.194,164.615 106.527,161.948 107.5,159.5 Z"/></g>
<g><path style="opacity:1" fill="#8d8d8d" d="M 71.5,162.5 C 70.6233,167.65 69.6233,172.65 68.5,177.5C 65.6627,175.598 62.3293,174.931 58.5,175.5C 57.8333,175.5 57.5,175.167 57.5,174.5C 60.977,173.677 64.6437,173.177 68.5,173C 65.8791,172.061 63.2125,171.228 60.5,170.5C 63.4465,169.679 66.4465,169.179 69.5,169C 52.1289,166.279 52.4623,164.945 70.5,165C 68.2922,164.809 66.2922,164.309 64.5,163.5C 66.6074,162.532 68.9407,162.198 71.5,162.5 Z"/></g>
<g><path style="opacity:1" fill="#4f4f4f" d="M 125.5,163.5 C 128.5,163.5 131.5,163.5 134.5,163.5C 142.382,165.718 142.382,166.385 134.5,165.5C 132.36,165.556 130.694,166.223 129.5,167.5C 128.5,167.5 127.5,167.5 126.5,167.5C 124.167,166.167 121.833,166.167 119.5,167.5C 121.5,166.167 123.5,164.833 125.5,163.5 Z"/></g>
<g><path style="opacity:1" fill="#393939" d="M 158.5,165.5 C 158.082,166.222 157.416,166.722 156.5,167C 157.056,167.383 157.389,167.883 157.5,168.5C 157.167,168.5 156.833,168.5 156.5,168.5C 156.167,168.5 155.833,168.5 155.5,168.5C 154.158,167.207 152.491,166.374 150.5,166C 153.146,165.503 155.813,165.336 158.5,165.5 Z"/></g>
<g><path style="opacity:1" fill="#717171" d="M 79.5,164.5 C 80.1667,167.167 80.8333,167.167 81.5,164.5C 82.404,165.209 82.7373,166.209 82.5,167.5C 81.1667,167.5 79.8333,167.5 78.5,167.5C 78.2627,166.209 78.596,165.209 79.5,164.5 Z"/></g>
<g><path style="opacity:1" fill="#242424" d="M 79.5,164.5 C 80.1667,164.5 80.8333,164.5 81.5,164.5C 80.8333,167.167 80.1667,167.167 79.5,164.5 Z"/></g>
<g><path style="opacity:1" fill="#131313" d="M 90.5,163.5 C 93.5719,163.183 96.5719,163.516 99.5,164.5C 97.5767,165.308 95.5767,165.808 93.5,166C 94.7375,166.232 95.7375,166.732 96.5,167.5C 95.4324,168.434 94.099,168.768 92.5,168.5C 92.5,169.5 92.5,170.5 92.5,171.5C 94.1667,171.5 95.8333,171.5 97.5,171.5C 89.5246,173.591 89.8579,174.924 98.5,175.5C 96.0521,176.473 93.3854,176.806 90.5,176.5C 90.7678,174.901 90.4345,173.568 89.5,172.5C 89.5,171.833 89.1667,171.5 88.5,171.5C 88.8333,170.167 89.1667,168.833 89.5,167.5C 89.8333,166.167 90.1667,164.833 90.5,163.5 Z"/></g>
<g><path style="opacity:1" fill="#2f2f2f" d="M 96.5,167.5 C 99.8333,167.5 103.167,167.5 106.5,167.5C 103.645,169.25 100.311,170.083 96.5,170C 97.056,170.383 97.3893,170.883 97.5,171.5C 95.8333,171.5 94.1667,171.5 92.5,171.5C 92.5,170.5 92.5,169.5 92.5,168.5C 94.099,168.768 95.4324,168.434 96.5,167.5 Z"/></g>
<g><path style="opacity:1" fill="#a3a3a3" d="M 159.5,162.5 C 159.737,163.791 159.404,164.791 158.5,165.5C 155.813,165.336 153.146,165.503 150.5,166C 152.491,166.374 154.158,167.207 155.5,168.5C 153.194,168.007 150.861,167.674 148.5,167.5C 148.5,166.5 148.5,165.5 148.5,164.5C 152.502,164.964 156.169,164.298 159.5,162.5 Z"/></g>
<g><path style="opacity:1" fill="#343434" d="M 126.5,167.5 C 127.5,167.5 128.5,167.5 129.5,167.5C 132.91,167.457 136.243,167.957 139.5,169C 135.044,168.898 131.044,169.732 127.5,171.5C 121.505,170.885 121.171,169.552 126.5,167.5 Z"/></g>
<g><path style="opacity:1" fill="#4a4a4a" d="M 89.5,167.5 C 89.1667,168.833 88.8333,170.167 88.5,171.5C 87.1472,169.872 87.4805,168.538 89.5,167.5 Z"/></g>
<g><path style="opacity:1" fill="#797979" d="M 106.5,167.5 C 107.833,167.5 109.167,167.5 110.5,167.5C 110.5,168.5 110.5,169.5 110.5,170.5C 108.901,170.232 107.568,170.566 106.5,171.5C 103.5,171.5 100.5,171.5 97.5,171.5C 97.3893,170.883 97.056,170.383 96.5,170C 100.311,170.083 103.645,169.25 106.5,167.5 Z"/></g>
<g><path style="opacity:1" fill="#3c3c3c" d="M 97.5,171.5 C 100.5,171.5 103.5,171.5 106.5,171.5C 107.675,171.281 108.675,171.614 109.5,172.5C 104.533,173.329 99.5329,173.829 94.5,174C 96.0581,174.21 97.3915,174.71 98.5,175.5C 89.8579,174.924 89.5246,173.591 97.5,171.5 Z"/></g>
<g><path style="opacity:1" fill="#c3c3c3" d="M 156.5,168.5 C 156.833,168.5 157.167,168.5 157.5,168.5C 160.156,172.209 160.156,175.876 157.5,179.5C 157.677,175.766 157.344,172.099 156.5,168.5 Z"/></g>
<g><path style="opacity:1" fill="#949494" d="M 106.5,171.5 C 107.568,170.566 108.901,170.232 110.5,170.5C 109.979,174.481 109.646,178.481 109.5,182.5C 111.833,182.5 114.167,182.5 116.5,182.5C 111.025,183.489 105.358,183.822 99.5,183.5C 102.061,181.906 105.061,180.906 108.5,180.5C 105.572,179.516 102.572,179.183 99.5,179.5C 98.3915,178.71 97.0581,178.21 95.5,178C 99.8711,177.828 104.204,177.328 108.5,176.5C 105.232,175.513 101.898,175.18 98.5,175.5C 97.3915,174.71 96.0581,174.21 94.5,174C 99.5329,173.829 104.533,173.329 109.5,172.5C 108.675,171.614 107.675,171.281 106.5,171.5 Z"/></g>
<g><path style="opacity:1" fill="#515151" d="M 80.5,176.5 C 79.791,177.404 78.791,177.737 77.5,177.5C 77.5,176.167 77.5,174.833 77.5,173.5C 78.8333,173.5 80.1667,173.5 81.5,173.5C 81.7373,174.791 81.404,175.791 80.5,176.5 Z"/></g>
<g><path style="opacity:1" fill="#131313" d="M 80.5,176.5 C 78.663,176.361 78.3296,175.694 79.5,174.5C 80.2975,174.957 80.6309,175.624 80.5,176.5 Z"/></g>
<g><path style="opacity:1" fill="#404040" d="M 58.5,175.5 C 62.3293,174.931 65.6627,175.598 68.5,177.5C 64.8183,177.335 61.1516,177.501 57.5,178C 58.056,178.383 58.3893,178.883 58.5,179.5C 55.8333,179.5 53.1667,179.5 50.5,179.5C 50.5,178.5 50.5,177.5 50.5,176.5C 53.3854,176.806 56.0521,176.473 58.5,175.5 Z"/></g>
<g><path style="opacity:1" fill="#3d3d3d" d="M 89.5,172.5 C 90.4345,173.568 90.7678,174.901 90.5,176.5C 93.3854,176.806 96.0521,176.473 98.5,175.5C 101.898,175.18 105.232,175.513 108.5,176.5C 104.204,177.328 99.8711,177.828 95.5,178C 97.0581,178.21 98.3915,178.71 99.5,179.5C 95.6839,179.213 92.0173,179.213 88.5,179.5C 89.2186,177.236 89.552,174.903 89.5,172.5 Z"/></g>
<g><path style="opacity:1" fill="#3f3f3f" d="M 128.5,171.5 C 132.555,171.176 136.555,171.509 140.5,172.5C 137.893,173.318 135.226,173.818 132.5,174C 135.398,174.436 137.731,175.603 139.5,177.5C 135.988,176.945 132.988,177.612 130.5,179.5C 127.843,179.838 125.51,179.171 123.5,177.5C 126.447,176.679 129.447,176.179 132.5,176C 129.447,175.821 126.447,175.321 123.5,174.5C 124.947,173.065 126.614,172.065 128.5,171.5 Z"/></g>
<g><path style="opacity:1" fill="#8d8d8d" d="M 145.5,158.5 C 141.105,163.394 140.438,168.727 143.5,174.5C 142.957,174.56 142.624,174.893 142.5,175.5C 144.765,176.647 147.098,176.814 149.5,176C 148.263,175.768 147.263,175.268 146.5,174.5C 147.833,174.5 149.167,174.5 150.5,174.5C 150.5,175.5 150.5,176.5 150.5,177.5C 146.833,177.5 143.167,177.5 139.5,177.5C 137.731,175.603 135.398,174.436 132.5,174C 135.226,173.818 137.893,173.318 140.5,172.5C 136.555,171.509 132.555,171.176 128.5,171.5C 128.167,171.5 127.833,171.5 127.5,171.5C 131.044,169.732 135.044,168.898 139.5,169C 136.243,167.957 132.91,167.457 129.5,167.5C 130.694,166.223 132.36,165.556 134.5,165.5C 142.382,166.385 142.382,165.718 134.5,163.5C 136.265,162.539 138.265,162.205 140.5,162.5C 141.043,162.44 141.376,162.107 141.5,161.5C 139.833,160.833 138.167,160.167 136.5,159.5C 139.428,158.516 142.428,158.183 145.5,158.5 Z"/></g>
<g><path style="opacity:1" fill="#4e4e4e" d="M 143.5,174.5 C 144.5,174.5 145.5,174.5 146.5,174.5C 147.263,175.268 148.263,175.768 149.5,176C 147.098,176.814 144.765,176.647 142.5,175.5C 142.624,174.893 142.957,174.56 143.5,174.5 Z"/></g>
<g><path style="opacity:1" fill="#444444" d="M 58.5,179.5 C 61.5719,179.183 64.5719,179.516 67.5,180.5C 64.3837,180.92 61.7171,181.92 59.5,183.5C 48.0589,183.102 47.7256,181.768 58.5,179.5 Z"/></g>
<g><path style="opacity:1" fill="#454545" d="M 99.5,179.5 C 102.572,179.183 105.572,179.516 108.5,180.5C 105.061,180.906 102.061,181.906 99.5,183.5C 89.1669,182.489 89.1669,181.156 99.5,179.5 Z"/></g>
<g><path style="opacity:1" fill="#3e3e3e" d="M 130.5,179.5 C 132.924,179.192 135.257,179.526 137.5,180.5C 133.878,181.325 130.211,181.825 126.5,182C 128.058,182.21 129.391,182.71 130.5,183.5C 127.753,183.813 125.086,183.48 122.5,182.5C 122.709,181.914 123.043,181.414 123.5,181C 126.036,180.814 128.369,180.314 130.5,179.5 Z"/></g>
<g><path style="opacity:1" fill="#838383" d="M 157.5,179.5 C 157.573,181.027 156.906,182.027 155.5,182.5C 155.427,180.973 156.094,179.973 157.5,179.5 Z"/></g>
<g><path style="opacity:1" fill="#979797" d="M 68.5,177.5 C 68.5,179.167 68.5,180.833 68.5,182.5C 73.8333,182.5 79.1667,182.5 84.5,182.5C 84.5,182.833 84.5,183.167 84.5,183.5C 76.1667,183.5 67.8333,183.5 59.5,183.5C 61.7171,181.92 64.3837,180.92 67.5,180.5C 64.5719,179.516 61.5719,179.183 58.5,179.5C 58.3893,178.883 58.056,178.383 57.5,178C 61.1516,177.501 64.8183,177.335 68.5,177.5 Z"/></g>
<g><path style="opacity:1" fill="#5f5f5f" d="M 88.5,179.5 C 88.1667,181.833 86.8333,183.167 84.5,183.5C 84.5,183.167 84.5,182.833 84.5,182.5C 85.8333,181.5 87.1667,180.5 88.5,179.5 Z"/></g>
<g><path style="opacity:1" fill="#8c8c8c" d="M 139.5,177.5 C 138.659,179.379 138.325,181.379 138.5,183.5C 135.833,183.5 133.167,183.5 130.5,183.5C 129.391,182.71 128.058,182.21 126.5,182C 130.211,181.825 133.878,181.325 137.5,180.5C 135.257,179.526 132.924,179.192 130.5,179.5C 132.988,177.612 135.988,176.945 139.5,177.5 Z"/></g>
<g><path style="opacity:1" fill="#616161" d="M 155.5,182.5 C 155.389,183.117 155.056,183.617 154.5,184C 149.648,184.815 144.981,184.648 140.5,183.5C 145.562,183.726 150.562,183.392 155.5,182.5 Z"/></g>
</svg>
