<?xml version="1.0" encoding="UTF-8"?>
<!DOCTYPE svg PUBLIC "-//W3C//DTD SVG 1.1//EN" "http://www.w3.org/Graphics/SVG/1.1/DTD/svg11.dtd">
<svg xmlns="http://www.w3.org/2000/svg" version="1.1" width="2000px" height="2000px" style="shape-rendering:geometricPrecision; text-rendering:geometricPrecision; image-rendering:optimizeQuality; fill-rule:evenodd; clip-rule:evenodd" xmlns:xlink="http://www.w3.org/1999/xlink">
<g><path style="opacity:0.994" fill="#03549d" d="M 957.5,-0.5 C 985.5,-0.5 1013.5,-0.5 1041.5,-0.5C 1163.03,5.04894 1279.69,31.7156 1391.5,79.5C 1130.17,80.8333 868.833,80.8333 607.5,79.5C 719.307,31.7156 835.974,5.04894 957.5,-0.5 Z"/></g>
<g><path style="opacity:0.999" fill="#03529a" d="M 607.5,79.5 C 868.833,80.8333 1130.17,80.8333 1391.5,79.5C 1462.27,109.061 1528.27,146.395 1589.5,191.5C 1588.67,192.329 1589,193.162 1590.5,194C 1196.5,194.667 802.5,194.667 408.5,194C 409.999,193.162 410.332,192.329 409.5,191.5C 470.728,146.395 536.728,109.061 607.5,79.5 Z"/></g>
<g><path style="opacity:0.999" fill="#035096" d="M 409.5,191.5 C 410.332,192.329 409.999,193.162 408.5,194C 802.5,194.667 1196.5,194.667 1590.5,194C 1589,193.162 1588.67,192.329 1589.5,191.5C 1621.98,215.31 1652.98,240.977 1682.5,268.5C 1481.57,269.499 1280.57,269.832 1079.5,269.5C 1052.56,259.575 1025.06,251.575 997,245.5C 969.216,251.372 942.05,259.372 915.5,269.5C 715.764,269.832 516.097,269.499 316.5,268.5C 346.017,240.977 377.017,215.31 409.5,191.5 Z"/></g>
<g><path style="opacity:1" fill="#002d56" d="M 1079.5,269.5 C 1172.89,305.593 1254.22,359.593 1323.5,431.5C 1353.17,463.863 1379.17,498.863 1401.5,536.5C 1412.21,555.249 1421.87,574.582 1430.5,594.5C 1453.31,646.401 1468.98,700.401 1477.5,756.5C 1481.01,780.487 1484.35,804.487 1487.5,828.5C 1492.42,867.489 1497.42,906.489 1502.5,945.5C 1509.28,999.572 1515.62,1053.57 1521.5,1107.5C 1524.16,1140.48 1526.66,1173.48 1529,1206.5C 1530.13,1226.15 1530.63,1245.82 1530.5,1265.5C 1529.19,1272.63 1528.52,1279.96 1528.5,1287.5C 1490.21,1298.98 1454.54,1315.81 1421.5,1338C 1389.2,1360.44 1359.7,1386.27 1333,1415.5C 1328.21,1420.44 1324.05,1425.77 1320.5,1431.5C 1275.59,1486.07 1244.93,1548.07 1228.5,1617.5C 1226.76,1627.34 1224.43,1637.17 1221.5,1647C 1220.73,1648.22 1219.73,1649.22 1218.5,1650C 1159.88,1683.89 1101.71,1718.39 1044,1753.5C 1045.07,1719.45 1046.91,1685.45 1049.5,1651.5C 1015.17,1650.5 980.84,1650.17 946.5,1650.5C 947.816,1682.01 949.482,1713.51 951.5,1745C 951.167,1747.5 950.833,1750 950.5,1752.5C 891.017,1717.84 831.85,1682.5 773,1646.5C 771.568,1637.5 769.401,1628.84 766.5,1620.5C 750.013,1549.53 718.68,1486.2 672.5,1430.5C 633.793,1382 587.127,1343.16 532.5,1314C 512.016,1303.12 490.682,1294.28 468.5,1287.5C 466.903,1281.62 465.903,1275.62 465.5,1269.5C 464.433,1251.52 464.266,1233.52 465,1215.5C 467.182,1178.73 470.349,1142.07 474.5,1105.5C 479.55,1052.05 485.55,998.714 492.5,945.5C 497.303,906.464 502.303,867.464 507.5,828.5C 510.964,804.514 514.297,780.514 517.5,756.5C 525.356,700.413 540.69,646.413 563.5,594.5C 572.464,574.57 582.464,555.237 593.5,536.5C 615.646,498.68 641.646,463.68 671.5,431.5C 740.695,359.545 822.028,305.545 915.5,269.5C 942.05,259.372 969.216,251.372 997,245.5C 1025.06,251.575 1052.56,259.575 1079.5,269.5 Z"/></g>
<g><path style="opacity:0.999" fill="#034e92" d="M 316.5,268.5 C 516.097,269.499 715.764,269.832 915.5,269.5C 822.028,305.545 740.695,359.545 671.5,431.5C 506.5,431.5 341.5,431.5 176.5,431.5C 216.495,371.808 263.162,317.475 316.5,268.5 Z"/></g>
<g><path style="opacity:0.999" fill="#034e92" d="M 1682.5,268.5 C 1735.49,317.458 1782.16,371.458 1822.5,430.5C 1656.24,431.499 1489.9,431.832 1323.5,431.5C 1254.22,359.593 1172.89,305.593 1079.5,269.5C 1280.57,269.832 1481.57,269.499 1682.5,268.5 Z"/></g>
<g><path style="opacity:1" fill="#77838a" d="M 1105.5,1671.5 C 1126.57,1452.44 1148.24,1233.44 1170.5,1014.5C 1193.7,1000.13 1217.04,985.968 1240.5,972C 1301.13,931.833 1323.63,876 1308,804.5C 1305.51,793.701 1301.85,783.368 1297,773.5C 1296.54,774.094 1296.37,774.761 1296.5,775.5C 1295.54,773.735 1295.21,771.735 1295.5,769.5C 1221.71,797.097 1148.05,825.097 1074.5,853.5C 1065.43,938.941 1056.77,1024.44 1048.5,1110C 1048.32,1111.66 1047.66,1112.99 1046.5,1114C 1030.86,1118.83 1015.2,1123.49 999.5,1128C 997.833,1128.67 996.167,1128.67 994.5,1128C 978.558,1123.54 962.725,1118.71 947,1113.5C 938.499,1026.83 929.999,940.161 921.5,853.5C 847.5,825.5 773.5,797.5 699.5,769.5C 698.742,772.352 698.742,775.019 699.5,777.5C 698.227,779.713 697.227,782.046 696.5,784.5C 684.007,818.569 682.173,853.236 691,888.5C 700.191,917.379 716.691,941.212 740.5,960C 769.747,978.875 799.247,997.375 829,1015.5C 850.333,1234.16 871.666,1452.83 893,1671.5C 898.112,1674.64 903.279,1677.64 908.5,1680.5C 909.167,1680.5 909.5,1680.83 909.5,1681.5C 908.883,1681.61 908.383,1681.94 908,1682.5C 875.405,1663.56 843.072,1644.23 811,1624.5C 769.98,1459.09 728.647,1293.75 687,1128.5C 686.833,1129.33 686.667,1130.17 686.5,1131C 691.293,1167.79 695.627,1204.63 699.5,1241.5C 674.414,1246.68 649.747,1245.18 625.5,1237C 598.978,1224.47 581.811,1203.97 574,1175.5C 565.632,1147.03 559.965,1118.03 557,1088.5C 554.502,1063.56 552.835,1038.56 552,1013.5C 548.052,1086.47 545.052,1159.47 543,1232.5C 615.771,1267.27 673.438,1318.94 716,1387.5C 716.69,1388.74 717.19,1388.74 717.5,1387.5C 719.478,1401.34 720.978,1415.34 722,1429.5C 665.192,1352.01 592.358,1295.01 503.5,1258.5C 502.694,1242.84 502.86,1227.17 504,1211.5C 511.885,1109.87 522.552,1008.53 536,907.5C 543.464,853.536 550.797,799.536 558,745.5C 597.321,546.298 709.154,404.464 893.5,320C 926.99,304.67 961.657,292.837 997.5,284.5C 1126.85,317.219 1234.35,384.219 1320,485.5C 1384.82,568.178 1424.82,661.845 1440,766.5C 1458.23,893.799 1473.57,1021.47 1486,1149.5C 1487.86,1172.15 1489.52,1194.82 1491,1217.5C 1491.83,1231.18 1491.67,1244.85 1490.5,1258.5C 1352.07,1317.77 1256.9,1418.1 1205,1559.5C 1197.76,1580.15 1191.92,1601.15 1187.5,1622.5C 1160.47,1639.35 1133.14,1655.68 1105.5,1671.5 Z"/></g>
<g><path style="opacity:1" fill="#d4dfe4" d="M 896.5,377.5 C 943.818,374.973 973.652,396.64 986,442.5C 990.995,474.518 981.161,501.018 956.5,522C 932.729,539.931 906.063,551.264 876.5,556C 858.924,558.603 841.257,560.269 823.5,561C 785.099,565.462 750.432,579.128 719.5,602C 709.876,609.289 700.542,616.955 691.5,625C 675.217,642.405 659.05,659.905 643,677.5C 642.844,671.772 643.511,666.105 645,660.5C 679.59,530.588 758.09,438.088 880.5,383C 885.979,381.23 891.313,379.397 896.5,377.5 Z"/></g>
<g><path style="opacity:1" fill="#024b8d" d="M 1822.5,430.5 C 1844.27,462.363 1864.27,495.363 1882.5,529.5C 1882.59,531.677 1883.25,533.677 1884.5,535.5C 1723.5,536.5 1562.5,536.833 1401.5,536.5C 1379.17,498.863 1353.17,463.863 1323.5,431.5C 1489.9,431.832 1656.24,431.499 1822.5,430.5 Z"/></g>
<g><path style="opacity:1" fill="#024b8d" d="M 176.5,431.5 C 341.5,431.5 506.5,431.5 671.5,431.5C 641.646,463.68 615.646,498.68 593.5,536.5C 433.291,537.163 273.291,536.496 113.5,534.5C 132.256,498.629 153.256,464.295 176.5,431.5 Z"/></g>
<g><path style="opacity:0.999" fill="#02498a" d="M 1882.5,529.5 C 1893.87,550.244 1904.2,571.577 1913.5,593.5C 1752.57,594.498 1591.57,594.832 1430.5,594.5C 1421.87,574.582 1412.21,555.249 1401.5,536.5C 1562.5,536.833 1723.5,536.5 1884.5,535.5C 1883.25,533.677 1882.59,531.677 1882.5,529.5 Z"/></g>
<g><path style="opacity:0.999" fill="#02498a" d="M 113.5,534.5 C 273.291,536.496 433.291,537.163 593.5,536.5C 582.464,555.237 572.464,574.57 563.5,594.5C 403.833,594.5 244.167,594.5 84.5,594.5C 93.6378,574.225 103.305,554.225 113.5,534.5 Z"/></g>
<g><path style="opacity:0.999" fill="#024786" d="M 1913.5,593.5 C 1937.32,645.944 1955.98,700.277 1969.5,756.5C 1805.5,756.5 1641.5,756.5 1477.5,756.5C 1468.98,700.401 1453.31,646.401 1430.5,594.5C 1591.57,594.832 1752.57,594.498 1913.5,593.5 Z"/></g>
<g><path style="opacity:0.999" fill="#024786" d="M 84.5,594.5 C 244.167,594.5 403.833,594.5 563.5,594.5C 540.69,646.413 525.356,700.413 517.5,756.5C 354.763,756.832 192.097,756.498 29.5,755.5C 43.2581,700.225 61.5915,646.558 84.5,594.5 Z"/></g>
<g><path style="opacity:1" fill="#d4dfe4" d="M 777.5,608.5 C 782.699,608.014 787.699,608.681 792.5,610.5C 794.466,613.549 794.966,616.882 794,620.5C 792.393,626.381 789.726,631.714 786,636.5C 776.221,649.62 764.054,659.786 749.5,667C 734.921,673.872 722.421,671.372 712,659.5C 710.699,657.598 710.032,655.598 710,653.5C 727.864,631.333 750.364,616.333 777.5,608.5 Z"/></g>
<g><path style="opacity:1" fill="#024582" d="M 29.5,755.5 C 192.097,756.498 354.763,756.832 517.5,756.5C 514.297,780.514 510.964,804.514 507.5,828.5C 342.833,828.5 178.167,828.5 13.5,828.5C 17.8313,803.833 23.1647,779.5 29.5,755.5 Z"/></g>
<g><path style="opacity:1" fill="#024582" d="M 1477.5,756.5 C 1641.5,756.5 1805.5,756.5 1969.5,756.5C 1975.96,780.136 1981.3,804.136 1985.5,828.5C 1819.5,828.5 1653.5,828.5 1487.5,828.5C 1484.35,804.487 1481.01,780.487 1477.5,756.5 Z"/></g>
<g><path style="opacity:1" fill="#a8c2d2" d="M 826.5,971.5 C 785.327,958.134 751.493,934.467 725,900.5C 710.52,879.74 701.52,856.74 698,831.5C 696.758,815.659 696.258,799.992 696.5,784.5C 697.227,782.046 698.227,779.713 699.5,777.5C 700.045,775.407 700.878,773.407 702,771.5C 690.333,856.339 722.166,918.506 797.5,958C 807.257,962.549 816.924,967.049 826.5,971.5 Z"/></g>
<g><path style="opacity:1" fill="#aab8c1" d="M 1105.5,1671.5 C 1099.53,1675.16 1093.53,1678.82 1087.5,1682.5C 1087.17,1679 1086.83,1675.5 1086.5,1672C 1098.72,1442.47 1111.38,1212.97 1124.5,983.5C 1165.63,975.763 1202.96,959.596 1236.5,935C 1286.21,893.343 1306.21,840.177 1296.5,775.5C 1296.37,774.761 1296.54,774.094 1297,773.5C 1301.85,783.368 1305.51,793.701 1308,804.5C 1323.63,876 1301.13,931.833 1240.5,972C 1217.04,985.968 1193.7,1000.13 1170.5,1014.5C 1148.24,1233.44 1126.57,1452.44 1105.5,1671.5 Z"/></g>
<g><path style="opacity:1" fill="#d4dfe4" d="M 696.5,784.5 C 696.258,799.992 696.758,815.659 698,831.5C 701.52,856.74 710.52,879.74 725,900.5C 751.493,934.467 785.327,958.134 826.5,971.5C 841.409,976.012 856.409,980.012 871.5,983.5C 883.575,1215.85 895.908,1448.18 908.5,1680.5C 903.279,1677.64 898.112,1674.64 893,1671.5C 871.666,1452.83 850.333,1234.16 829,1015.5C 799.247,997.375 769.747,978.875 740.5,960C 716.691,941.212 700.191,917.379 691,888.5C 682.173,853.236 684.007,818.569 696.5,784.5 Z"/></g>
<g><path style="opacity:0.999" fill="#02437e" d="M 13.5,828.5 C 178.167,828.5 342.833,828.5 507.5,828.5C 502.303,867.464 497.303,906.464 492.5,945.5C 328.5,945.5 164.5,945.5 0.5,945.5C 2.71192,906.259 7.04525,867.259 13.5,828.5 Z"/></g>
<g><path style="opacity:0.999" fill="#01437e" d="M 1487.5,828.5 C 1653.5,828.5 1819.5,828.5 1985.5,828.5C 1991.95,867.259 1996.29,906.259 1998.5,945.5C 1833.17,945.5 1667.83,945.5 1502.5,945.5C 1497.42,906.489 1492.42,867.489 1487.5,828.5 Z"/></g>
<g><path style="opacity:0.999" fill="#014079" d="M 0.5,945.5 C 164.5,945.5 328.5,945.5 492.5,945.5C 485.55,998.714 479.55,1052.05 474.5,1105.5C 318.209,1107.16 161.875,1108.16 5.5,1108.5C 2.74878,1086.56 0.748777,1064.56 -0.5,1042.5C -0.5,1013.83 -0.5,985.167 -0.5,956.5C 0.481638,953.038 0.814971,949.371 0.5,945.5 Z"/></g>
<g><path style="opacity:0.999" fill="#014079" d="M 1502.5,945.5 C 1667.83,945.5 1833.17,945.5 1998.5,945.5C 1998.19,949.371 1998.52,953.038 1999.5,956.5C 1999.5,985.167 1999.5,1013.83 1999.5,1042.5C 1998.25,1064.56 1996.25,1086.56 1993.5,1108.5C 1836.33,1107.5 1679,1107.17 1521.5,1107.5C 1515.62,1053.57 1509.28,999.572 1502.5,945.5 Z"/></g>
<g><path style="opacity:1" fill="#a5c0d1" d="M 871.5,983.5 C 872.5,983.5 873.5,983.5 874.5,983.5C 886.382,1207.18 898.548,1430.84 911,1654.5C 911.667,1663.83 911.667,1673.17 911,1682.5C 910.617,1681.94 910.117,1681.61 909.5,1681.5C 909.5,1680.83 909.167,1680.5 908.5,1680.5C 895.908,1448.18 883.575,1215.85 871.5,983.5 Z"/></g>
<g><path style="opacity:1" fill="#d3dee3" d="M 699.5,1241.5 C 705.976,1289.98 711.976,1338.64 717.5,1387.5C 717.19,1388.74 716.69,1388.74 716,1387.5C 673.438,1318.94 615.771,1267.27 543,1232.5C 545.052,1159.47 548.052,1086.47 552,1013.5C 552.835,1038.56 554.502,1063.56 557,1088.5C 559.965,1118.03 565.632,1147.03 574,1175.5C 581.811,1203.97 598.978,1224.47 625.5,1237C 649.747,1245.18 674.414,1246.68 699.5,1241.5 Z"/></g>
<g><path style="opacity:1" fill="#909da4" d="M 1446.5,1014.5 C 1447.3,1015.95 1447.8,1017.62 1448,1019.5C 1450.64,1090.52 1453.31,1161.52 1456,1232.5C 1356.66,1280.16 1287.66,1355.5 1249,1458.5C 1262.83,1386.17 1277.16,1313.84 1292,1241.5C 1292.56,1240.98 1293.23,1240.64 1294,1240.5C 1327.15,1249.14 1358.65,1245.31 1388.5,1229C 1404.4,1217.39 1415.57,1202.22 1422,1183.5C 1432.98,1149.64 1439.98,1114.98 1443,1079.5C 1445.16,1057.88 1446.33,1036.22 1446.5,1014.5 Z"/></g>
<g><path style="opacity:0.999" fill="#013d73" d="M 1521.5,1107.5 C 1679,1107.17 1836.33,1107.5 1993.5,1108.5C 1988.15,1163.24 1977.82,1216.91 1962.5,1269.5C 1818.5,1269.5 1674.5,1269.5 1530.5,1269.5C 1530.5,1268.17 1530.5,1266.83 1530.5,1265.5C 1530.63,1245.82 1530.13,1226.15 1529,1206.5C 1526.66,1173.48 1524.16,1140.48 1521.5,1107.5 Z"/></g>
<g><path style="opacity:0.999" fill="#013d73" d="M 474.5,1105.5 C 470.349,1142.07 467.182,1178.73 465,1215.5C 464.266,1233.52 464.433,1251.52 465.5,1269.5C 322.5,1269.5 179.5,1269.5 36.5,1269.5C 21.1829,1216.91 10.8495,1163.24 5.5,1108.5C 161.875,1108.16 318.209,1107.16 474.5,1105.5 Z"/></g>
<g><path style="opacity:1" fill="#01396d" d="M 36.5,1269.5 C 179.5,1269.5 322.5,1269.5 465.5,1269.5C 465.903,1275.62 466.903,1281.62 468.5,1287.5C 490.682,1294.28 512.016,1303.12 532.5,1314C 587.127,1343.16 633.793,1382 672.5,1430.5C 481.001,1431.5 289.334,1431.83 97.5,1431.5C 72.0639,1379.54 51.7306,1325.54 36.5,1269.5 Z"/></g>
<g><path style="opacity:1" fill="#01396d" d="M 1530.5,1265.5 C 1530.5,1266.83 1530.5,1268.17 1530.5,1269.5C 1674.5,1269.5 1818.5,1269.5 1962.5,1269.5C 1947.27,1325.54 1926.94,1379.54 1901.5,1431.5C 1707.83,1431.5 1514.17,1431.5 1320.5,1431.5C 1324.05,1425.77 1328.21,1420.44 1333,1415.5C 1359.7,1386.27 1389.2,1360.44 1421.5,1338C 1454.54,1315.81 1490.21,1298.98 1528.5,1287.5C 1528.52,1279.96 1529.19,1272.63 1530.5,1265.5 Z"/></g>
<g><path style="opacity:0.999" fill="#003667" d="M 672.5,1430.5 C 718.68,1486.2 750.013,1549.53 766.5,1620.5C 583.334,1621.5 400.001,1621.83 216.5,1621.5C 169.317,1563.19 129.651,1499.86 97.5,1431.5C 289.334,1431.83 481.001,1431.5 672.5,1430.5 Z"/></g>
<g><path style="opacity:0.999" fill="#003667" d="M 1320.5,1431.5 C 1514.17,1431.5 1707.83,1431.5 1901.5,1431.5C 1869.35,1499.86 1829.68,1563.19 1782.5,1621.5C 1597.83,1621.5 1413.17,1621.5 1228.5,1621.5C 1228.5,1620.17 1228.5,1618.83 1228.5,1617.5C 1244.93,1548.07 1275.59,1486.07 1320.5,1431.5 Z"/></g>
<g><path style="opacity:1" fill="#003260" d="M 1228.5,1617.5 C 1228.5,1618.83 1228.5,1620.17 1228.5,1621.5C 1413.17,1621.5 1597.83,1621.5 1782.5,1621.5C 1744.38,1670.3 1701.71,1714.96 1654.5,1755.5C 1217.83,1755.5 781.167,1755.5 344.5,1755.5C 297.319,1714.99 254.652,1670.32 216.5,1621.5C 400.001,1621.83 583.334,1621.5 766.5,1620.5C 769.401,1628.84 771.568,1637.5 773,1646.5C 831.85,1682.5 891.017,1717.84 950.5,1752.5C 950.833,1750 951.167,1747.5 951.5,1745C 949.482,1713.51 947.816,1682.01 946.5,1650.5C 980.84,1650.17 1015.17,1650.5 1049.5,1651.5C 1046.91,1685.45 1045.07,1719.45 1044,1753.5C 1101.71,1718.39 1159.88,1683.89 1218.5,1650C 1219.73,1649.22 1220.73,1648.22 1221.5,1647C 1224.43,1637.17 1226.76,1627.34 1228.5,1617.5 Z"/></g>
<g><path style="opacity:1" fill="#00305e" d="M 344.5,1755.5 C 781.167,1755.5 1217.83,1755.5 1654.5,1755.5C 1644.76,1764.87 1634.43,1773.54 1623.5,1781.5C 1621.9,1781.31 1620.56,1781.81 1619.5,1783C 1412.83,1783.17 1206.17,1783.33 999.5,1783.5C 792.833,1783.33 586.167,1783.17 379.5,1783C 378.437,1781.81 377.103,1781.31 375.5,1781.5C 364.571,1773.54 354.238,1764.87 344.5,1755.5 Z"/></g>
<g><path style="opacity:0.999" fill="#002f5a" d="M 375.5,1781.5 C 377.103,1781.31 378.437,1781.81 379.5,1783C 586.167,1783.17 792.833,1783.33 999.5,1783.5C 1206.17,1783.33 1412.83,1783.17 1619.5,1783C 1620.56,1781.81 1621.9,1781.31 1623.5,1781.5C 1533.5,1853.52 1433.5,1908.52 1323.5,1946.5C 1107.33,1945.5 891.001,1945.17 674.5,1945.5C 564.722,1908.13 465.056,1853.47 375.5,1781.5 Z"/></g>
<g><path style="opacity:0.993" fill="#002d56" d="M 674.5,1945.5 C 891.001,1945.17 1107.33,1945.5 1323.5,1946.5C 1231.81,1977.11 1137.81,1994.78 1041.5,1999.5C 1013.5,1999.5 985.5,1999.5 957.5,1999.5C 860.607,1994.96 766.274,1976.96 674.5,1945.5 Z"/></g>
</svg>
